Rosalind Serif-Bold.ufo
<glyph name="exclam" format="1">
  <advance width="634"/>
  <unicode hex="0021"/>
  <note>
	exclam
  </note>
  <outline>
    <contour>
      <point x="473" y="1580" type="line"/>
      <point x="403" y="473" type="line"/>
      <point x="224" y="473" type="line"/>
      <point x="146" y="1580" type="line"/>
    </contour>
    <contour>
      <point x="397" y="296"/>
      <point x="446" y="266"/>
      <point x="471" y="222" type="curve"/>
      <point x="483" y="199"/>
      <point x="489" y="175"/>
      <point x="489" y="149" type="curve" smooth="yes"/>
      <point x="489" y="48"/>
      <point x="414" y="-15"/>
      <point x="306" y="-15" type="curve" smooth="yes"/>
      <point x="254" y="-15"/>
      <point x="203" y="11"/>
      <point x="175" y="56" type="curve" smooth="yes"/>
      <point x="160" y="79"/>
      <point x="153" y="104"/>
      <point x="153" y="133" type="curve" smooth="yes"/>
      <point x="153" y="196"/>
      <point x="188" y="247"/>
      <point x="243" y="275" type="curve" smooth="yes"/>
      <point x="270" y="289"/>
      <point x="300" y="296"/>
      <point x="332" y="296" type="curve" smooth="yes"/>
    </contour>
  </outline>
</glyph>
<glyph name="quotedbl" format="1">
  <advance width="1149"/>
  <unicode hex="0022"/>
  <note>
	quotedbl
  </note>
  <outline>
    <contour>
      <point x="953" y="1509" type="line"/>
      <point x="906" y="775" type="line"/>
      <point x="738" y="775" type="line"/>
      <point x="691" y="1509" type="line"/>
    </contour>
    <contour>
      <point x="458" y="1509" type="line"/>
      <point x="411" y="775" type="line"/>
      <point x="243" y="775" type="line"/>
      <point x="196" y="1509" type="line"/>
    </contour>
  </outline>
</glyph>
<glyph name="numbersign" format="1">
  <advance width="1340"/>
  <unicode hex="0023"/>
  <note>
	numbersign
  </note>
  <outline>
    <contour>
      <point x="131" y="311" type="line"/>
      <point x="129" y="460" type="line"/>
      <point x="333" y="460" type="line"/>
      <point x="363" y="763" type="line"/>
      <point x="159" y="763" type="line"/>
      <point x="159" y="913" type="line"/>
      <point x="385" y="913" type="line"/>
      <point x="414" y="1208" type="line"/>
      <point x="627" y="1208" type="line"/>
      <point x="598" y="913" type="line"/>
      <point x="845" y="913" type="line"/>
      <point x="875" y="1208" type="line"/>
      <point x="1089" y="1208" type="line"/>
      <point x="1058" y="913" type="line"/>
      <point x="1258" y="913" type="line"/>
      <point x="1258" y="763" type="line"/>
      <point x="1038" y="763" type="line"/>
      <point x="1008" y="460" type="line"/>
      <point x="1220" y="460" type="line"/>
      <point x="1221" y="311" type="line"/>
      <point x="990" y="311" type="line"/>
      <point x="958" y="0" type="line"/>
      <point x="745" y="0" type="line"/>
      <point x="776" y="311" type="line"/>
      <point x="528" y="311" type="line"/>
      <point x="495" y="0" type="line"/>
      <point x="280" y="0" type="line"/>
      <point x="314" y="311" type="line"/>
    </contour>
    <contour>
      <point x="825" y="763" type="line"/>
      <point x="576" y="763" type="line"/>
      <point x="546" y="460" type="line"/>
      <point x="789" y="460" type="line"/>
    </contour>
  </outline>
</glyph>
<glyph name="dollar" format="1">
  <advance width="1205"/>
  <unicode hex="0024"/>
  <note>
	dollar
  </note>
  <outline>
    <contour>
      <point x="682" y="-227" type="line"/>
      <point x="521" y="-227" type="line"/>
      <point x="523" y="-18" type="line"/>
      <point x="416" y="-11"/>
      <point x="301" y="13"/>
      <point x="178" y="53" type="curve"/>
      <point x="157" y="59" type="line"/>
      <point x="172" y="379" type="line"/>
      <point x="337" y="379" type="line"/>
      <point x="385" y="166" type="line"/>
      <point x="424" y="124"/>
      <point x="489" y="103"/>
      <point x="578" y="103" type="curve" smooth="yes"/>
      <point x="719" y="103"/>
      <point x="789" y="166"/>
      <point x="789" y="292" type="curve" smooth="yes"/>
      <point x="789" y="369"/>
      <point x="736" y="432"/>
      <point x="652" y="486" type="curve" smooth="yes"/>
      <point x="609" y="513"/>
      <point x="553" y="544"/>
      <point x="482" y="580" type="curve" smooth="yes"/>
      <point x="345" y="651"/>
      <point x="256" y="715"/>
      <point x="202" y="818" type="curve" smooth="yes"/>
      <point x="175" y="869"/>
      <point x="161" y="930"/>
      <point x="161" y="1001" type="curve" smooth="yes"/>
      <point x="161" y="1117"/>
      <point x="223" y="1220"/>
      <point x="335" y="1286" type="curve" smooth="yes"/>
      <point x="391" y="1319"/>
      <point x="457" y="1340"/>
      <point x="533" y="1350" type="curve"/>
      <point x="533" y="1551" type="line"/>
      <point x="694" y="1551" type="line"/>
      <point x="694" y="1353" type="line"/>
      <point x="814" y="1344"/>
      <point x="927" y="1314"/>
      <point x="1000" y="1289" type="curve"/>
      <point x="988" y="993" type="line"/>
      <point x="826" y="993" type="line"/>
      <point x="783" y="1191" type="line"/>
      <point x="756" y="1219"/>
      <point x="706" y="1237"/>
      <point x="643" y="1237" type="curve" smooth="yes"/>
      <point x="563" y="1237"/>
      <point x="499" y="1208"/>
      <point x="465" y="1157" type="curve" smooth="yes"/>
      <point x="448" y="1131"/>
      <point x="439" y="1102"/>
      <point x="439" y="1069" type="curve" smooth="yes"/>
      <point x="439" y="988"/>
      <point x="495" y="925"/>
      <point x="567" y="878" type="curve" smooth="yes"/>
      <point x="602" y="854"/>
      <point x="651" y="826"/>
      <point x="712" y="793" type="curve" smooth="yes"/>
      <point x="734" y="781" type="line" smooth="yes"/>
      <point x="889" y="696"/>
      <point x="978" y="636"/>
      <point x="1038" y="540" type="curve" smooth="yes"/>
      <point x="1067" y="492"/>
      <point x="1082" y="436"/>
      <point x="1082" y="371" type="curve" smooth="yes"/>
      <point x="1082" y="244"/>
      <point x="1030" y="132"/>
      <point x="911" y="57" type="curve" smooth="yes"/>
      <point x="851" y="19"/>
      <point x="775" y="-5"/>
      <point x="684" y="-15" type="curve"/>
    </contour>
  </outline>
</glyph>
<glyph name="ampersand" format="1">
  <advance width="1377"/>
  <unicode hex="0026"/>
  <note>
	ampersand
  </note>
  <outline>
    <contour>
      <point x="1356" y="748" type="line"/>
      <point x="1356" y="618" type="line"/>
      <point x="1229" y="592" type="line"/>
      <point x="1230" y="445"/>
      <point x="1172" y="318"/>
      <point x="1095" y="229" type="curve"/>
      <point x="1166" y="169"/>
      <point x="1231" y="135"/>
      <point x="1314" y="128" type="curve"/>
      <point x="1314" y="16" type="line"/>
      <point x="1287" y="-3"/>
      <point x="1192" y="-14"/>
      <point x="1144" y="-14" type="curve" smooth="yes"/>
      <point x="1045" y="-14"/>
      <point x="984" y="5"/>
      <point x="905" y="61" type="curve"/>
      <point x="825" y="5"/>
      <point x="713" y="-19"/>
      <point x="586" y="-19" type="curve" smooth="yes"/>
      <point x="374" y="-19"/>
      <point x="218" y="33"/>
      <point x="137" y="137" type="curve" smooth="yes"/>
      <point x="96" y="189"/>
      <point x="76" y="253"/>
      <point x="76" y="328" type="curve" smooth="yes"/>
      <point x="76" y="479"/>
      <point x="190" y="587"/>
      <point x="341" y="655" type="curve"/>
      <point x="243" y="782"/>
      <point x="194" y="903"/>
      <point x="194" y="1019" type="curve" smooth="yes"/>
      <point x="194" y="1144"/>
      <point x="268" y="1252"/>
      <point x="392" y="1312" type="curve" smooth="yes"/>
      <point x="453" y="1341"/>
      <point x="522" y="1356"/>
      <point x="597" y="1356" type="curve" smooth="yes"/>
      <point x="752" y="1356"/>
      <point x="858" y="1302"/>
      <point x="910" y="1223" type="curve" smooth="yes"/>
      <point x="935" y="1183"/>
      <point x="948" y="1141"/>
      <point x="948" y="1096" type="curve" smooth="yes"/>
      <point x="948" y="971"/>
      <point x="901" y="884"/>
      <point x="816" y="815" type="curve" smooth="yes"/>
      <point x="773" y="780"/>
      <point x="718" y="745"/>
      <point x="649" y="708" type="curve"/>
      <point x="744" y="591"/>
      <point x="889" y="426"/>
      <point x="969" y="349" type="curve" smooth="yes"/>
      <point x="1000" y="319" type="line"/>
      <point x="1034" y="386"/>
      <point x="1051" y="463"/>
      <point x="1051" y="552" type="curve" smooth="yes"/>
      <point x="1051" y="570"/>
      <point x="1051" y="583"/>
      <point x="1050" y="592" type="curve"/>
      <point x="915" y="618" type="line"/>
      <point x="915" y="748" type="line"/>
    </contour>
    <contour>
      <point x="680" y="878"/>
      <point x="714" y="971"/>
      <point x="714" y="1096" type="curve" smooth="yes"/>
      <point x="714" y="1176"/>
      <point x="687" y="1255"/>
      <point x="595" y="1255" type="curve" smooth="yes"/>
      <point x="514" y="1255"/>
      <point x="460" y="1187"/>
      <point x="460" y="1067" type="curve" smooth="yes"/>
      <point x="460" y="962"/>
      <point x="512" y="877"/>
      <point x="583" y="790" type="curve"/>
    </contour>
    <contour>
      <point x="696" y="232"/>
      <point x="570" y="369"/>
      <point x="415" y="561" type="curve"/>
      <point x="360" y="506"/>
      <point x="329" y="449"/>
      <point x="329" y="369" type="curve" smooth="yes"/>
      <point x="329" y="269"/>
      <point x="375" y="188"/>
      <point x="461" y="144" type="curve" smooth="yes"/>
      <point x="504" y="121"/>
      <point x="555" y="110"/>
      <point x="615" y="110" type="curve" smooth="yes"/>
      <point x="686" y="110"/>
      <point x="746" y="123"/>
      <point x="793" y="149" type="curve"/>
    </contour>
  </outline>
</glyph>
<glyph name="quotesingle" format="1">
  <advance width="654"/>
  <unicode hex="0027"/>
  <note>
	quotesingle
  </note>
  <outline>
    <contour>
      <point x="458" y="1509" type="line"/>
      <point x="411" y="775" type="line"/>
      <point x="243" y="775" type="line"/>
      <point x="196" y="1509" type="line"/>
    </contour>
  </outline>
</glyph>
<glyph name="parenleft" format="1">
  <advance width="800"/>
  <unicode hex="0028"/>
  <note>
	parenleft
  </note>
  <outline>
    <contour>
      <point x="676" y="1424" type="line"/>
      <point x="605" y="1380"/>
      <point x="499" y="1252"/>
      <point x="421" y="1027" type="curve" smooth="yes"/>
      <point x="382" y="914"/>
      <point x="360" y="783"/>
      <point x="356" y="632" type="curve"/>
      <point x="355" y="621"/>
      <point x="355" y="606"/>
      <point x="355" y="585" type="curve" smooth="yes"/>
      <point x="355" y="276"/>
      <point x="444" y="29"/>
      <point x="545" y="-115" type="curve" smooth="yes"/>
      <point x="595" y="-188"/>
      <point x="639" y="-238"/>
      <point x="678" y="-265" type="curve"/>
      <point x="574" y="-341" type="line"/>
      <point x="459" y="-273"/>
      <point x="313" y="-158"/>
      <point x="190" y="111" type="curve" smooth="yes"/>
      <point x="128" y="245"/>
      <point x="97" y="409"/>
      <point x="97" y="603" type="curve" smooth="yes"/>
      <point x="97" y="936"/>
      <point x="240" y="1199"/>
      <point x="387" y="1348" type="curve" smooth="yes"/>
      <point x="460" y="1422"/>
      <point x="523" y="1474"/>
      <point x="574" y="1503" type="curve"/>
    </contour>
  </outline>
</glyph>
<glyph name="parenright" format="1">
  <advance width="800"/>
  <unicode hex="0029"/>
  <note>
	parenright
  </note>
  <outline>
    <contour>
      <point x="125" y="-262" type="line"/>
      <point x="196" y="-219"/>
      <point x="303" y="-90"/>
      <point x="381" y="135" type="curve" smooth="yes"/>
      <point x="420" y="248"/>
      <point x="441" y="379"/>
      <point x="445" y="530" type="curve"/>
      <point x="446" y="541"/>
      <point x="446" y="556"/>
      <point x="446" y="576" type="curve" smooth="yes"/>
      <point x="446" y="887"/>
      <point x="357" y="1133"/>
      <point x="257" y="1278" type="curve" smooth="yes"/>
      <point x="206" y="1350"/>
      <point x="162" y="1399"/>
      <point x="123" y="1426" type="curve"/>
      <point x="227" y="1503" type="line"/>
      <point x="340" y="1434"/>
      <point x="488" y="1319"/>
      <point x="612" y="1051" type="curve" smooth="yes"/>
      <point x="673" y="916"/>
      <point x="704" y="752"/>
      <point x="704" y="559" type="curve" smooth="yes"/>
      <point x="704" y="226"/>
      <point x="561" y="-38"/>
      <point x="414" y="-186" type="curve" smooth="yes"/>
      <point x="341" y="-260"/>
      <point x="278" y="-312"/>
      <point x="227" y="-341" type="curve"/>
    </contour>
  </outline>
</glyph>
<glyph name="asterisk" format="1">
  <advance width="1194"/>
  <unicode hex="002A"/>
  <note>
	asterisk
  </note>
  <outline>
    <contour>
      <point x="304" y="970" type="line"/>
      <point x="516" y="1033" type="line"/>
      <point x="304" y="1093" type="line"/>
      <point x="112" y="1176" type="line"/>
      <point x="224" y="1372" type="line"/>
      <point x="395" y="1246" type="line"/>
      <point x="557" y="1098" type="line"/>
      <point x="499" y="1305" type="line"/>
      <point x="473" y="1520" type="line"/>
      <point x="706" y="1520" type="line"/>
      <point x="684" y="1308" type="line"/>
      <point x="636" y="1102" type="line"/>
      <point x="793" y="1250" type="line"/>
      <point x="962" y="1379" type="line"/>
      <point x="1078" y="1185" type="line"/>
      <point x="892" y="1096" type="line"/>
      <point x="677" y="1034" type="line"/>
      <point x="892" y="976" type="line"/>
      <point x="1083" y="894" type="line"/>
      <point x="964" y="693" type="line"/>
      <point x="802" y="818" type="line"/>
      <point x="636" y="964" type="line"/>
      <point x="693" y="759" type="line"/>
      <point x="722" y="546" type="line"/>
      <point x="488" y="546" type="line"/>
      <point x="509" y="759" type="line"/>
      <point x="557" y="966" type="line"/>
      <point x="400" y="815" type="line"/>
      <point x="231" y="686" type="line"/>
      <point x="115" y="880" type="line"/>
    </contour>
  </outline>
</glyph>
<glyph name="plus" format="1">
  <advance width="1190"/>
  <unicode hex="002B"/>
  <note>
	plus
  </note>
  <outline>
    <contour>
      <point x="347" y="629" type="line"/>
      <point x="508" y="619" type="line"/>
      <point x="502" y="755" type="line"/>
      <point x="502" y="956" type="line"/>
      <point x="689" y="956" type="line"/>
      <point x="689" y="755" type="line"/>
      <point x="681" y="619" type="line"/>
      <point x="817" y="629" type="line"/>
      <point x="1008" y="629" type="line"/>
      <point x="1008" y="448" type="line"/>
      <point x="817" y="448" type="line"/>
      <point x="681" y="454" type="line"/>
      <point x="689" y="319" type="line"/>
      <point x="689" y="108" type="line"/>
      <point x="502" y="108" type="line"/>
      <point x="502" y="319" type="line"/>
      <point x="508" y="454" type="line"/>
      <point x="347" y="448" type="line"/>
      <point x="182" y="448" type="line"/>
      <point x="182" y="629" type="line"/>
    </contour>
  </outline>
</glyph>
<glyph name="comma" format="1">
  <advance width="603"/>
  <unicode hex="002C"/>
  <note>
	comma
  </note>
  <outline>
    <contour>
      <point x="312" y="305" type="line" smooth="yes"/>
      <point x="380" y="305"/>
      <point x="433" y="265"/>
      <point x="461" y="190" type="curve" smooth="yes"/>
      <point x="474" y="153"/>
      <point x="481" y="108"/>
      <point x="481" y="57" type="curve" smooth="yes"/>
      <point x="481" y="-84"/>
      <point x="424" y="-226"/>
      <point x="348" y="-321" type="curve" smooth="yes"/>
      <point x="309" y="-369"/>
      <point x="273" y="-402"/>
      <point x="238" y="-419" type="curve"/>
      <point x="235" y="-419" type="line"/>
      <point x="153" y="-356" type="line"/>
      <point x="153" y="-328" type="line"/>
      <point x="222" y="-277"/>
      <point x="271" y="-197"/>
      <point x="271" y="-92" type="curve" smooth="yes"/>
      <point x="271" y="-43"/>
      <point x="252" y="-19"/>
      <point x="211" y="22" type="curve" smooth="yes"/>
      <point x="182" y="51"/>
      <point x="167" y="67"/>
      <point x="155" y="98" type="curve"/>
      <point x="148" y="113"/>
      <point x="145" y="131"/>
      <point x="145" y="152" type="curve" smooth="yes"/>
      <point x="145" y="213"/>
      <point x="175" y="262"/>
      <point x="221" y="287" type="curve" smooth="yes"/>
      <point x="244" y="299"/>
      <point x="269" y="305"/>
      <point x="297" y="305" type="curve" smooth="yes"/>
    </contour>
  </outline>
</glyph>
<glyph name="hyphen" format="1">
  <advance width="1149"/>
  <unicode hex="002D"/>
  <note>
	hyphen
  </note>
  <outline>
    <contour>
      <point x="947" y="636" type="line"/>
      <point x="947" y="448" type="line"/>
      <point x="202" y="448" type="line"/>
      <point x="202" y="636" type="line"/>
    </contour>
  </outline>
</glyph>
<glyph name="period" format="1">
  <advance width="587"/>
  <unicode hex="002E"/>
  <note>
	period
  </note>
  <outline>
    <contour>
      <point x="125" y="196"/>
      <point x="160" y="247"/>
      <point x="215" y="275" type="curve" smooth="yes"/>
      <point x="242" y="289"/>
      <point x="272" y="296"/>
      <point x="304" y="296" type="curve" smooth="yes"/>
      <point x="371" y="296"/>
      <point x="419" y="266"/>
      <point x="444" y="221" type="curve" smooth="yes"/>
      <point x="457" y="198"/>
      <point x="463" y="174"/>
      <point x="463" y="149" type="curve" smooth="yes"/>
      <point x="463" y="48"/>
      <point x="386" y="-15"/>
      <point x="277" y="-15" type="curve" smooth="yes"/>
      <point x="225" y="-15"/>
      <point x="175" y="12"/>
      <point x="147" y="57" type="curve"/>
      <point x="132" y="79"/>
      <point x="125" y="104"/>
      <point x="125" y="133" type="curve" smooth="yes"/>
    </contour>
  </outline>
</glyph>
<glyph name="slash" format="1">
  <advance width="776"/>
  <unicode hex="002F"/>
  <note>
	slash
  </note>
  <outline>
    <contour>
      <point x="718" y="1407" type="line"/>
      <point x="262" y="-319" type="line"/>
      <point x="58" y="-319" type="line"/>
      <point x="514" y="1407" type="line"/>
    </contour>
  </outline>
</glyph>
<glyph name="zero" format="1">
  <advance width="1185"/>
  <unicode hex="0030"/>
  <note>
	zero
  </note>
  <outline>
    <contour>
      <point x="96" y="804"/>
      <point x="198" y="982"/>
      <point x="357" y="1069" type="curve" smooth="yes"/>
      <point x="436" y="1112"/>
      <point x="524" y="1134"/>
      <point x="620" y="1134" type="curve" smooth="yes"/>
      <point x="929" y="1134"/>
      <point x="1090" y="936"/>
      <point x="1089" y="575" type="curve" smooth="yes"/>
      <point x="1089" y="320"/>
      <point x="988" y="136"/>
      <point x="831" y="47" type="curve" smooth="yes"/>
      <point x="752" y="2"/>
      <point x="665" y="-20"/>
      <point x="568" y="-20" type="curve" smooth="yes"/>
      <point x="367" y="-20"/>
      <point x="223" y="74"/>
      <point x="151" y="244" type="curve" smooth="yes"/>
      <point x="114" y="329"/>
      <point x="96" y="430"/>
      <point x="96" y="548" type="curve" smooth="yes"/>
    </contour>
    <contour>
      <point x="785" y="774"/>
      <point x="761" y="905"/>
      <point x="706" y="969" type="curve" smooth="yes"/>
      <point x="678" y="1000"/>
      <point x="641" y="1016"/>
      <point x="594" y="1016" type="curve" smooth="yes"/>
      <point x="527" y="1016"/>
      <point x="478" y="980"/>
      <point x="447" y="908" type="curve" smooth="yes"/>
      <point x="416" y="835"/>
      <point x="400" y="724"/>
      <point x="400" y="573" type="curve" smooth="yes"/>
      <point x="400" y="410"/>
      <point x="416" y="291"/>
      <point x="447" y="214" type="curve" smooth="yes"/>
      <point x="478" y="137"/>
      <point x="528" y="99"/>
      <point x="597" y="99" type="curve" smooth="yes"/>
      <point x="663" y="99"/>
      <point x="711" y="136"/>
      <point x="741" y="209" type="curve" smooth="yes"/>
      <point x="770" y="282"/>
      <point x="785" y="397"/>
      <point x="785" y="553" type="curve" smooth="yes"/>
    </contour>
  </outline>
</glyph>
<glyph name="one" format="1">
  <advance width="828"/>
  <unicode hex="0031"/>
  <note>
	one
  </note>
  <outline>
    <contour>
      <point x="310" y="142" type="line"/>
      <point x="310" y="853" type="line"/>
      <point x="267" y="840"/>
      <point x="132" y="818"/>
      <point x="81" y="815" type="curve"/>
      <point x="58" y="955" type="line"/>
      <point x="191" y="980"/>
      <point x="352" y="1060"/>
      <point x="443" y="1135" type="curve"/>
      <point x="444" y="1135" type="line"/>
      <point x="607" y="1117" type="line"/>
      <point x="607" y="142" type="line"/>
      <point x="793" y="117" type="line"/>
      <point x="793" y="0" type="line"/>
      <point x="98" y="0" type="line"/>
      <point x="98" y="117" type="line"/>
    </contour>
  </outline>
</glyph>
<glyph name="two" format="1">
  <advance width="1089"/>
  <unicode hex="0032"/>
  <note>
	two
  </note>
  <outline>
    <contour>
      <point x="54" y="108" type="line"/>
      <point x="383" y="307"/>
      <point x="605" y="541"/>
      <point x="605" y="758" type="curve" smooth="yes"/>
      <point x="605" y="869"/>
      <point x="529" y="939"/>
      <point x="409" y="939" type="curve" smooth="yes"/>
      <point x="325" y="939"/>
      <point x="255" y="909"/>
      <point x="215" y="881" type="curve" smooth="yes"/>
      <point x="195" y="867"/>
      <point x="169" y="847"/>
      <point x="138" y="822" type="curve"/>
      <point x="64" y="930" type="line"/>
      <point x="111" y="990"/>
      <point x="208" y="1059"/>
      <point x="328" y="1102" type="curve" smooth="yes"/>
      <point x="388" y="1123"/>
      <point x="449" y="1134"/>
      <point x="510" y="1134" type="curve" smooth="yes"/>
      <point x="690" y="1134"/>
      <point x="813" y="1071"/>
      <point x="873" y="972" type="curve" smooth="yes"/>
      <point x="902" y="923"/>
      <point x="917" y="868"/>
      <point x="917" y="809" type="curve" smooth="yes"/>
      <point x="917" y="585"/>
      <point x="684" y="357"/>
      <point x="341" y="160" type="curve"/>
      <point x="834" y="204" type="line"/>
      <point x="905" y="339" type="line"/>
      <point x="1030" y="313" type="line"/>
      <point x="981" y="0" type="line"/>
      <point x="95" y="0" type="line"/>
    </contour>
  </outline>
</glyph>
<glyph name="three" format="1">
  <advance width="1015"/>
  <unicode hex="0033"/>
  <note>
	three
  </note>
  <outline>
    <contour>
      <point x="402" y="-133"/>
      <point x="521" y="-81"/>
      <point x="583" y="7" type="curve" smooth="yes"/>
      <point x="614" y="50"/>
      <point x="629" y="99"/>
      <point x="629" y="154" type="curve" smooth="yes"/>
      <point x="629" y="305"/>
      <point x="545" y="385"/>
      <point x="377" y="394" type="curve"/>
      <point x="270" y="370" type="line"/>
      <point x="229" y="492" type="line"/>
      <point x="269" y="497"/>
      <point x="317" y="511"/>
      <point x="374" y="534" type="curve"/>
      <point x="507" y="595"/>
      <point x="578" y="695"/>
      <point x="578" y="798" type="curve" smooth="yes"/>
      <point x="578" y="906"/>
      <point x="503" y="952"/>
      <point x="400" y="952" type="curve" smooth="yes"/>
      <point x="292" y="952"/>
      <point x="203" y="914"/>
      <point x="136" y="866" type="curve"/>
      <point x="68" y="986" type="line"/>
      <point x="109" y="1026"/>
      <point x="204" y="1079"/>
      <point x="319" y="1111" type="curve" smooth="yes"/>
      <point x="376" y="1127"/>
      <point x="433" y="1135"/>
      <point x="490" y="1135" type="curve" smooth="yes"/>
      <point x="725" y="1135"/>
      <point x="882" y="1039"/>
      <point x="882" y="842" type="curve" smooth="yes"/>
      <point x="882" y="723"/>
      <point x="814" y="622"/>
      <point x="710" y="550" type="curve" smooth="yes"/>
      <point x="658" y="513"/>
      <point x="600" y="484"/>
      <point x="536" y="462" type="curve"/>
      <point x="553" y="464"/>
      <point x="571" y="465"/>
      <point x="588" y="465" type="curve" smooth="yes"/>
      <point x="729" y="465"/>
      <point x="845" y="414"/>
      <point x="906" y="324" type="curve" smooth="yes"/>
      <point x="936" y="279"/>
      <point x="951" y="226"/>
      <point x="951" y="166" type="curve" smooth="yes"/>
      <point x="951" y="-6"/>
      <point x="845" y="-149"/>
      <point x="650" y="-228" type="curve" smooth="yes"/>
      <point x="553" y="-268"/>
      <point x="439" y="-288"/>
      <point x="308" y="-288" type="curve" smooth="yes"/>
      <point x="235" y="-288"/>
      <point x="130" y="-272"/>
      <point x="77" y="-255" type="curve"/>
      <point x="77" y="-109" type="line"/>
      <point x="127" y="-125"/>
      <point x="184" y="-133"/>
      <point x="247" y="-133" type="curve" smooth="yes"/>
    </contour>
  </outline>
</glyph>
<glyph name="four" format="1">
  <advance width="1199"/>
  <unicode hex="0034"/>
  <note>
	four
  </note>
  <outline>
    <contour>
      <point x="40" y="105" type="line"/>
      <point x="160" y="326"/>
      <point x="377" y="817"/>
      <point x="550" y="1229" type="curve"/>
      <point x="614" y="1229" type="line"/>
      <point x="842" y="1106" type="line"/>
      <point x="382" y="268" type="line"/>
      <point x="301" y="147" type="line"/>
      <point x="701" y="173" type="line"/>
      <point x="720" y="486" type="line"/>
      <point x="949" y="504" type="line"/>
      <point x="949" y="190" type="line"/>
      <point x="1154" y="204" type="line"/>
      <point x="1154" y="0" type="line"/>
      <point x="949" y="0" type="line"/>
      <point x="949" y="-289" type="line"/>
      <point x="700" y="-289" type="line"/>
      <point x="700" y="0" type="line"/>
      <point x="106" y="0" type="line"/>
    </contour>
  </outline>
</glyph>
<glyph name="five" format="1">
  <advance width="1111"/>
  <unicode hex="0035"/>
  <note>
	five
  </note>
  <outline>
    <contour>
      <point x="415" y="-153"/>
      <point x="556" y="-81"/>
      <point x="633" y="35" type="curve" smooth="yes"/>
      <point x="672" y="92"/>
      <point x="691" y="156"/>
      <point x="691" y="226" type="curve" smooth="yes"/>
      <point x="691" y="395"/>
      <point x="605" y="456"/>
      <point x="446" y="456" type="curve" smooth="yes"/>
      <point x="373" y="456"/>
      <point x="277" y="432"/>
      <point x="216" y="403" type="curve"/>
      <point x="150" y="450" type="line"/>
      <point x="231" y="1115" type="line"/>
      <point x="804" y="1115" type="line"/>
      <point x="823" y="1149" type="line"/>
      <point x="949" y="1149" type="line"/>
      <point x="909" y="902" type="line"/>
      <point x="417" y="902" type="line"/>
      <point x="351" y="558" type="line"/>
      <point x="443" y="605"/>
      <point x="535" y="629"/>
      <point x="628" y="629" type="curve" smooth="yes"/>
      <point x="875" y="629"/>
      <point x="1008" y="508"/>
      <point x="1008" y="277" type="curve" smooth="yes"/>
      <point x="1008" y="61"/>
      <point x="873" y="-118"/>
      <point x="653" y="-216" type="curve" smooth="yes"/>
      <point x="542" y="-265"/>
      <point x="418" y="-290"/>
      <point x="281" y="-290" type="curve" smooth="yes"/>
      <point x="232" y="-290"/>
      <point x="190" y="-286"/>
      <point x="155" y="-277" type="curve"/>
      <point x="156" y="-148" type="line"/>
      <point x="198" y="-151"/>
      <point x="232" y="-153"/>
      <point x="258" y="-153" type="curve" smooth="yes"/>
    </contour>
  </outline>
</glyph>
<glyph name="six" format="1">
  <advance width="1205"/>
  <unicode hex="0036"/>
  <note>
	six
  </note>
  <outline>
    <contour>
      <point x="119" y="856"/>
      <point x="289" y="1123"/>
      <point x="525" y="1279" type="curve" smooth="yes"/>
      <point x="643" y="1357"/>
      <point x="762" y="1403"/>
      <point x="882" y="1417" type="curve"/>
      <point x="938" y="1310" type="line"/>
      <point x="693" y="1238"/>
      <point x="529" y="1050"/>
      <point x="458" y="811" type="curve"/>
      <point x="527" y="867"/>
      <point x="615" y="895"/>
      <point x="720" y="895" type="curve" smooth="yes"/>
      <point x="875" y="895"/>
      <point x="992" y="827"/>
      <point x="1053" y="704" type="curve" smooth="yes"/>
      <point x="1084" y="643"/>
      <point x="1099" y="570"/>
      <point x="1099" y="487" type="curve" smooth="yes"/>
      <point x="1099" y="307"/>
      <point x="1022" y="143"/>
      <point x="874" y="50" type="curve" smooth="yes"/>
      <point x="800" y="3"/>
      <point x="712" y="-20"/>
      <point x="610" y="-20" type="curve" smooth="yes"/>
      <point x="403" y="-20"/>
      <point x="252" y="85"/>
      <point x="176" y="256" type="curve" smooth="yes"/>
      <point x="138" y="341"/>
      <point x="119" y="438"/>
      <point x="119" y="545" type="curve" smooth="yes"/>
    </contour>
    <contour>
      <point x="423" y="631"/>
      <point x="420" y="592"/>
      <point x="420" y="557" type="curve" smooth="yes"/>
      <point x="420" y="522" type="line" smooth="yes"/>
      <point x="420" y="258"/>
      <point x="481" y="99"/>
      <point x="620" y="99" type="curve" smooth="yes"/>
      <point x="700" y="99"/>
      <point x="759" y="166"/>
      <point x="787" y="266" type="curve" smooth="yes"/>
      <point x="801" y="316"/>
      <point x="808" y="370"/>
      <point x="808" y="429" type="curve" smooth="yes"/>
      <point x="808" y="648"/>
      <point x="736" y="745"/>
      <point x="620" y="745" type="curve" smooth="yes"/>
      <point x="541" y="745"/>
      <point x="468" y="713"/>
      <point x="429" y="674" type="curve"/>
    </contour>
  </outline>
</glyph>
<glyph name="seven" format="1">
  <advance width="1046"/>
  <unicode hex="0037"/>
  <note>
	seven
  </note>
  <outline>
    <contour>
      <point x="320" y="934" type="line"/>
      <point x="220" y="675" type="line"/>
      <point x="52" y="708" type="line"/>
      <point x="98" y="1115" type="line"/>
      <point x="969" y="1115" type="line"/>
      <point x="1021" y="1049" type="line"/>
      <point x="538" y="-327" type="line"/>
      <point x="232" y="-244" type="line"/>
      <point x="385" y="60"/>
      <point x="522" y="380"/>
      <point x="710" y="827" type="curve" smooth="yes"/>
      <point x="758" y="942" type="line"/>
    </contour>
  </outline>
</glyph>
<glyph name="eight" format="1">
  <advance width="1167"/>
  <unicode hex="0038"/>
  <note>
	eight
  </note>
  <outline>
    <contour>
      <point x="231" y="744"/>
      <point x="152" y="850"/>
      <point x="152" y="1010" type="curve" smooth="yes"/>
      <point x="152" y="1154"/>
      <point x="238" y="1261"/>
      <point x="371" y="1317" type="curve" smooth="yes"/>
      <point x="437" y="1345"/>
      <point x="509" y="1359"/>
      <point x="587" y="1359" type="curve" smooth="yes"/>
      <point x="755" y="1359"/>
      <point x="884" y="1307"/>
      <point x="952" y="1217" type="curve" smooth="yes"/>
      <point x="986" y="1172"/>
      <point x="1003" y="1120"/>
      <point x="1003" y="1062" type="curve" smooth="yes"/>
      <point x="1003" y="937"/>
      <point x="920" y="818"/>
      <point x="775" y="743" type="curve"/>
      <point x="899" y="672"/>
      <point x="984" y="607"/>
      <point x="1039" y="510" type="curve" smooth="yes"/>
      <point x="1066" y="461"/>
      <point x="1080" y="406"/>
      <point x="1080" y="344" type="curve" smooth="yes"/>
      <point x="1080" y="197"/>
      <point x="985" y="84"/>
      <point x="833" y="25" type="curve" smooth="yes"/>
      <point x="757" y="-5"/>
      <point x="672" y="-20"/>
      <point x="579" y="-20" type="curve" smooth="yes"/>
      <point x="412" y="-20"/>
      <point x="258" y="24"/>
      <point x="167" y="126" type="curve" smooth="yes"/>
      <point x="121" y="177"/>
      <point x="98" y="241"/>
      <point x="98" y="318" type="curve" smooth="yes"/>
      <point x="98" y="457"/>
      <point x="190" y="579"/>
      <point x="363" y="655" type="curve"/>
    </contour>
    <contour>
      <point x="742" y="854"/>
      <point x="785" y="938"/>
      <point x="785" y="1014" type="curve" smooth="yes"/>
      <point x="785" y="1163"/>
      <point x="712" y="1244"/>
      <point x="585" y="1244" type="curve" smooth="yes"/>
      <point x="476" y="1244"/>
      <point x="400" y="1183"/>
      <point x="400" y="1079" type="curve" smooth="yes"/>
      <point x="400" y="1000"/>
      <point x="454" y="937"/>
      <point x="528" y="886" type="curve" smooth="yes"/>
      <point x="565" y="861"/>
      <point x="613" y="832"/>
      <point x="673" y="799" type="curve"/>
    </contour>
    <contour>
      <point x="455" y="599" type="line"/>
      <point x="383" y="544"/>
      <point x="338" y="463"/>
      <point x="338" y="367" type="curve" smooth="yes"/>
      <point x="338" y="264"/>
      <point x="375" y="181"/>
      <point x="449" y="135" type="curve" smooth="yes"/>
      <point x="486" y="112"/>
      <point x="530" y="100"/>
      <point x="583" y="100" type="curve" smooth="yes"/>
      <point x="662" y="100"/>
      <point x="728" y="133"/>
      <point x="765" y="191" type="curve" smooth="yes"/>
      <point x="783" y="220"/>
      <point x="792" y="253"/>
      <point x="792" y="291" type="curve" smooth="yes"/>
      <point x="792" y="372"/>
      <point x="740" y="434"/>
      <point x="670" y="479" type="curve" smooth="yes"/>
      <point x="635" y="502"/>
      <point x="586" y="529"/>
      <point x="524" y="561" type="curve" smooth="yes"/>
    </contour>
  </outline>
</glyph>
<glyph name="nine" format="1">
  <advance width="1194"/>
  <unicode hex="0039"/>
  <note>
	nine
  </note>
  <outline>
    <contour>
      <point x="1083" y="260"/>
      <point x="926" y="-9"/>
      <point x="700" y="-165" type="curve" smooth="yes"/>
      <point x="587" y="-244"/>
      <point x="471" y="-290"/>
      <point x="352" y="-304" type="curve"/>
      <point x="295" y="-199" type="line"/>
      <point x="532" y="-124"/>
      <point x="680" y="59"/>
      <point x="744" y="299" type="curve"/>
      <point x="684" y="252"/>
      <point x="602" y="221"/>
      <point x="501" y="221" type="curve" smooth="yes"/>
      <point x="346" y="221"/>
      <point x="220" y="295"/>
      <point x="152" y="425" type="curve" smooth="yes"/>
      <point x="117" y="490"/>
      <point x="100" y="564"/>
      <point x="100" y="649" type="curve" smooth="yes"/>
      <point x="100" y="825"/>
      <point x="179" y="980"/>
      <point x="330" y="1068" type="curve" smooth="yes"/>
      <point x="405" y="1112"/>
      <point x="495" y="1134"/>
      <point x="598" y="1134" type="curve" smooth="yes"/>
      <point x="809" y="1134"/>
      <point x="956" y="1033"/>
      <point x="1029" y="865" type="curve" smooth="yes"/>
      <point x="1065" y="780"/>
      <point x="1083" y="684"/>
      <point x="1083" y="576" type="curve" smooth="yes"/>
    </contour>
    <contour>
      <point x="778" y="481"/>
      <point x="781" y="528"/>
      <point x="782" y="576" type="curve" smooth="yes"/>
      <point x="782" y="605" type="line" smooth="yes"/>
      <point x="782" y="860"/>
      <point x="722" y="1015"/>
      <point x="581" y="1015" type="curve" smooth="yes"/>
      <point x="500" y="1015"/>
      <point x="442" y="949"/>
      <point x="414" y="854" type="curve" smooth="yes"/>
      <point x="399" y="806"/>
      <point x="392" y="757"/>
      <point x="392" y="706" type="curve" smooth="yes"/>
      <point x="392" y="481"/>
      <point x="469" y="373"/>
      <point x="585" y="373" type="curve" smooth="yes"/>
      <point x="662" y="373"/>
      <point x="733" y="400"/>
      <point x="772" y="435" type="curve"/>
    </contour>
  </outline>
</glyph>
<glyph name="colon" format="1">
  <advance width="615"/>
  <unicode hex="003A"/>
  <note>
	colon
  </note>
  <outline>
    <contour>
      <point x="139" y="929"/>
      <point x="174" y="980"/>
      <point x="229" y="1008" type="curve" smooth="yes"/>
      <point x="256" y="1022"/>
      <point x="286" y="1029"/>
      <point x="318" y="1029" type="curve" smooth="yes"/>
      <point x="385" y="1029"/>
      <point x="433" y="999"/>
      <point x="458" y="954" type="curve" smooth="yes"/>
      <point x="471" y="931"/>
      <point x="477" y="907"/>
      <point x="477" y="882" type="curve" smooth="yes"/>
      <point x="477" y="781"/>
      <point x="400" y="718"/>
      <point x="291" y="718" type="curve" smooth="yes"/>
      <point x="239" y="718"/>
      <point x="189" y="745"/>
      <point x="161" y="790" type="curve"/>
      <point x="146" y="812"/>
      <point x="139" y="837"/>
      <point x="139" y="866" type="curve" smooth="yes"/>
    </contour>
    <contour>
      <point x="139" y="196"/>
      <point x="174" y="247"/>
      <point x="229" y="275" type="curve" smooth="yes"/>
      <point x="256" y="289"/>
      <point x="286" y="296"/>
      <point x="318" y="296" type="curve" smooth="yes"/>
      <point x="385" y="296"/>
      <point x="433" y="266"/>
      <point x="458" y="221" type="curve" smooth="yes"/>
      <point x="471" y="198"/>
      <point x="477" y="174"/>
      <point x="477" y="149" type="curve" smooth="yes"/>
      <point x="477" y="48"/>
      <point x="400" y="-15"/>
      <point x="291" y="-15" type="curve" smooth="yes"/>
      <point x="239" y="-15"/>
      <point x="189" y="12"/>
      <point x="161" y="57" type="curve"/>
      <point x="146" y="79"/>
      <point x="139" y="104"/>
      <point x="139" y="133" type="curve" smooth="yes"/>
    </contour>
  </outline>
</glyph>
<glyph name="semicolon" format="1">
  <advance width="615"/>
  <unicode hex="003B"/>
  <note>
	semicolon
  </note>
  <outline>
    <contour>
      <point x="316" y="305" type="line" smooth="yes"/>
      <point x="384" y="305"/>
      <point x="437" y="265"/>
      <point x="465" y="190" type="curve" smooth="yes"/>
      <point x="478" y="153"/>
      <point x="485" y="108"/>
      <point x="485" y="57" type="curve" smooth="yes"/>
      <point x="485" y="-84"/>
      <point x="428" y="-226"/>
      <point x="352" y="-321" type="curve" smooth="yes"/>
      <point x="313" y="-369"/>
      <point x="277" y="-402"/>
      <point x="242" y="-419" type="curve"/>
      <point x="239" y="-419" type="line"/>
      <point x="157" y="-356" type="line"/>
      <point x="157" y="-328" type="line"/>
      <point x="226" y="-277"/>
      <point x="275" y="-197"/>
      <point x="275" y="-92" type="curve" smooth="yes"/>
      <point x="275" y="-43"/>
      <point x="256" y="-19"/>
      <point x="215" y="22" type="curve" smooth="yes"/>
      <point x="186" y="51"/>
      <point x="171" y="67"/>
      <point x="159" y="98" type="curve"/>
      <point x="152" y="113"/>
      <point x="149" y="131"/>
      <point x="149" y="152" type="curve" smooth="yes"/>
      <point x="149" y="213"/>
      <point x="179" y="262"/>
      <point x="225" y="287" type="curve" smooth="yes"/>
      <point x="248" y="299"/>
      <point x="273" y="305"/>
      <point x="301" y="305" type="curve" smooth="yes"/>
    </contour>
    <contour>
      <point x="140" y="929"/>
      <point x="175" y="980"/>
      <point x="230" y="1008" type="curve" smooth="yes"/>
      <point x="257" y="1022"/>
      <point x="287" y="1029"/>
      <point x="319" y="1029" type="curve" smooth="yes"/>
      <point x="386" y="1029"/>
      <point x="434" y="999"/>
      <point x="459" y="954" type="curve" smooth="yes"/>
      <point x="472" y="931"/>
      <point x="478" y="907"/>
      <point x="478" y="882" type="curve" smooth="yes"/>
      <point x="478" y="781"/>
      <point x="401" y="718"/>
      <point x="292" y="718" type="curve" smooth="yes"/>
      <point x="240" y="718"/>
      <point x="190" y="745"/>
      <point x="162" y="790" type="curve"/>
      <point x="147" y="812"/>
      <point x="140" y="837"/>
      <point x="140" y="866" type="curve" smooth="yes"/>
    </contour>
  </outline>
</glyph>
<glyph name="equal" format="1">
  <advance width="1176"/>
  <unicode hex="003D"/>
  <note>
	equal
  </note>
  <outline>
    <contour>
      <point x="1002" y="870" type="line"/>
      <point x="1002" y="693" type="line"/>
      <point x="179" y="693" type="line"/>
      <point x="179" y="870" type="line"/>
    </contour>
    <contour>
      <point x="1002" y="391" type="line"/>
      <point x="1002" y="213" type="line"/>
      <point x="179" y="213" type="line"/>
      <point x="179" y="391" type="line"/>
    </contour>
  </outline>
</glyph>
<glyph name="greater" format="1">
  <advance width="1205"/>
  <unicode hex="003E"/>
  <note>
	greater
  </note>
  <outline>
    <contour>
      <point x="1058" y="483" type="line"/>
      <point x="206" y="48" type="line"/>
      <point x="206" y="258" type="line"/>
      <point x="797" y="542" type="line"/>
      <point x="206" y="824" type="line"/>
      <point x="206" y="1037" type="line"/>
      <point x="1058" y="601" type="line"/>
    </contour>
  </outline>
</glyph>
<glyph name="question" format="1">
  <advance width="915"/>
  <unicode hex="003F"/>
  <note>
	question
  </note>
  <outline>
    <contour>
      <point x="257" y="459" type="line"/>
      <point x="248" y="498" type="line" smooth="yes"/>
      <point x="237" y="548"/>
      <point x="229" y="573"/>
      <point x="229" y="616" type="curve" smooth="yes"/>
      <point x="229" y="707"/>
      <point x="253" y="787"/>
      <point x="303" y="859" type="curve" smooth="yes"/>
      <point x="345" y="921"/>
      <point x="399" y="968"/>
      <point x="451" y="1014" type="curve" smooth="yes"/>
      <point x="494" y="1052"/>
      <point x="535" y="1088"/>
      <point x="564" y="1128" type="curve" smooth="yes"/>
      <point x="594" y="1169"/>
      <point x="608" y="1211"/>
      <point x="608" y="1260" type="curve" smooth="yes"/>
      <point x="608" y="1320"/>
      <point x="590" y="1367"/>
      <point x="554" y="1399" type="curve" smooth="yes"/>
      <point x="535" y="1415"/>
      <point x="511" y="1428"/>
      <point x="483" y="1437" type="curve" smooth="yes"/>
      <point x="452" y="1447"/>
      <point x="415" y="1452"/>
      <point x="373" y="1452" type="curve" smooth="yes"/>
      <point x="293" y="1452"/>
      <point x="205" y="1426"/>
      <point x="142" y="1386" type="curve" smooth="yes"/>
      <point x="88" y="1351" type="line"/>
      <point x="28" y="1518" type="line"/>
      <point x="53" y="1540" type="line" smooth="yes"/>
      <point x="77" y="1560"/>
      <point x="128" y="1599"/>
      <point x="203" y="1630" type="curve" smooth="yes"/>
      <point x="278" y="1662"/>
      <point x="356" y="1678"/>
      <point x="434" y="1678" type="curve" smooth="yes"/>
      <point x="507" y="1678"/>
      <point x="572" y="1670"/>
      <point x="630" y="1653" type="curve" smooth="yes"/>
      <point x="689" y="1636"/>
      <point x="740" y="1610"/>
      <point x="781" y="1576" type="curve" smooth="yes"/>
      <point x="823" y="1541"/>
      <point x="855" y="1499"/>
      <point x="877" y="1449" type="curve" smooth="yes"/>
      <point x="898" y="1400"/>
      <point x="909" y="1344"/>
      <point x="909" y="1282" type="curve" smooth="yes"/>
      <point x="909" y="1196"/>
      <point x="880" y="1118"/>
      <point x="820" y="1044" type="curve" smooth="yes"/>
      <point x="770" y="983"/>
      <point x="706" y="932"/>
      <point x="643" y="883" type="curve" smooth="yes"/>
      <point x="586" y="838"/>
      <point x="533" y="796"/>
      <point x="493" y="749" type="curve" smooth="yes"/>
      <point x="453" y="700"/>
      <point x="434" y="652"/>
      <point x="434" y="598" type="curve" smooth="yes"/>
      <point x="434" y="578"/>
      <point x="437" y="575"/>
      <point x="440" y="551" type="curve" smooth="yes"/>
      <point x="442" y="540"/>
      <point x="444" y="528"/>
      <point x="446" y="514" type="curve" smooth="yes"/>
      <point x="453" y="459" type="line"/>
    </contour>
    <contour>
      <point x="432" y="278"/>
      <point x="487" y="228"/>
      <point x="498" y="161" type="curve"/>
      <point x="499" y="152"/>
      <point x="500" y="144"/>
      <point x="500" y="139" type="curve" smooth="yes"/>
      <point x="500" y="62"/>
      <point x="440" y="10"/>
      <point x="352" y="2" type="curve" smooth="yes"/>
      <point x="343" y="1"/>
      <point x="336" y="0"/>
      <point x="331" y="0" type="curve" smooth="yes"/>
      <point x="266" y="0"/>
      <point x="206" y="47"/>
      <point x="195" y="116" type="curve"/>
      <point x="194" y="119"/>
      <point x="194" y="124"/>
      <point x="194" y="131" type="curve" smooth="yes"/>
      <point x="194" y="184"/>
      <point x="226" y="233"/>
      <point x="276" y="259" type="curve" smooth="yes"/>
      <point x="301" y="272"/>
      <point x="328" y="278"/>
      <point x="357" y="278" type="curve" smooth="yes"/>
    </contour>
  </outline>
</glyph>
<glyph name="at" format="1">
  <advance width="1952"/>
  <unicode hex="0040"/>
  <note>
	at
  </note>
  <outline>
    <contour>
      <point x="1389" y="1369"/>
      <point x="1596" y="1267"/>
      <point x="1706" y="1069" type="curve" smooth="yes"/>
      <point x="1761" y="970"/>
      <point x="1788" y="850"/>
      <point x="1788" y="709" type="curve" smooth="yes"/>
      <point x="1788" y="406"/>
      <point x="1637" y="175"/>
      <point x="1462" y="56" type="curve" smooth="yes"/>
      <point x="1375" y="-3"/>
      <point x="1302" y="-33"/>
      <point x="1243" y="-33" type="curve" smooth="yes"/>
      <point x="1198" y="-33"/>
      <point x="1160" y="-6"/>
      <point x="1138" y="47" type="curve" smooth="yes"/>
      <point x="1127" y="73"/>
      <point x="1121" y="105"/>
      <point x="1121" y="143" type="curve" smooth="yes"/>
      <point x="1121" y="193"/>
      <point x="1130" y="271"/>
      <point x="1149" y="378" type="curve"/>
      <point x="1060" y="133"/>
      <point x="932" y="-51"/>
      <point x="784" y="-51" type="curve" smooth="yes"/>
      <point x="699" y="-51"/>
      <point x="611" y="12"/>
      <point x="560" y="127" type="curve" smooth="yes"/>
      <point x="535" y="184"/>
      <point x="522" y="251"/>
      <point x="522" y="326" type="curve" smooth="yes"/>
      <point x="522" y="522"/>
      <point x="605" y="730"/>
      <point x="753" y="852" type="curve" smooth="yes"/>
      <point x="827" y="913"/>
      <point x="912" y="943"/>
      <point x="1008" y="943" type="curve" smooth="yes"/>
      <point x="1077" y="943"/>
      <point x="1154" y="928"/>
      <point x="1218" y="895" type="curve"/>
      <point x="1225" y="919"/>
      <point x="1258" y="943"/>
      <point x="1281" y="939" type="curve"/>
      <point x="1295" y="935"/>
      <point x="1315" y="928"/>
      <point x="1342" y="917" type="curve"/>
      <point x="1345" y="916"/>
      <point x="1355" y="912"/>
      <point x="1371" y="906" type="curve"/>
      <point x="1386" y="899"/>
      <point x="1402" y="894"/>
      <point x="1417" y="890" type="curve"/>
      <point x="1372" y="691"/>
      <point x="1326" y="455"/>
      <point x="1317" y="303" type="curve" smooth="yes"/>
      <point x="1316" y="282"/>
      <point x="1316" y="267"/>
      <point x="1316" y="259" type="curve" smooth="yes"/>
      <point x="1316" y="226"/>
      <point x="1319" y="198"/>
      <point x="1324" y="176" type="curve" smooth="yes"/>
      <point x="1329" y="154"/>
      <point x="1336" y="143"/>
      <point x="1343" y="143" type="curve" smooth="yes"/>
      <point x="1427" y="143"/>
      <point x="1522" y="237"/>
      <point x="1579" y="391" type="curve" smooth="yes"/>
      <point x="1608" y="468"/>
      <point x="1622" y="554"/>
      <point x="1622" y="649" type="curve" smooth="yes"/>
      <point x="1622" y="921"/>
      <point x="1500" y="1090"/>
      <point x="1324" y="1164" type="curve" smooth="yes"/>
      <point x="1236" y="1201"/>
      <point x="1140" y="1219"/>
      <point x="1036" y="1219" type="curve" smooth="yes"/>
      <point x="775" y="1219"/>
      <point x="542" y="1070"/>
      <point x="414" y="807" type="curve" smooth="yes"/>
      <point x="349" y="675"/>
      <point x="317" y="523"/>
      <point x="317" y="350" type="curve" smooth="yes"/>
      <point x="317" y="63"/>
      <point x="426" y="-137"/>
      <point x="595" y="-233" type="curve" smooth="yes"/>
      <point x="680" y="-282"/>
      <point x="773" y="-306"/>
      <point x="876" y="-306" type="curve" smooth="yes"/>
      <point x="1012" y="-306"/>
      <point x="1166" y="-272"/>
      <point x="1233" y="-228" type="curve"/>
      <point x="1276" y="-327" type="line"/>
      <point x="1179" y="-410"/>
      <point x="1010" y="-458"/>
      <point x="833" y="-458" type="curve" smooth="yes"/>
      <point x="544" y="-458"/>
      <point x="329" y="-332"/>
      <point x="218" y="-104" type="curve" smooth="yes"/>
      <point x="163" y="10"/>
      <point x="135" y="145"/>
      <point x="135" y="302" type="curve" smooth="yes"/>
      <point x="135" y="701"/>
      <point x="333" y="1044"/>
      <point x="637" y="1230" type="curve" smooth="yes"/>
      <point x="788" y="1323"/>
      <point x="950" y="1369"/>
      <point x="1121" y="1369" type="curve" smooth="yes"/>
    </contour>
    <contour>
      <point x="895" y="167"/>
      <point x="964" y="247"/>
      <point x="1026" y="360" type="curve" smooth="yes"/>
      <point x="1057" y="417"/>
      <point x="1082" y="475"/>
      <point x="1103" y="535" type="curve" smooth="yes"/>
      <point x="1130" y="620"/>
      <point x="1145" y="681"/>
      <point x="1149" y="718" type="curve"/>
      <point x="1130" y="739"/>
      <point x="1075" y="767"/>
      <point x="1023" y="784" type="curve" smooth="yes"/>
      <point x="996" y="792"/>
      <point x="975" y="796"/>
      <point x="960" y="796" type="curve" smooth="yes"/>
      <point x="869" y="796"/>
      <point x="802" y="712"/>
      <point x="769" y="591" type="curve" smooth="yes"/>
      <point x="752" y="530"/>
      <point x="744" y="466"/>
      <point x="744" y="397" type="curve" smooth="yes"/>
      <point x="744" y="336"/>
      <point x="757" y="257"/>
      <point x="788" y="206" type="curve" smooth="yes"/>
      <point x="803" y="180"/>
      <point x="823" y="167"/>
      <point x="846" y="167" type="curve" smooth="yes"/>
    </contour>
  </outline>
</glyph>
<glyph name="F" format="1">
  <advance width="1123"/>
  <unicode hex="0046"/>
  <note>
	F
  </note>
  <outline>
    <contour>
      <point x="205" y="140" type="line"/>
      <point x="205" y="1191" type="line"/>
      <point x="64" y="1215" type="line"/>
      <point x="64" y="1339" type="line"/>
      <point x="1067" y="1339" type="line"/>
      <point x="1087" y="1008" type="line"/>
      <point x="928" y="1008" type="line"/>
      <point x="858" y="1199" type="line"/>
      <point x="503" y="1220" type="line"/>
      <point x="503" y="725" type="line"/>
      <point x="741" y="729" type="line"/>
      <point x="779" y="885" type="line"/>
      <point x="910" y="885" type="line"/>
      <point x="910" y="416" type="line"/>
      <point x="780" y="416" type="line"/>
      <point x="741" y="576" type="line"/>
      <point x="503" y="583" type="line"/>
      <point x="503" y="141" type="line"/>
      <point x="770" y="118" type="line"/>
      <point x="770" y="0" type="line"/>
      <point x="68" y="0" type="line"/>
      <point x="68" y="118" type="line"/>
    </contour>
  </outline>
</glyph>
<glyph name="I" format="1">
  <advance width="748"/>
  <unicode hex="0049"/>
  <note>
	I
  </note>
  <outline>
    <contour>
      <point x="225" y="141" type="line"/>
      <point x="225" y="1190" type="line"/>
      <point x="78" y="1215" type="line"/>
      <point x="78" y="1339" type="line"/>
      <point x="671" y="1339" type="line"/>
      <point x="671" y="1215" type="line"/>
      <point x="524" y="1191" type="line"/>
      <point x="524" y="141" type="line"/>
      <point x="673" y="116" type="line"/>
      <point x="673" y="0" type="line"/>
      <point x="80" y="0" type="line"/>
      <point x="80" y="118" type="line"/>
    </contour>
  </outline>
</glyph>
<glyph name="J" format="1">
  <advance width="710"/>
  <unicode hex="004A"/>
  <note>
	J
  </note>
  <outline>
    <contour>
      <point x="-33" y="-242" type="line"/>
      <point x="22" y="-225"/>
      <point x="83" y="-180"/>
      <point x="132" y="-112" type="curve" smooth="yes"/>
      <point x="181" y="-45"/>
      <point x="206" y="35"/>
      <point x="218" y="143" type="curve" smooth="yes"/>
      <point x="223" y="197"/>
      <point x="226" y="271"/>
      <point x="226" y="365" type="curve" smooth="yes"/>
      <point x="226" y="1190" type="line"/>
      <point x="75" y="1215" type="line"/>
      <point x="75" y="1339" type="line"/>
      <point x="665" y="1339" type="line"/>
      <point x="665" y="1215" type="line"/>
      <point x="522" y="1191" type="line"/>
      <point x="522" y="501" type="line" smooth="yes"/>
      <point x="522" y="261"/>
      <point x="517" y="120"/>
      <point x="497" y="36" type="curve" smooth="yes"/>
      <point x="445" y="-164"/>
      <point x="277" y="-301"/>
      <point x="33" y="-346" type="curve"/>
    </contour>
  </outline>
</glyph>
<glyph name="K" format="1">
  <advance width="1356"/>
  <unicode hex="004B"/>
  <note>
	K
  </note>
  <outline>
    <contour>
      <point x="1009" y="0" type="line" smooth="yes"/>
      <point x="991" y="0"/>
      <point x="968" y="24"/>
      <point x="941" y="71" type="curve" smooth="yes"/>
      <point x="914" y="118"/>
      <point x="876" y="190"/>
      <point x="828" y="289" type="curve" smooth="yes"/>
      <point x="748" y="452"/>
      <point x="698" y="547"/>
      <point x="649" y="614" type="curve"/>
      <point x="502" y="442" type="line"/>
      <point x="502" y="140" type="line"/>
      <point x="656" y="118" type="line"/>
      <point x="656" y="0" type="line"/>
      <point x="66" y="0" type="line"/>
      <point x="66" y="118" type="line"/>
      <point x="205" y="141" type="line"/>
      <point x="205" y="1191" type="line"/>
      <point x="67" y="1215" type="line"/>
      <point x="67" y="1339" type="line"/>
      <point x="633" y="1339" type="line"/>
      <point x="633" y="1215" type="line"/>
      <point x="502" y="1190" type="line"/>
      <point x="502" y="627" type="line"/>
      <point x="942" y="1191" type="line"/>
      <point x="799" y="1215" type="line"/>
      <point x="798" y="1339" type="line"/>
      <point x="1302" y="1339" type="line"/>
      <point x="1302" y="1216" type="line"/>
      <point x="1149" y="1191" type="line"/>
      <point x="822" y="818" type="line"/>
      <point x="903" y="745"/>
      <point x="989" y="608"/>
      <point x="1118" y="385" type="curve" smooth="yes"/>
      <point x="1166" y="303"/>
      <point x="1202" y="243"/>
      <point x="1226" y="206" type="curve" smooth="yes"/>
      <point x="1250" y="169"/>
      <point x="1269" y="147"/>
      <point x="1282" y="141" type="curve"/>
      <point x="1363" y="118" type="line"/>
      <point x="1363" y="0" type="line"/>
    </contour>
  </outline>
</glyph>
<glyph name="L" format="1">
  <advance width="1153"/>
  <unicode hex="004C"/>
  <note>
	L
  </note>
  <outline>
    <contour>
      <point x="205" y="141" type="line"/>
      <point x="205" y="1190" type="line"/>
      <point x="70" y="1215" type="line"/>
      <point x="70" y="1339" type="line"/>
      <point x="671" y="1339" type="line"/>
      <point x="671" y="1215" type="line"/>
      <point x="504" y="1190" type="line"/>
      <point x="504" y="142" type="line"/>
      <point x="851" y="161" type="line"/>
      <point x="967" y="502" type="line"/>
      <point x="1132" y="477" type="line"/>
      <point x="1080" y="0" type="line"/>
      <point x="68" y="0" type="line"/>
      <point x="68" y="118" type="line"/>
    </contour>
  </outline>
</glyph>
<glyph name="M" format="1">
  <advance width="1855"/>
  <unicode hex="004D"/>
  <note>
	M
  </note>
  <outline>
    <contour>
      <point x="148" y="140" type="line"/>
      <point x="270" y="1191" type="line"/>
      <point x="93" y="1215" type="line"/>
      <point x="93" y="1339" type="line"/>
      <point x="676" y="1339" type="line"/>
      <point x="906" y="561" type="line"/>
      <point x="938" y="390" type="line"/>
      <point x="967" y="561" type="line"/>
      <point x="1160" y="1339" type="line"/>
      <point x="1749" y="1339" type="line"/>
      <point x="1749" y="1215" type="line"/>
      <point x="1558" y="1190" type="line"/>
      <point x="1714" y="141" type="line"/>
      <point x="1864" y="118" type="line"/>
      <point x="1864" y="0" type="line"/>
      <point x="1261" y="0" type="line"/>
      <point x="1261" y="118" type="line"/>
      <point x="1410" y="140" type="line"/>
      <point x="1319" y="915" type="line"/>
      <point x="1285" y="1237" type="line"/>
      <point x="1233" y="988" type="line"/>
      <point x="991" y="51" type="line"/>
      <point x="775" y="51" type="line"/>
      <point x="491" y="923" type="line"/>
      <point x="414" y="1243" type="line"/>
      <point x="392" y="916" type="line"/>
      <point x="335" y="141" type="line"/>
      <point x="514" y="118" type="line"/>
      <point x="514" y="0" type="line"/>
      <point x="-4" y="0" type="line"/>
      <point x="-4" y="118" type="line"/>
    </contour>
  </outline>
</glyph>
<glyph name="N" format="1">
  <advance width="1450"/>
  <unicode hex="004E"/>
  <note>
	N
  </note>
  <outline>
    <contour>
      <point x="207" y="140" type="line"/>
      <point x="207" y="1191" type="line"/>
      <point x="64" y="1215" type="line"/>
      <point x="64" y="1339" type="line"/>
      <point x="503" y="1339" type="line"/>
      <point x="1016" y="562" type="line"/>
      <point x="1111" y="358" type="line"/>
      <point x="1111" y="1192" type="line"/>
      <point x="957" y="1215" type="line"/>
      <point x="957" y="1339" type="line"/>
      <point x="1419" y="1339" type="line"/>
      <point x="1419" y="1215" type="line"/>
      <point x="1280" y="1191" type="line"/>
      <point x="1280" y="0" type="line"/>
      <point x="1036" y="0" type="line"/>
      <point x="496" y="825" type="line"/>
      <point x="377" y="1066" type="line"/>
      <point x="377" y="140" type="line"/>
      <point x="561" y="118" type="line"/>
      <point x="561" y="0" type="line"/>
      <point x="64" y="0" type="line"/>
      <point x="64" y="118" type="line"/>
    </contour>
  </outline>
</glyph>
<glyph name="Q" format="1">
  <advance width="1324"/>
  <unicode hex="0051"/>
  <note>
	Q
  </note>
  <outline>
    <contour>
      <point x="53" y="943"/>
      <point x="161" y="1158"/>
      <point x="348" y="1271" type="curve" smooth="yes"/>
      <point x="535" y="1384"/>
      <point x="928" y="1413"/>
      <point x="1124" y="1181" type="curve" smooth="yes"/>
      <point x="1222" y="1064"/>
      <point x="1271" y="901"/>
      <point x="1271" y="690" type="curve" smooth="yes"/>
      <point x="1271" y="399"/>
      <point x="1154" y="171"/>
      <point x="954" y="58" type="curve"/>
      <point x="1033" y="42"/>
      <point x="1106" y="9"/>
      <point x="1237" y="-54" type="curve" smooth="yes"/>
      <point x="1390" y="-126"/>
      <point x="1473" y="-163"/>
      <point x="1552" y="-163" type="curve" smooth="yes"/>
      <point x="1554" y="-163" type="line" smooth="yes"/>
      <point x="1590" y="-163"/>
      <point x="1620" y="-160"/>
      <point x="1643" y="-155" type="curve"/>
      <point x="1673" y="-248" type="line"/>
      <point x="1672" y="-249"/>
      <point x="1664" y="-259"/>
      <point x="1649" y="-276" type="curve" smooth="yes"/>
      <point x="1619" y="-311"/>
      <point x="1536" y="-344"/>
      <point x="1439" y="-344" type="curve" smooth="yes"/>
      <point x="1429" y="-344" type="line" smooth="yes"/>
      <point x="1324" y="-344"/>
      <point x="1224" y="-303"/>
      <point x="1145" y="-250" type="curve" smooth="yes"/>
      <point x="1105" y="-224"/>
      <point x="1057" y="-190"/>
      <point x="1002" y="-147" type="curve" smooth="yes"/>
      <point x="907" y="-74"/>
      <point x="849" y="-33"/>
      <point x="784" y="-6" type="curve"/>
      <point x="741" y="-15"/>
      <point x="694" y="-20"/>
      <point x="643" y="-20" type="curve" smooth="yes"/>
      <point x="376" y="-20"/>
      <point x="201" y="99"/>
      <point x="117" y="303" type="curve" smooth="yes"/>
      <point x="74" y="405"/>
      <point x="53" y="525"/>
      <point x="53" y="664" type="curve" smooth="yes"/>
    </contour>
    <contour>
      <point x="380" y="290"/>
      <point x="481" y="102"/>
      <point x="661" y="102" type="curve" smooth="yes"/>
      <point x="780" y="102"/>
      <point x="865" y="190"/>
      <point x="910" y="366" type="curve" smooth="yes"/>
      <point x="932" y="453"/>
      <point x="943" y="561"/>
      <point x="943" y="689" type="curve" smooth="yes"/>
      <point x="943" y="1062"/>
      <point x="843" y="1235"/>
      <point x="662" y="1235" type="curve" smooth="yes"/>
      <point x="481" y="1235"/>
      <point x="380" y="1046"/>
      <point x="380" y="666" type="curve" smooth="yes"/>
    </contour>
  </outline>
</glyph>
<glyph name="R" format="1">
  <advance width="1307"/>
  <unicode hex="0052"/>
  <note>
	R
  </note>
  <outline>
    <contour>
      <point x="205" y="140" type="line"/>
      <point x="205" y="1191" type="line"/>
      <point x="74" y="1215" type="line"/>
      <point x="74" y="1339" type="line"/>
      <point x="348" y="1339" type="line" smooth="yes"/>
      <point x="379" y="1339"/>
      <point x="425" y="1341"/>
      <point x="486" y="1345" type="curve"/>
      <point x="493" y="1346"/>
      <point x="513" y="1347"/>
      <point x="546" y="1349" type="curve" smooth="yes"/>
      <point x="579" y="1350"/>
      <point x="613" y="1351"/>
      <point x="649" y="1351" type="curve" smooth="yes"/>
      <point x="902" y="1351"/>
      <point x="1047" y="1302"/>
      <point x="1114" y="1198" type="curve" smooth="yes"/>
      <point x="1147" y="1146"/>
      <point x="1164" y="1078"/>
      <point x="1164" y="993" type="curve" smooth="yes"/>
      <point x="1164" y="889"/>
      <point x="1126" y="785"/>
      <point x="1049" y="706" type="curve" smooth="yes"/>
      <point x="1010" y="667"/>
      <point x="963" y="638"/>
      <point x="906" y="620" type="curve"/>
      <point x="977" y="591"/>
      <point x="1036" y="518"/>
      <point x="1078" y="442" type="curve" smooth="yes"/>
      <point x="1099" y="403"/>
      <point x="1122" y="357"/>
      <point x="1147" y="302" type="curve" smooth="yes"/>
      <point x="1172" y="247"/>
      <point x="1193" y="207"/>
      <point x="1208" y="182" type="curve" smooth="yes"/>
      <point x="1223" y="156"/>
      <point x="1239" y="141"/>
      <point x="1256" y="137" type="curve"/>
      <point x="1311" y="118" type="line"/>
      <point x="1311" y="0" type="line"/>
      <point x="969" y="0" type="line" smooth="yes"/>
      <point x="951" y="0"/>
      <point x="933" y="19"/>
      <point x="915" y="58" type="curve" smooth="yes"/>
      <point x="896" y="96"/>
      <point x="872" y="156"/>
      <point x="842" y="238" type="curve" smooth="yes"/>
      <point x="798" y="365"/>
      <point x="769" y="440"/>
      <point x="729" y="505" type="curve" smooth="yes"/>
      <point x="709" y="538"/>
      <point x="688" y="560"/>
      <point x="666" y="571" type="curve"/>
      <point x="576" y="571"/>
      <point x="521" y="572"/>
      <point x="502" y="573" type="curve"/>
      <point x="502" y="139" type="line"/>
      <point x="663" y="118" type="line"/>
      <point x="663" y="0" type="line"/>
      <point x="68" y="0" type="line"/>
      <point x="68" y="118" type="line"/>
    </contour>
    <contour>
      <point x="643" y="691" type="line" smooth="yes"/>
      <point x="774" y="691"/>
      <point x="848" y="786"/>
      <point x="848" y="981" type="curve" smooth="yes"/>
      <point x="848" y="1149"/>
      <point x="782" y="1231"/>
      <point x="617" y="1231" type="curve" smooth="yes"/>
      <point x="568" y="1231"/>
      <point x="530" y="1228"/>
      <point x="502" y="1222" type="curve"/>
      <point x="502" y="694" type="line"/>
      <point x="512" y="691"/>
      <point x="537" y="690"/>
      <point x="576" y="690" type="curve" smooth="yes"/>
    </contour>
  </outline>
</glyph>
<glyph name="S" format="1">
  <advance width="1092"/>
  <unicode hex="0053"/>
  <note>
	S
  </note>
  <outline>
    <contour>
      <point x="113" y="394" type="line"/>
      <point x="277" y="394" type="line"/>
      <point x="322" y="171" type="line"/>
      <point x="351" y="135"/>
      <point x="431" y="106"/>
      <point x="527" y="106" type="curve" smooth="yes"/>
      <point x="675" y="106"/>
      <point x="744" y="173"/>
      <point x="744" y="289" type="curve" smooth="yes"/>
      <point x="744" y="368"/>
      <point x="698" y="425"/>
      <point x="616" y="474" type="curve" smooth="yes"/>
      <point x="575" y="498"/>
      <point x="518" y="527"/>
      <point x="447" y="561" type="curve" smooth="yes"/>
      <point x="256" y="649"/>
      <point x="104" y="773"/>
      <point x="104" y="992" type="curve" smooth="yes"/>
      <point x="104" y="1125"/>
      <point x="174" y="1242"/>
      <point x="315" y="1307" type="curve" smooth="yes"/>
      <point x="385" y="1340"/>
      <point x="471" y="1356"/>
      <point x="573" y="1356" type="curve" smooth="yes"/>
      <point x="694" y="1356"/>
      <point x="785" y="1336"/>
      <point x="886" y="1308" type="curve" smooth="yes"/>
      <point x="921" y="1299"/>
      <point x="943" y="1293"/>
      <point x="953" y="1292" type="curve"/>
      <point x="942" y="975" type="line"/>
      <point x="781" y="975" type="line"/>
      <point x="738" y="1190" type="line"/>
      <point x="721" y="1211"/>
      <point x="654" y="1235"/>
      <point x="582" y="1235" type="curve" smooth="yes"/>
      <point x="447" y="1235"/>
      <point x="386" y="1171"/>
      <point x="386" y="1068" type="curve" smooth="yes"/>
      <point x="386" y="985"/>
      <point x="444" y="924"/>
      <point x="524" y="876" type="curve" smooth="yes"/>
      <point x="564" y="852"/>
      <point x="623" y="821"/>
      <point x="700" y="782" type="curve" smooth="yes"/>
      <point x="831" y="717"/>
      <point x="925" y="660"/>
      <point x="993" y="560" type="curve" smooth="yes"/>
      <point x="1027" y="509"/>
      <point x="1044" y="450"/>
      <point x="1044" y="383" type="curve" smooth="yes"/>
      <point x="1044" y="250"/>
      <point x="983" y="120"/>
      <point x="832" y="40" type="curve" smooth="yes"/>
      <point x="756" y="0"/>
      <point x="658" y="-20"/>
      <point x="537" y="-20" type="curve" smooth="yes"/>
      <point x="402" y="-20"/>
      <point x="298" y="4"/>
      <point x="178" y="40" type="curve" smooth="yes"/>
      <point x="137" y="52"/>
      <point x="111" y="59"/>
      <point x="98" y="60" type="curve"/>
    </contour>
  </outline>
</glyph>
<glyph name="U" format="1">
  <advance width="1336"/>
  <unicode hex="0055"/>
  <note>
	U
  </note>
  <outline>
    <contour>
      <point x="141" y="1190" type="line"/>
      <point x="26" y="1215" type="line"/>
      <point x="26" y="1339" type="line"/>
      <point x="598" y="1339" type="line"/>
      <point x="598" y="1215" type="line"/>
      <point x="450" y="1189" type="line"/>
      <point x="450" y="524" type="line" smooth="yes"/>
      <point x="450" y="243"/>
      <point x="542" y="111"/>
      <point x="733" y="111" type="curve" smooth="yes"/>
      <point x="921" y="111"/>
      <point x="1009" y="262"/>
      <point x="1009" y="519" type="curve" smooth="yes"/>
      <point x="1009" y="1190" type="line"/>
      <point x="858" y="1215" type="line"/>
      <point x="858" y="1339" type="line"/>
      <point x="1319" y="1339" type="line"/>
      <point x="1319" y="1215" type="line"/>
      <point x="1200" y="1190" type="line"/>
      <point x="1200" y="534" type="line" smooth="yes"/>
      <point x="1200" y="281"/>
      <point x="1109" y="118"/>
      <point x="958" y="43" type="curve" smooth="yes"/>
      <point x="882" y="5"/>
      <point x="794" y="-14"/>
      <point x="693" y="-14" type="curve" smooth="yes"/>
      <point x="440" y="-14"/>
      <point x="280" y="61"/>
      <point x="201" y="226" type="curve" smooth="yes"/>
      <point x="161" y="309"/>
      <point x="141" y="416"/>
      <point x="141" y="549" type="curve" smooth="yes"/>
    </contour>
  </outline>
</glyph>
<glyph name="V" format="1">
  <advance width="1253"/>
  <unicode hex="0056"/>
  <note>
	V
  </note>
  <outline>
    <contour>
      <point x="-32" y="1215" type="line"/>
      <point x="-32" y="1339" type="line"/>
      <point x="549" y="1339" type="line"/>
      <point x="549" y="1215" type="line"/>
      <point x="398" y="1191" type="line"/>
      <point x="648" y="399" type="line"/>
      <point x="690" y="239" type="line"/>
      <point x="725" y="400" type="line"/>
      <point x="972" y="1190" type="line"/>
      <point x="835" y="1215" type="line"/>
      <point x="835" y="1339" type="line"/>
      <point x="1287" y="1339" type="line"/>
      <point x="1287" y="1215" type="line"/>
      <point x="1171" y="1191" type="line"/>
      <point x="758" y="-13" type="line"/>
      <point x="517" y="-13" type="line"/>
      <point x="76" y="1191" type="line"/>
    </contour>
  </outline>
</glyph>
<glyph name="Y" format="1">
  <advance width="1188"/>
  <unicode hex="0059"/>
  <note>
	Y
  </note>
  <outline>
    <contour>
      <point x="448" y="140" type="line"/>
      <point x="448" y="536" type="line"/>
      <point x="75" y="1190" type="line"/>
      <point x="-31" y="1215" type="line"/>
      <point x="-31" y="1339" type="line"/>
      <point x="531" y="1339" type="line"/>
      <point x="531" y="1215" type="line"/>
      <point x="412" y="1190" type="line"/>
      <point x="622" y="766" type="line"/>
      <point x="663" y="653" type="line"/>
      <point x="708" y="765" type="line"/>
      <point x="900" y="1191" type="line"/>
      <point x="766" y="1215" type="line"/>
      <point x="766" y="1339" type="line"/>
      <point x="1221" y="1339" type="line"/>
      <point x="1221" y="1215" type="line"/>
      <point x="1109" y="1192" type="line"/>
      <point x="762" y="536" type="line"/>
      <point x="762" y="141" type="line"/>
      <point x="953" y="118" type="line"/>
      <point x="953" y="0" type="line"/>
      <point x="264" y="0" type="line"/>
      <point x="264" y="118" type="line"/>
    </contour>
  </outline>
</glyph>
<glyph name="Z" format="1">
  <advance width="1185"/>
  <unicode hex="005A"/>
  <note>
	Z
  </note>
  <outline>
    <contour>
      <point x="686" y="1110" type="line"/>
      <point x="788" y="1227" type="line"/>
      <point x="361" y="1203" type="line"/>
      <point x="257" y="960" type="line"/>
      <point x="106" y="982" type="line"/>
      <point x="150" y="1344" type="line"/>
      <point x="1076" y="1344" type="line"/>
      <point x="1124" y="1237" type="line"/>
      <point x="479" y="234" type="line"/>
      <point x="358" y="122" type="line"/>
      <point x="871" y="159" type="line"/>
      <point x="978" y="431" type="line"/>
      <point x="1130" y="401" type="line"/>
      <point x="1089" y="0" type="line"/>
      <point x="90" y="0" type="line"/>
      <point x="27" y="106" type="line"/>
    </contour>
  </outline>
</glyph>
<glyph name="bracketleft" format="1">
  <advance width="769"/>
  <unicode hex="005B"/>
  <note>
	bracketleft
  </note>
  <outline>
    <contour>
      <point x="154" y="1246" type="line" smooth="yes"/>
      <point x="154" y="1358"/>
      <point x="189" y="1414"/>
      <point x="253" y="1434" type="curve" smooth="yes"/>
      <point x="285" y="1444"/>
      <point x="327" y="1449"/>
      <point x="379" y="1449" type="curve" smooth="yes"/>
      <point x="464" y="1449"/>
      <point x="529" y="1436"/>
      <point x="632" y="1411" type="curve"/>
      <point x="632" y="1311" type="line"/>
      <point x="403" y="1311" type="line"/>
      <point x="403" y="-107" type="line"/>
      <point x="632" y="-107" type="line"/>
      <point x="632" y="-209" type="line"/>
      <point x="547" y="-233"/>
      <point x="467" y="-247"/>
      <point x="379" y="-247" type="curve" smooth="yes"/>
      <point x="275" y="-247"/>
      <point x="214" y="-231"/>
      <point x="180" y="-172" type="curve" smooth="yes"/>
      <point x="163" y="-143"/>
      <point x="154" y="-100"/>
      <point x="154" y="-44" type="curve" smooth="yes"/>
    </contour>
  </outline>
</glyph>
<glyph name="backslash" format="1">
  <advance width="776"/>
  <unicode hex="005C"/>
  <note>
	backslash
  </note>
  <outline>
    <contour>
      <point x="693" y="-319" type="line"/>
      <point x="488" y="-319" type="line"/>
      <point x="33" y="1407" type="line"/>
      <point x="237" y="1407" type="line"/>
    </contour>
  </outline>
</glyph>
<glyph name="bracketright" format="1">
  <advance width="769"/>
  <unicode hex="005D"/>
  <note>
	bracketright
  </note>
  <outline>
    <contour>
      <point x="615" y="-44" type="line" smooth="yes"/>
      <point x="615" y="-156"/>
      <point x="580" y="-211"/>
      <point x="516" y="-231" type="curve" smooth="yes"/>
      <point x="484" y="-242"/>
      <point x="442" y="-247"/>
      <point x="390" y="-247" type="curve" smooth="yes"/>
      <point x="302" y="-247"/>
      <point x="224" y="-233"/>
      <point x="137" y="-209" type="curve"/>
      <point x="137" y="-107" type="line"/>
      <point x="366" y="-107" type="line"/>
      <point x="366" y="1311" type="line"/>
      <point x="137" y="1311" type="line"/>
      <point x="137" y="1411" type="line"/>
      <point x="240" y="1436"/>
      <point x="305" y="1449"/>
      <point x="390" y="1449" type="curve" smooth="yes"/>
      <point x="494" y="1449"/>
      <point x="556" y="1434"/>
      <point x="590" y="1375" type="curve" smooth="yes"/>
      <point x="607" y="1345"/>
      <point x="615" y="1302"/>
      <point x="615" y="1246" type="curve" smooth="yes"/>
    </contour>
  </outline>
</glyph>
<glyph name="asciicircum" format="1">
  <advance width="1199"/>
  <unicode hex="005E"/>
  <note>
	asciicircum
  </note>
  <outline>
    <contour>
      <point x="698" y="1347" type="line"/>
      <point x="1055" y="240" type="line"/>
      <point x="816" y="240" type="line"/>
      <point x="598" y="1062" type="line"/>
      <point x="382" y="240" type="line"/>
      <point x="144" y="240" type="line"/>
      <point x="497" y="1347" type="line"/>
    </contour>
  </outline>
</glyph>
<glyph name="grave" format="1">
  <advance width="599"/>
  <unicode hex="0060"/>
  <note>
	grave
  </note>
  <outline>
    <contour>
      <point x="133" y="1617" type="line"/>
      <point x="134" y="1617" type="line"/>
      <point x="448" y="1238" type="line"/>
      <point x="342" y="1150" type="line"/>
      <point x="341" y="1150" type="line"/>
      <point x="276" y="1174"/>
      <point x="157" y="1258"/>
      <point x="62" y="1347" type="curve" smooth="yes"/>
      <point x="14" y="1391"/>
      <point x="-19" y="1430"/>
      <point x="-38" y="1463" type="curve"/>
    </contour>
  </outline>
</glyph>
<glyph name="b" format="1">
  <advance width="1120"/>
  <unicode hex="0062"/>
  <note>
	b
  </note>
  <outline>
    <contour>
      <point x="0" y="1331" type="line"/>
      <point x="0" y="1435" type="line"/>
      <point x="348" y="1478" type="line"/>
      <point x="353" y="1478" type="line"/>
      <point x="411" y="1442" type="line"/>
      <point x="411" y="917" type="line"/>
      <point x="472" y="980"/>
      <point x="564" y="1028"/>
      <point x="671" y="1028" type="curve" smooth="yes"/>
      <point x="818" y="1028"/>
      <point x="940" y="962"/>
      <point x="1009" y="814" type="curve" smooth="yes"/>
      <point x="1043" y="740"/>
      <point x="1060" y="646"/>
      <point x="1060" y="533" type="curve" smooth="yes"/>
      <point x="1060" y="325"/>
      <point x="970" y="149"/>
      <point x="807" y="53" type="curve" smooth="yes"/>
      <point x="726" y="4"/>
      <point x="631" y="-20"/>
      <point x="522" y="-20" type="curve" smooth="yes"/>
      <point x="383" y="-20"/>
      <point x="268" y="-2"/>
      <point x="198" y="21" type="curve" smooth="yes"/>
      <point x="163" y="32"/>
      <point x="140" y="42"/>
      <point x="129" y="49" type="curve"/>
      <point x="129" y="1309" type="line"/>
    </contour>
    <contour>
      <point x="411" y="135" type="line"/>
      <point x="423" y="108"/>
      <point x="471" y="92"/>
      <point x="532" y="92" type="curve" smooth="yes"/>
      <point x="620" y="92"/>
      <point x="690" y="154"/>
      <point x="727" y="279" type="curve" smooth="yes"/>
      <point x="746" y="341"/>
      <point x="755" y="418"/>
      <point x="755" y="510" type="curve" smooth="yes"/>
      <point x="755" y="745"/>
      <point x="681" y="855"/>
      <point x="560" y="855" type="curve" smooth="yes"/>
      <point x="497" y="855"/>
      <point x="442" y="824"/>
      <point x="411" y="788" type="curve"/>
    </contour>
  </outline>
</glyph>
<glyph name="f" format="1">
  <advance width="748"/>
  <unicode hex="0066"/>
  <note>
	f
  </note>
  <outline>
    <contour>
      <point x="202" y="136" type="line"/>
      <point x="202" y="850" type="line"/>
      <point x="57" y="850" type="line"/>
      <point x="57" y="958" type="line"/>
      <point x="202" y="998" type="line"/>
      <point x="202" y="1075" type="line" smooth="yes"/>
      <point x="202" y="1234"/>
      <point x="297" y="1373"/>
      <point x="441" y="1450" type="curve" smooth="yes"/>
      <point x="512" y="1488"/>
      <point x="589" y="1507"/>
      <point x="671" y="1507" type="curve" smooth="yes"/>
      <point x="730" y="1507"/>
      <point x="756" y="1500"/>
      <point x="788" y="1489" type="curve"/>
      <point x="788" y="1228" type="line"/>
      <point x="772" y="1247"/>
      <point x="729" y="1269"/>
      <point x="677" y="1283" type="curve" smooth="yes"/>
      <point x="650" y="1290"/>
      <point x="624" y="1293"/>
      <point x="599" y="1293" type="curve" smooth="yes"/>
      <point x="539" y="1293"/>
      <point x="509" y="1280"/>
      <point x="496" y="1244" type="curve" smooth="yes"/>
      <point x="489" y="1225"/>
      <point x="486" y="1199"/>
      <point x="486" y="1166" type="curve" smooth="yes"/>
      <point x="486" y="1000" type="line"/>
      <point x="708" y="1000" type="line"/>
      <point x="708" y="850" type="line"/>
      <point x="486" y="850" type="line"/>
      <point x="486" y="135" type="line"/>
      <point x="666" y="117" type="line"/>
      <point x="666" y="0" type="line"/>
      <point x="65" y="0" type="line"/>
      <point x="65" y="117" type="line"/>
    </contour>
  </outline>
</glyph>
<glyph name="i" format="1">
  <advance width="634"/>
  <unicode hex="0069"/>
  <note>
	i
  </note>
  <outline>
    <contour>
      <point x="186" y="136" type="line"/>
      <point x="186" y="811" type="line"/>
      <point x="67" y="847" type="line"/>
      <point x="67" y="982" type="line"/>
      <point x="414" y="1026" type="line"/>
      <point x="418" y="1026" type="line"/>
      <point x="473" y="987" type="line"/>
      <point x="473" y="135" type="line"/>
      <point x="585" y="118" type="line"/>
      <point x="585" y="0" type="line"/>
      <point x="68" y="0" type="line"/>
      <point x="68" y="118" type="line"/>
    </contour>
    <contour>
      <point x="142" y="1373"/>
      <point x="169" y="1428"/>
      <point x="220" y="1460" type="curve" smooth="yes"/>
      <point x="245" y="1475"/>
      <point x="276" y="1483"/>
      <point x="311" y="1483" type="curve" smooth="yes"/>
      <point x="312" y="1483" type="line" smooth="yes"/>
      <point x="379" y="1483"/>
      <point x="428" y="1453"/>
      <point x="453" y="1409" type="curve"/>
      <point x="465" y="1386"/>
      <point x="471" y="1362"/>
      <point x="471" y="1335" type="curve" smooth="yes"/>
      <point x="471" y="1234"/>
      <point x="409" y="1163"/>
      <point x="294" y="1163" type="curve" smooth="yes"/>
      <point x="294" y="1163" type="line" smooth="yes"/>
      <point x="235" y="1163"/>
      <point x="188" y="1191"/>
      <point x="162" y="1235" type="curve" smooth="yes"/>
      <point x="149" y="1257"/>
      <point x="142" y="1282"/>
      <point x="142" y="1309" type="curve" smooth="yes"/>
    </contour>
  </outline>
</glyph>
<glyph name="j" format="1">
  <advance width="609"/>
  <unicode hex="006A"/>
  <note>
	j
  </note>
  <outline>
    <contour>
      <point x="71" y="844" type="line"/>
      <point x="73" y="982" type="line"/>
      <point x="414" y="1026" type="line"/>
      <point x="418" y="1026" type="line"/>
      <point x="473" y="987" type="line"/>
      <point x="473" y="19" type="line" smooth="yes"/>
      <point x="473" y="-172"/>
      <point x="377" y="-314"/>
      <point x="260" y="-385" type="curve" smooth="yes"/>
      <point x="201" y="-420"/>
      <point x="146" y="-438"/>
      <point x="95" y="-438" type="curve" smooth="yes"/>
      <point x="60" y="-438"/>
      <point x="10" y="-435"/>
      <point x="-2" y="-431" type="curve"/>
      <point x="-17" y="-316" type="line"/>
      <point x="4" y="-317"/>
      <point x="44" y="-310"/>
      <point x="72" y="-295" type="curve"/>
      <point x="157" y="-254"/>
      <point x="191" y="-135"/>
      <point x="191" y="70" type="curve"/>
      <point x="190" y="806" type="line"/>
    </contour>
    <contour>
      <point x="132" y="1373"/>
      <point x="159" y="1428"/>
      <point x="210" y="1460" type="curve" smooth="yes"/>
      <point x="235" y="1475"/>
      <point x="266" y="1483"/>
      <point x="301" y="1483" type="curve" smooth="yes"/>
      <point x="302" y="1483" type="line" smooth="yes"/>
      <point x="369" y="1483"/>
      <point x="418" y="1453"/>
      <point x="443" y="1409" type="curve"/>
      <point x="455" y="1386"/>
      <point x="461" y="1362"/>
      <point x="461" y="1335" type="curve" smooth="yes"/>
      <point x="461" y="1234"/>
      <point x="399" y="1163"/>
      <point x="284" y="1163" type="curve" smooth="yes"/>
      <point x="284" y="1163" type="line" smooth="yes"/>
      <point x="225" y="1163"/>
      <point x="178" y="1191"/>
      <point x="152" y="1235" type="curve" smooth="yes"/>
      <point x="139" y="1257"/>
      <point x="132" y="1282"/>
      <point x="132" y="1309" type="curve" smooth="yes"/>
    </contour>
  </outline>
</glyph>
<glyph name="k" format="1">
  <advance width="1167"/>
  <unicode hex="006B"/>
  <note>
	k
  </note>
  <outline>
    <contour>
      <point x="168" y="135" type="line"/>
      <point x="168" y="1304" type="line"/>
      <point x="44" y="1327" type="line"/>
      <point x="44" y="1435" type="line"/>
      <point x="396" y="1478" type="line"/>
      <point x="400" y="1478" type="line"/>
      <point x="452" y="1440" type="line"/>
      <point x="452" y="600" type="line"/>
      <point x="448" y="515" type="line"/>
      <point x="780" y="866" type="line"/>
      <point x="642" y="889" type="line"/>
      <point x="642" y="1001" type="line"/>
      <point x="1134" y="1001" type="line"/>
      <point x="1134" y="889" type="line"/>
      <point x="983" y="859" type="line"/>
      <point x="787" y="673" type="line"/>
      <point x="1096" y="136" type="line"/>
      <point x="1190" y="118" type="line"/>
      <point x="1190" y="0" type="line"/>
      <point x="697" y="0" type="line"/>
      <point x="697" y="117" type="line"/>
      <point x="778" y="136" type="line"/>
      <point x="590" y="495" type="line"/>
      <point x="446" y="349" type="line"/>
      <point x="451" y="252" type="line"/>
      <point x="451" y="136" type="line"/>
      <point x="558" y="117" type="line"/>
      <point x="558" y="0" type="line"/>
      <point x="65" y="0" type="line"/>
      <point x="65" y="118" type="line"/>
    </contour>
  </outline>
</glyph>
<glyph name="l" format="1">
  <advance width="619"/>
  <unicode hex="006C"/>
  <note>
	l
  </note>
  <outline>
    <contour>
      <point x="172" y="136" type="line"/>
      <point x="172" y="1304" type="line"/>
      <point x="43" y="1327" type="line"/>
      <point x="43" y="1435" type="line"/>
      <point x="399" y="1478" type="line"/>
      <point x="403" y="1478" type="line"/>
      <point x="456" y="1440" type="line"/>
      <point x="456" y="136" type="line"/>
      <point x="575" y="118" type="line"/>
      <point x="575" y="0" type="line"/>
      <point x="55" y="0" type="line"/>
      <point x="55" y="118" type="line"/>
    </contour>
  </outline>
</glyph>
<glyph name="m" format="1">
  <advance width="1849"/>
  <unicode hex="006D"/>
  <note>
	m
  </note>
  <outline>
    <contour>
      <point x="194" y="134" type="line"/>
      <point x="194" y="811" type="line"/>
      <point x="85" y="847" type="line"/>
      <point x="85" y="986" type="line"/>
      <point x="403" y="1026" type="line"/>
      <point x="407" y="1026" type="line"/>
      <point x="455" y="987" type="line"/>
      <point x="455" y="923" type="line"/>
      <point x="454" y="882" type="line"/>
      <point x="506" y="933"/>
      <point x="598" y="979"/>
      <point x="690" y="1004" type="curve" smooth="yes"/>
      <point x="736" y="1017"/>
      <point x="776" y="1023"/>
      <point x="811" y="1023" type="curve" smooth="yes"/>
      <point x="942" y="1023"/>
      <point x="1020" y="980"/>
      <point x="1060" y="887" type="curve"/>
      <point x="1140" y="962"/>
      <point x="1277" y="1023"/>
      <point x="1404" y="1023" type="curve" smooth="yes"/>
      <point x="1551" y="1023"/>
      <point x="1633" y="968"/>
      <point x="1670" y="853" type="curve" smooth="yes"/>
      <point x="1689" y="795"/>
      <point x="1698" y="719"/>
      <point x="1698" y="625" type="curve" smooth="yes"/>
      <point x="1698" y="134" type="line"/>
      <point x="1808" y="117" type="line"/>
      <point x="1808" y="0" type="line"/>
      <point x="1327" y="0" type="line"/>
      <point x="1327" y="117" type="line"/>
      <point x="1409" y="135" type="line"/>
      <point x="1409" y="618" type="line" smooth="yes"/>
      <point x="1409" y="738"/>
      <point x="1393" y="802"/>
      <point x="1352" y="832" type="curve" smooth="yes"/>
      <point x="1331" y="847"/>
      <point x="1302" y="854"/>
      <point x="1264" y="854" type="curve" smooth="yes"/>
      <point x="1205" y="854"/>
      <point x="1138" y="824"/>
      <point x="1089" y="788" type="curve"/>
      <point x="1096" y="742"/>
      <point x="1100" y="687"/>
      <point x="1100" y="624" type="curve" smooth="yes"/>
      <point x="1100" y="135" type="line"/>
      <point x="1207" y="117" type="line"/>
      <point x="1207" y="0" type="line"/>
      <point x="716" y="0" type="line"/>
      <point x="716" y="117" type="line"/>
      <point x="810" y="135" type="line"/>
      <point x="810" y="624" type="line" smooth="yes"/>
      <point x="810" y="740"/>
      <point x="797" y="802"/>
      <point x="757" y="832" type="curve" smooth="yes"/>
      <point x="737" y="847"/>
      <point x="708" y="854"/>
      <point x="671" y="854" type="curve" smooth="yes"/>
      <point x="603" y="854"/>
      <point x="530" y="823"/>
      <point x="483" y="784" type="curve"/>
      <point x="483" y="135" type="line"/>
      <point x="584" y="117" type="line"/>
      <point x="584" y="0" type="line"/>
      <point x="96" y="0" type="line"/>
      <point x="96" y="117" type="line"/>
    </contour>
  </outline>
</glyph>
<glyph name="o" format="1">
  <advance width="1093"/>
  <unicode hex="006F"/>
  <note>
	o
  </note>
  <outline>
    <contour>
      <point x="759" y="1028"/>
      <point x="906" y="943"/>
      <point x="982" y="788" type="curve" smooth="yes"/>
      <point x="1019" y="710"/>
      <point x="1038" y="617"/>
      <point x="1038" y="510" type="curve" smooth="yes"/>
      <point x="1038" y="277"/>
      <point x="939" y="115"/>
      <point x="787" y="38" type="curve" smooth="yes"/>
      <point x="710" y="-1"/>
      <point x="626" y="-20"/>
      <point x="534" y="-20" type="curve" smooth="yes"/>
      <point x="335" y="-20"/>
      <point x="188" y="65"/>
      <point x="112" y="221" type="curve" smooth="yes"/>
      <point x="74" y="298"/>
      <point x="55" y="390"/>
      <point x="55" y="497" type="curve" smooth="yes"/>
      <point x="55" y="725"/>
      <point x="156" y="887"/>
      <point x="309" y="968" type="curve" smooth="yes"/>
      <point x="385" y="1008"/>
      <point x="469" y="1028"/>
      <point x="560" y="1028" type="curve" smooth="yes"/>
    </contour>
    <contour>
      <point x="728" y="626"/>
      <point x="714" y="730"/>
      <point x="685" y="799" type="curve" smooth="yes"/>
      <point x="656" y="868"/>
      <point x="610" y="902"/>
      <point x="546" y="902" type="curve" smooth="yes"/>
      <point x="485" y="902"/>
      <point x="439" y="871"/>
      <point x="409" y="809" type="curve" smooth="yes"/>
      <point x="379" y="746"/>
      <point x="364" y="650"/>
      <point x="364" y="519" type="curve" smooth="yes"/>
      <point x="364" y="382"/>
      <point x="379" y="279"/>
      <point x="409" y="210" type="curve" smooth="yes"/>
      <point x="438" y="141"/>
      <point x="485" y="106"/>
      <point x="550" y="106" type="curve" smooth="yes"/>
      <point x="611" y="106"/>
      <point x="656" y="137"/>
      <point x="685" y="199" type="curve" smooth="yes"/>
      <point x="714" y="260"/>
      <point x="728" y="357"/>
      <point x="728" y="488" type="curve" smooth="yes"/>
    </contour>
  </outline>
</glyph>
<glyph name="p" format="1">
  <advance width="1152"/>
  <unicode hex="0070"/>
  <note>
	p
  </note>
  <outline>
    <contour>
      <point x="519" y="-20"/>
      <point x="469" y="-12"/>
      <point x="440" y="-4" type="curve"/>
      <point x="445" y="-150" type="line"/>
      <point x="445" y="-301" type="line"/>
      <point x="602" y="-324" type="line"/>
      <point x="602" y="-436" type="line"/>
      <point x="50" y="-436" type="line"/>
      <point x="50" y="-324" type="line"/>
      <point x="164" y="-302" type="line"/>
      <point x="164" y="811" type="line"/>
      <point x="56" y="847" type="line"/>
      <point x="56" y="986" type="line"/>
      <point x="369" y="1026" type="line"/>
      <point x="373" y="1026" type="line"/>
      <point x="421" y="987" type="line"/>
      <point x="421" y="893" type="line"/>
      <point x="480" y="968"/>
      <point x="582" y="1028"/>
      <point x="701" y="1028" type="curve" smooth="yes"/>
      <point x="849" y="1028"/>
      <point x="971" y="961"/>
      <point x="1040" y="814" type="curve" smooth="yes"/>
      <point x="1075" y="740"/>
      <point x="1092" y="646"/>
      <point x="1092" y="533" type="curve" smooth="yes"/>
      <point x="1092" y="333"/>
      <point x="1007" y="155"/>
      <point x="847" y="55" type="curve" smooth="yes"/>
      <point x="766" y="5"/>
      <point x="670" y="-20"/>
      <point x="559" y="-20" type="curve" smooth="yes"/>
    </contour>
    <contour>
      <point x="445" y="140" type="line"/>
      <point x="461" y="117"/>
      <point x="510" y="99"/>
      <point x="565" y="99" type="curve" smooth="yes"/>
      <point x="698" y="99"/>
      <point x="789" y="224"/>
      <point x="789" y="513" type="curve" smooth="yes"/>
      <point x="789" y="749"/>
      <point x="713" y="862"/>
      <point x="593" y="862" type="curve" smooth="yes"/>
      <point x="533" y="862"/>
      <point x="477" y="834"/>
      <point x="445" y="799" type="curve"/>
    </contour>
  </outline>
</glyph>
<glyph name="q" format="1">
  <advance width="1111"/>
  <unicode hex="0071"/>
  <note>
	q
  </note>
  <outline>
    <contour>
      <point x="61" y="680"/>
      <point x="146" y="855"/>
      <point x="308" y="954" type="curve" smooth="yes"/>
      <point x="389" y="1003"/>
      <point x="485" y="1028"/>
      <point x="598" y="1028" type="curve" smooth="yes"/>
      <point x="666" y="1028"/>
      <point x="751" y="1011"/>
      <point x="811" y="994" type="curve"/>
      <point x="949" y="1020" type="line"/>
      <point x="952" y="1020" type="line"/>
      <point x="994" y="987" type="line"/>
      <point x="994" y="-301" type="line"/>
      <point x="1113" y="-324" type="line"/>
      <point x="1113" y="-436" type="line"/>
      <point x="524" y="-436" type="line"/>
      <point x="524" y="-324" type="line"/>
      <point x="712" y="-301" type="line"/>
      <point x="712" y="-42" type="line"/>
      <point x="718" y="92" type="line"/>
      <point x="654" y="24"/>
      <point x="556" y="-20"/>
      <point x="451" y="-20" type="curve" smooth="yes"/>
      <point x="304" y="-20"/>
      <point x="182" y="49"/>
      <point x="113" y="199" type="curve" smooth="yes"/>
      <point x="78" y="274"/>
      <point x="61" y="367"/>
      <point x="61" y="480" type="curve" smooth="yes"/>
    </contour>
    <contour>
      <point x="712" y="864" type="line"/>
      <point x="697" y="887"/>
      <point x="644" y="906"/>
      <point x="588" y="906" type="curve" smooth="yes"/>
      <point x="455" y="906"/>
      <point x="364" y="787"/>
      <point x="364" y="503" type="curve" smooth="yes"/>
      <point x="364" y="262"/>
      <point x="442" y="142"/>
      <point x="561" y="142" type="curve" smooth="yes"/>
      <point x="624" y="142"/>
      <point x="680" y="173"/>
      <point x="712" y="209" type="curve"/>
    </contour>
  </outline>
</glyph>
<glyph name="r" format="1">
  <advance width="859"/>
  <unicode hex="0072"/>
  <note>
	r
  </note>
  <outline>
    <contour>
      <point x="193" y="135" type="line"/>
      <point x="193" y="811" type="line"/>
      <point x="86" y="847" type="line"/>
      <point x="86" y="986" type="line"/>
      <point x="381" y="1026" type="line"/>
      <point x="385" y="1026" type="line"/>
      <point x="437" y="987" type="line"/>
      <point x="437" y="936" type="line"/>
      <point x="433" y="797" type="line"/>
      <point x="437" y="797" type="line"/>
      <point x="454" y="850"/>
      <point x="515" y="932"/>
      <point x="605" y="987" type="curve" smooth="yes"/>
      <point x="650" y="1014"/>
      <point x="699" y="1028"/>
      <point x="752" y="1028" type="curve" smooth="yes"/>
      <point x="781" y="1028"/>
      <point x="806" y="1022"/>
      <point x="821" y="1014" type="curve"/>
      <point x="821" y="714" type="line"/>
      <point x="780" y="742"/>
      <point x="741" y="754"/>
      <point x="680" y="754" type="curve" smooth="yes"/>
      <point x="593" y="754"/>
      <point x="515" y="733"/>
      <point x="478" y="705" type="curve"/>
      <point x="478" y="136" type="line"/>
      <point x="686" y="117" type="line"/>
      <point x="686" y="0" type="line"/>
      <point x="77" y="0" type="line"/>
      <point x="77" y="118" type="line"/>
    </contour>
  </outline>
</glyph>
<glyph name="t" format="1">
  <advance width="735"/>
  <unicode hex="0074"/>
  <note>
	t
  </note>
  <outline>
    <contour>
      <point x="44" y="853" type="line"/>
      <point x="44" y="956" type="line"/>
      <point x="72" y="967"/>
      <point x="142" y="996"/>
      <point x="147" y="1001" type="curve" smooth="yes"/>
      <point x="191" y="1044"/>
      <point x="213" y="1103"/>
      <point x="238" y="1172" type="curve" smooth="yes"/>
      <point x="250" y="1207"/>
      <point x="260" y="1238"/>
      <point x="268" y="1266" type="curve"/>
      <point x="431" y="1266" type="line"/>
      <point x="439" y="1001" type="line"/>
      <point x="703" y="1001" type="line"/>
      <point x="703" y="853" type="line"/>
      <point x="441" y="853" type="line"/>
      <point x="441" y="376" type="line" smooth="yes"/>
      <point x="441" y="307"/>
      <point x="443" y="259"/>
      <point x="446" y="233" type="curve" smooth="yes"/>
      <point x="453" y="180"/>
      <point x="470" y="169"/>
      <point x="526" y="169" type="curve" smooth="yes"/>
      <point x="527" y="169" type="line" smooth="yes"/>
      <point x="577" y="169"/>
      <point x="632" y="178"/>
      <point x="692" y="195" type="curve"/>
      <point x="693" y="195" type="line"/>
      <point x="730" y="86" type="line"/>
      <point x="689" y="51"/>
      <point x="612" y="18"/>
      <point x="522" y="-2" type="curve" smooth="yes"/>
      <point x="477" y="-12"/>
      <point x="433" y="-17"/>
      <point x="391" y="-17" type="curve" smooth="yes"/>
      <point x="389" y="-17" type="line" smooth="yes"/>
      <point x="229" y="-17"/>
      <point x="152" y="54"/>
      <point x="152" y="205" type="curve" smooth="yes"/>
      <point x="152" y="853" type="line"/>
    </contour>
  </outline>
</glyph>
<glyph name="v" format="1">
  <advance width="1034"/>
  <unicode hex="0076"/>
  <note>
	v
  </note>
  <outline>
    <contour>
      <point x="-14" y="886" type="line"/>
      <point x="-14" y="1001" type="line"/>
      <point x="497" y="1001" type="line"/>
      <point x="497" y="886" type="line"/>
      <point x="378" y="863" type="line"/>
      <point x="530" y="395" type="line"/>
      <point x="581" y="213" type="line"/>
      <point x="623" y="392" type="line"/>
      <point x="768" y="864" type="line"/>
      <point x="656" y="886" type="line"/>
      <point x="656" y="1001" type="line"/>
      <point x="1069" y="1001" type="line"/>
      <point x="1069" y="886" type="line"/>
      <point x="978" y="864" type="line"/>
      <point x="650" y="-14" type="line"/>
      <point x="417" y="-14" type="line"/>
      <point x="60" y="863" type="line"/>
    </contour>
  </outline>
</glyph>
<glyph name="x" format="1">
  <advance width="1093"/>
  <unicode hex="0078"/>
  <note>
	x
  </note>
  <outline>
    <contour>
      <point x="116" y="135" type="line"/>
      <point x="398" y="491" type="line"/>
      <point x="107" y="864" type="line"/>
      <point x="15" y="886" type="line"/>
      <point x="15" y="1001" type="line"/>
      <point x="564" y="1001" type="line"/>
      <point x="564" y="886" type="line"/>
      <point x="453" y="864" type="line"/>
      <point x="580" y="686" type="line"/>
      <point x="626" y="610" type="line"/>
      <point x="670" y="686" type="line"/>
      <point x="799" y="864" type="line"/>
      <point x="683" y="886" type="line"/>
      <point x="683" y="1001" type="line"/>
      <point x="1085" y="1001" type="line"/>
      <point x="1085" y="886" type="line"/>
      <point x="981" y="864" type="line"/>
      <point x="708" y="527" type="line"/>
      <point x="1013" y="134" type="line"/>
      <point x="1111" y="116" type="line"/>
      <point x="1111" y="0" type="line"/>
      <point x="567" y="0" type="line"/>
      <point x="567" y="116" type="line"/>
      <point x="664" y="135" type="line"/>
      <point x="539" y="327" type="line"/>
      <point x="485" y="406" type="line"/>
      <point x="444" y="328" type="line"/>
      <point x="314" y="136" type="line"/>
      <point x="444" y="116" type="line"/>
      <point x="444" y="0" type="line"/>
      <point x="4" y="0" type="line"/>
      <point x="4" y="116" type="line"/>
    </contour>
  </outline>
</glyph>
<glyph name="z" format="1">
  <advance width="1012"/>
  <unicode hex="007A"/>
  <note>
	z
  </note>
  <outline>
    <contour>
      <point x="632" y="878" type="line"/>
      <point x="301" y="863" type="line"/>
      <point x="255" y="689" type="line"/>
      <point x="111" y="689" type="line"/>
      <point x="111" y="1001" type="line"/>
      <point x="908" y="1001" type="line"/>
      <point x="952" y="905" type="line"/>
      <point x="503" y="256" type="line"/>
      <point x="381" y="123" type="line"/>
      <point x="739" y="144" type="line"/>
      <point x="820" y="343" type="line"/>
      <point x="957" y="329" type="line"/>
      <point x="933" y="0" type="line"/>
      <point x="89" y="0" type="line"/>
      <point x="40" y="100" type="line"/>
      <point x="502" y="737" type="line"/>
    </contour>
  </outline>
</glyph>
<glyph name="braceleft" format="1">
  <advance width="931"/>
  <unicode hex="007B"/>
  <note>
	braceleft
  </note>
  <outline>
    <contour>
      <point x="370" y="460"/>
      <point x="362" y="495"/>
      <point x="299" y="517" type="curve" smooth="yes"/>
      <point x="267" y="528"/>
      <point x="217" y="533"/>
      <point x="149" y="533" type="curve"/>
      <point x="149" y="689" type="line"/>
      <point x="218" y="689"/>
      <point x="269" y="693"/>
      <point x="300" y="702" type="curve" smooth="yes"/>
      <point x="363" y="718"/>
      <point x="370" y="743"/>
      <point x="370" y="806" type="curve" smooth="yes"/>
      <point x="370" y="871"/>
      <point x="350" y="922"/>
      <point x="310" y="1002" type="curve" smooth="yes"/>
      <point x="267" y="1089"/>
      <point x="246" y="1144"/>
      <point x="246" y="1220" type="curve" smooth="yes"/>
      <point x="246" y="1376"/>
      <point x="332" y="1457"/>
      <point x="548" y="1457" type="curve" smooth="yes"/>
      <point x="636" y="1457"/>
      <point x="705" y="1444"/>
      <point x="810" y="1419" type="curve"/>
      <point x="810" y="1310" type="line"/>
      <point x="671" y="1310" type="line" smooth="yes"/>
      <point x="604" y="1310"/>
      <point x="561" y="1300"/>
      <point x="537" y="1261" type="curve"/>
      <point x="524" y="1242"/>
      <point x="518" y="1214"/>
      <point x="518" y="1179" type="curve" smooth="yes"/>
      <point x="518" y="1138"/>
      <point x="533" y="1091"/>
      <point x="558" y="1012" type="curve" smooth="yes"/>
      <point x="589" y="919"/>
      <point x="604" y="865"/>
      <point x="604" y="809" type="curve" smooth="yes"/>
      <point x="604" y="698"/>
      <point x="519" y="630"/>
      <point x="349" y="605" type="curve"/>
      <point x="505" y="584"/>
      <point x="604" y="519"/>
      <point x="604" y="396" type="curve" smooth="yes"/>
      <point x="604" y="340"/>
      <point x="589" y="287"/>
      <point x="558" y="194" type="curve" smooth="yes"/>
      <point x="531" y="117"/>
      <point x="518" y="73"/>
      <point x="518" y="30" type="curve" smooth="yes"/>
      <point x="518" y="-42"/>
      <point x="544" y="-79"/>
      <point x="588" y="-92" type="curve" smooth="yes"/>
      <point x="609" y="-99"/>
      <point x="637" y="-102"/>
      <point x="671" y="-102" type="curve" smooth="yes"/>
      <point x="810" y="-102" type="line"/>
      <point x="810" y="-215" type="line"/>
      <point x="705" y="-239"/>
      <point x="636" y="-253"/>
      <point x="548" y="-253" type="curve" smooth="yes"/>
      <point x="331" y="-253"/>
      <point x="246" y="-168"/>
      <point x="246" y="-15" type="curve" smooth="yes"/>
      <point x="246" y="60"/>
      <point x="267" y="114"/>
      <point x="310" y="201" type="curve" smooth="yes"/>
      <point x="350" y="280"/>
      <point x="370" y="330"/>
      <point x="370" y="395" type="curve" smooth="yes"/>
    </contour>
  </outline>
</glyph>
<glyph name="bar" format="1">
  <advance width="761"/>
  <unicode hex="007C"/>
  <note>
	bar
  </note>
  <outline>
    <contour>
      <point x="480" y="1566" type="line"/>
      <point x="480" y="-164" type="line"/>
      <point x="281" y="-164" type="line"/>
      <point x="281" y="1566" type="line"/>
    </contour>
  </outline>
</glyph>
<glyph name="braceright" format="1">
  <advance width="931"/>
  <unicode hex="007D"/>
  <note>
	braceright
  </note>
  <outline>
    <contour>
      <point x="686" y="-168"/>
      <point x="600" y="-253"/>
      <point x="384" y="-253" type="curve" smooth="yes"/>
      <point x="296" y="-253"/>
      <point x="228" y="-239"/>
      <point x="121" y="-215" type="curve"/>
      <point x="121" y="-102" type="line"/>
      <point x="261" y="-102" type="line" smooth="yes"/>
      <point x="329" y="-102"/>
      <point x="371" y="-92"/>
      <point x="396" y="-53" type="curve" smooth="yes"/>
      <point x="408" y="-34"/>
      <point x="414" y="-6"/>
      <point x="414" y="30" type="curve" smooth="yes"/>
      <point x="414" y="73"/>
      <point x="401" y="117"/>
      <point x="374" y="194" type="curve" smooth="yes"/>
      <point x="343" y="287"/>
      <point x="328" y="340"/>
      <point x="328" y="396" type="curve" smooth="yes"/>
      <point x="328" y="519"/>
      <point x="427" y="584"/>
      <point x="583" y="605" type="curve"/>
      <point x="413" y="630"/>
      <point x="328" y="698"/>
      <point x="328" y="809" type="curve" smooth="yes"/>
      <point x="328" y="865"/>
      <point x="343" y="919"/>
      <point x="374" y="1012" type="curve" smooth="yes"/>
      <point x="399" y="1091"/>
      <point x="414" y="1138"/>
      <point x="414" y="1179" type="curve" smooth="yes"/>
      <point x="414" y="1250"/>
      <point x="388" y="1287"/>
      <point x="344" y="1300" type="curve" smooth="yes"/>
      <point x="322" y="1307"/>
      <point x="294" y="1310"/>
      <point x="261" y="1310" type="curve" smooth="yes"/>
      <point x="121" y="1310" type="line"/>
      <point x="121" y="1419" type="line"/>
      <point x="228" y="1444"/>
      <point x="296" y="1457"/>
      <point x="384" y="1457" type="curve" smooth="yes"/>
      <point x="600" y="1457"/>
      <point x="686" y="1376"/>
      <point x="686" y="1220" type="curve" smooth="yes"/>
      <point x="686" y="1144"/>
      <point x="665" y="1089"/>
      <point x="622" y="1002" type="curve" smooth="yes"/>
      <point x="582" y="922"/>
      <point x="562" y="871"/>
      <point x="562" y="806" type="curve" smooth="yes"/>
      <point x="562" y="743"/>
      <point x="569" y="718"/>
      <point x="632" y="702" type="curve" smooth="yes"/>
      <point x="663" y="693"/>
      <point x="714" y="689"/>
      <point x="783" y="689" type="curve"/>
      <point x="783" y="533" type="line"/>
      <point x="715" y="533"/>
      <point x="665" y="528"/>
      <point x="634" y="517" type="curve" smooth="yes"/>
      <point x="570" y="495"/>
      <point x="562" y="460"/>
      <point x="562" y="395" type="curve" smooth="yes"/>
      <point x="562" y="330"/>
      <point x="582" y="280"/>
      <point x="622" y="201" type="curve" smooth="yes"/>
      <point x="665" y="114"/>
      <point x="686" y="60"/>
      <point x="686" y="-15" type="curve" smooth="yes"/>
    </contour>
  </outline>
</glyph>
<glyph name="asciitilde" format="1">
  <advance width="1256"/>
  <unicode hex="007E"/>
  <note>
	asciitilde
  </note>
  <outline>
    <contour>
      <point x="177" y="520" type="line"/>
      <point x="205" y="579"/>
      <point x="266" y="640"/>
      <point x="345" y="677" type="curve" smooth="yes"/>
      <point x="384" y="696"/>
      <point x="425" y="705"/>
      <point x="467" y="705" type="curve" smooth="yes"/>
      <point x="551" y="705"/>
      <point x="607" y="671"/>
      <point x="682" y="614" type="curve" smooth="yes"/>
      <point x="737" y="573"/>
      <point x="767" y="554"/>
      <point x="806" y="554" type="curve" smooth="yes"/>
      <point x="886" y="554"/>
      <point x="932" y="589"/>
      <point x="983" y="649" type="curve"/>
      <point x="1072" y="546" type="line"/>
      <point x="1039" y="479"/>
      <point x="979" y="420"/>
      <point x="903" y="384" type="curve" smooth="yes"/>
      <point x="864" y="366"/>
      <point x="824" y="357"/>
      <point x="781" y="357" type="curve" smooth="yes"/>
      <point x="704" y="357"/>
      <point x="656" y="387"/>
      <point x="585" y="444" type="curve" smooth="yes"/>
      <point x="529" y="489"/>
      <point x="495" y="510"/>
      <point x="450" y="510" type="curve" smooth="yes"/>
      <point x="377" y="510"/>
      <point x="318" y="473"/>
      <point x="266" y="417" type="curve"/>
    </contour>
  </outline>
</glyph>
<glyph name="exclamdown" format="1">
  <advance width="634"/>
  <unicode hex="00A1"/>
  <note>
	exclamdown
  </note>
  <outline>
    <contour>
      <point x="236" y="950"/>
      <point x="188" y="980"/>
      <point x="164" y="1025" type="curve"/>
      <point x="151" y="1047"/>
      <point x="145" y="1071"/>
      <point x="145" y="1097" type="curve" smooth="yes"/>
      <point x="145" y="1198"/>
      <point x="220" y="1261"/>
      <point x="328" y="1261" type="curve" smooth="yes"/>
      <point x="381" y="1261"/>
      <point x="431" y="1235"/>
      <point x="460" y="1190" type="curve" smooth="yes"/>
      <point x="474" y="1167"/>
      <point x="481" y="1142"/>
      <point x="481" y="1113" type="curve" smooth="yes"/>
      <point x="481" y="1052"/>
      <point x="447" y="999"/>
      <point x="392" y="971" type="curve" smooth="yes"/>
      <point x="364" y="957"/>
      <point x="334" y="950"/>
      <point x="303" y="950" type="curve" smooth="yes"/>
    </contour>
    <contour>
      <point x="162" y="-334" type="line"/>
      <point x="231" y="773" type="line"/>
      <point x="410" y="773" type="line"/>
      <point x="488" y="-334" type="line"/>
    </contour>
  </outline>
</glyph>
<glyph name="cent" format="1">
  <advance width="1045"/>
  <unicode hex="00A2"/>
  <note>
	cent
  </note>
  <outline>
    <contour>
      <point x="531" y="1210" type="line"/>
      <point x="686" y="1210" type="line"/>
      <point x="677" y="1025" type="line"/>
      <point x="742" y="1020"/>
      <point x="789" y="1007"/>
      <point x="849" y="990" type="curve" smooth="yes"/>
      <point x="880" y="981"/>
      <point x="902" y="975"/>
      <point x="917" y="973" type="curve"/>
      <point x="905" y="661" type="line"/>
      <point x="728" y="661" type="line"/>
      <point x="682" y="849" type="line"/>
      <point x="670" y="884"/>
      <point x="634" y="899"/>
      <point x="587" y="899" type="curve" smooth="yes"/>
      <point x="465" y="899"/>
      <point x="404" y="781"/>
      <point x="404" y="544" type="curve" smooth="yes"/>
      <point x="404" y="371"/>
      <point x="445" y="254"/>
      <point x="514" y="198" type="curve" smooth="yes"/>
      <point x="549" y="169"/>
      <point x="589" y="155"/>
      <point x="634" y="155" type="curve" smooth="yes"/>
      <point x="734" y="155"/>
      <point x="808" y="183"/>
      <point x="875" y="226" type="curve"/>
      <point x="923" y="120" type="line"/>
      <point x="891" y="83"/>
      <point x="826" y="41"/>
      <point x="740" y="10" type="curve" smooth="yes"/>
      <point x="697" y="-5"/>
      <point x="651" y="-15"/>
      <point x="604" y="-18" type="curve"/>
      <point x="594" y="-214" type="line"/>
      <point x="437" y="-214" type="line"/>
      <point x="448" y="-10" type="line"/>
      <point x="215" y="35"/>
      <point x="99" y="223"/>
      <point x="99" y="490" type="curve" smooth="yes"/>
      <point x="99" y="679"/>
      <point x="170" y="834"/>
      <point x="297" y="930" type="curve" smooth="yes"/>
      <point x="360" y="977"/>
      <point x="435" y="1008"/>
      <point x="521" y="1021" type="curve"/>
    </contour>
  </outline>
</glyph>
<glyph name="sterling" format="1">
  <advance width="1386"/>
  <unicode hex="00A3"/>
  <note>
	sterling
  </note>
  <outline>
    <contour>
      <point x="342" y="768" type="line"/>
      <point x="342" y="900" type="line" smooth="yes"/>
      <point x="342" y="1076"/>
      <point x="436" y="1222"/>
      <point x="585" y="1299" type="curve" smooth="yes"/>
      <point x="659" y="1337"/>
      <point x="741" y="1356"/>
      <point x="830" y="1356" type="curve" smooth="yes"/>
      <point x="963" y="1356"/>
      <point x="1069" y="1325"/>
      <point x="1147" y="1264" type="curve"/>
      <point x="1021" y="1086" type="line"/>
      <point x="1006" y="1114"/>
      <point x="961" y="1158"/>
      <point x="898" y="1189" type="curve" smooth="yes"/>
      <point x="866" y="1204"/>
      <point x="832" y="1212"/>
      <point x="796" y="1212" type="curve" smooth="yes"/>
      <point x="737" y="1212"/>
      <point x="693" y="1194"/>
      <point x="665" y="1118" type="curve" smooth="yes"/>
      <point x="650" y="1079"/>
      <point x="643" y="1024"/>
      <point x="643" y="951" type="curve" smooth="yes"/>
      <point x="643" y="768" type="line"/>
      <point x="882" y="768" type="line"/>
      <point x="882" y="639" type="line"/>
      <point x="643" y="639" type="line"/>
      <point x="643" y="486" type="line" smooth="yes"/>
      <point x="643" y="349"/>
      <point x="604" y="274"/>
      <point x="523" y="205" type="curve"/>
      <point x="546" y="202"/>
      <point x="583" y="194"/>
      <point x="634" y="180" type="curve"/>
      <point x="733" y="157"/>
      <point x="787" y="144"/>
      <point x="850" y="144" type="curve" smooth="yes"/>
      <point x="949" y="144"/>
      <point x="1000" y="169"/>
      <point x="1021" y="217" type="curve" smooth="yes"/>
      <point x="1032" y="240"/>
      <point x="1037" y="271"/>
      <point x="1037" y="309" type="curve" smooth="yes"/>
      <point x="1037" y="377"/>
      <point x="1010" y="448"/>
      <point x="982" y="473" type="curve"/>
      <point x="1272" y="473" type="line"/>
      <point x="1295" y="450"/>
      <point x="1316" y="393"/>
      <point x="1316" y="325" type="curve" smooth="yes"/>
      <point x="1316" y="204"/>
      <point x="1251" y="94"/>
      <point x="1132" y="33" type="curve" smooth="yes"/>
      <point x="1072" y="2"/>
      <point x="1002" y="-13"/>
      <point x="923" y="-13" type="curve" smooth="yes"/>
      <point x="802" y="-13"/>
      <point x="712" y="11"/>
      <point x="579" y="55" type="curve" smooth="yes"/>
      <point x="494" y="84"/>
      <point x="444" y="99"/>
      <point x="393" y="100" type="curve"/>
      <point x="328" y="33"/>
      <point x="264" y="0"/>
      <point x="201" y="0" type="curve" smooth="yes"/>
      <point x="134" y="0"/>
      <point x="87" y="32"/>
      <point x="87" y="95" type="curve" smooth="yes"/>
      <point x="87" y="150"/>
      <point x="137" y="198"/>
      <point x="209" y="223" type="curve" smooth="yes"/>
      <point x="244" y="236"/>
      <point x="280" y="241"/>
      <point x="316" y="240" type="curve"/>
      <point x="332" y="265"/>
      <point x="342" y="347"/>
      <point x="342" y="439" type="curve" smooth="yes"/>
      <point x="342" y="639" type="line"/>
      <point x="176" y="639" type="line"/>
      <point x="176" y="768" type="line"/>
    </contour>
  </outline>
</glyph>
<glyph name="currency" format="1">
  <advance width="1361"/>
  <unicode hex="00A4"/>
  <note>
	currency
  </note>
  <outline>
    <contour>
      <point x="351" y="448" type="line"/>
      <point x="307" y="513"/>
      <point x="285" y="588"/>
      <point x="285" y="671" type="curve" smooth="yes"/>
      <point x="285" y="756"/>
      <point x="310" y="837"/>
      <point x="355" y="906" type="curve"/>
      <point x="153" y="1107" type="line"/>
      <point x="269" y="1226" type="line"/>
      <point x="472" y="1022" type="line"/>
      <point x="536" y="1062"/>
      <point x="605" y="1082"/>
      <point x="678" y="1082" type="curve" smooth="yes"/>
      <point x="754" y="1082"/>
      <point x="824" y="1063"/>
      <point x="887" y="1026" type="curve"/>
      <point x="1089" y="1228" type="line"/>
      <point x="1207" y="1110" type="line"/>
      <point x="1008" y="913" type="line"/>
      <point x="1052" y="849"/>
      <point x="1077" y="773"/>
      <point x="1077" y="690" type="curve" smooth="yes"/>
      <point x="1077" y="603"/>
      <point x="1051" y="521"/>
      <point x="1004" y="453" type="curve"/>
      <point x="1204" y="255" type="line"/>
      <point x="1086" y="136" type="line"/>
      <point x="884" y="338" type="line"/>
      <point x="822" y="299"/>
      <point x="753" y="279"/>
      <point x="678" y="279" type="curve" smooth="yes"/>
      <point x="603" y="279"/>
      <point x="534" y="297"/>
      <point x="472" y="334" type="curve"/>
      <point x="271" y="133" type="line"/>
      <point x="153" y="252" type="line"/>
    </contour>
    <contour>
      <point x="862" y="752"/>
      <point x="825" y="819"/>
      <point x="767" y="855" type="curve" smooth="yes"/>
      <point x="738" y="873"/>
      <point x="707" y="882"/>
      <point x="674" y="882" type="curve" smooth="yes"/>
      <point x="597" y="882"/>
      <point x="542" y="841"/>
      <point x="515" y="778" type="curve" smooth="yes"/>
      <point x="502" y="747"/>
      <point x="495" y="713"/>
      <point x="495" y="676" type="curve" smooth="yes"/>
      <point x="495" y="605"/>
      <point x="531" y="541"/>
      <point x="587" y="506" type="curve" smooth="yes"/>
      <point x="615" y="489"/>
      <point x="646" y="480"/>
      <point x="679" y="480" type="curve" smooth="yes"/>
      <point x="802" y="480"/>
      <point x="862" y="561"/>
      <point x="862" y="676" type="curve" smooth="yes"/>
    </contour>
  </outline>
</glyph>
<glyph name="yen" format="1">
  <advance width="1464"/>
  <unicode hex="00A5"/>
  <note>
	yen
  </note>
  <outline>
    <contour>
      <point x="539" y="713" type="line"/>
      <point x="238" y="1197" type="line"/>
      <point x="115" y="1222" type="line"/>
      <point x="115" y="1339" type="line"/>
      <point x="702" y="1339" type="line"/>
      <point x="702" y="1222" type="line"/>
      <point x="575" y="1199" type="line"/>
      <point x="760" y="819" type="line"/>
      <point x="807" y="719" type="line"/>
      <point x="855" y="820" type="line"/>
      <point x="1046" y="1199" type="line"/>
      <point x="903" y="1222" type="line"/>
      <point x="903" y="1339" type="line"/>
      <point x="1367" y="1339" type="line"/>
      <point x="1367" y="1222" type="line"/>
      <point x="1235" y="1197" type="line"/>
      <point x="966" y="713" type="line"/>
      <point x="1289" y="713" type="line"/>
      <point x="1289" y="593" type="line"/>
      <point x="904" y="593" type="line"/>
      <point x="904" y="414" type="line"/>
      <point x="1289" y="414" type="line"/>
      <point x="1289" y="293" type="line"/>
      <point x="904" y="293" type="line"/>
      <point x="904" y="135" type="line"/>
      <point x="1096" y="113" type="line"/>
      <point x="1096" y="0" type="line"/>
      <point x="430" y="0" type="line"/>
      <point x="430" y="113" type="line"/>
      <point x="612" y="135" type="line"/>
      <point x="612" y="293" type="line"/>
      <point x="227" y="293" type="line"/>
      <point x="227" y="414" type="line"/>
      <point x="612" y="414" type="line"/>
      <point x="612" y="593" type="line"/>
      <point x="227" y="593" type="line"/>
      <point x="227" y="713" type="line"/>
    </contour>
  </outline>
</glyph>
<glyph name="brokenbar" format="1">
  <advance width="761"/>
  <unicode hex="00A6"/>
  <note>
	brokenbar
  </note>
  <outline>
    <contour>
      <point x="480" y="1566" type="line"/>
      <point x="480" y="836" type="line"/>
      <point x="281" y="836" type="line"/>
      <point x="281" y="1566" type="line"/>
    </contour>
    <contour>
      <point x="480" y="564" type="line"/>
      <point x="480" y="-164" type="line"/>
      <point x="281" y="-164" type="line"/>
      <point x="281" y="564" type="line"/>
    </contour>
  </outline>
</glyph>
<glyph name="section" format="1">
  <advance width="1232"/>
  <unicode hex="00A7"/>
  <note>
	section
  </note>
  <outline>
    <contour>
      <point x="357" y="202" type="line"/>
      <point x="397" y="20" type="line"/>
      <point x="414" y="-4"/>
      <point x="460" y="-29"/>
      <point x="519" y="-44" type="curve" smooth="yes"/>
      <point x="548" y="-51"/>
      <point x="578" y="-55"/>
      <point x="609" y="-55" type="curve" smooth="yes"/>
      <point x="740" y="-55"/>
      <point x="807" y="-6"/>
      <point x="807" y="71" type="curve" smooth="yes"/>
      <point x="807" y="136"/>
      <point x="762" y="179"/>
      <point x="695" y="212" type="curve" smooth="yes"/>
      <point x="661" y="228"/>
      <point x="611" y="249"/>
      <point x="544" y="275" type="curve" smooth="yes"/>
      <point x="283" y="383"/>
      <point x="156" y="519"/>
      <point x="156" y="724" type="curve" smooth="yes"/>
      <point x="156" y="821"/>
      <point x="203" y="899"/>
      <point x="291" y="966" type="curve"/>
      <point x="230" y="1029"/>
      <point x="200" y="1102"/>
      <point x="200" y="1186" type="curve" smooth="yes"/>
      <point x="200" y="1301"/>
      <point x="272" y="1394"/>
      <point x="404" y="1444" type="curve" smooth="yes"/>
      <point x="469" y="1469"/>
      <point x="546" y="1481"/>
      <point x="634" y="1481" type="curve" smooth="yes"/>
      <point x="742" y="1481"/>
      <point x="830" y="1462"/>
      <point x="935" y="1433" type="curve" smooth="yes"/>
      <point x="962" y="1425"/>
      <point x="984" y="1420"/>
      <point x="999" y="1417" type="curve"/>
      <point x="987" y="1140" type="line"/>
      <point x="834" y="1140" type="line"/>
      <point x="781" y="1301" type="line"/>
      <point x="773" y="1313"/>
      <point x="742" y="1332"/>
      <point x="695" y="1344" type="curve"/>
      <point x="671" y="1349"/>
      <point x="646" y="1352"/>
      <point x="619" y="1352" type="curve" smooth="yes"/>
      <point x="503" y="1352"/>
      <point x="444" y="1308"/>
      <point x="444" y="1235" type="curve" smooth="yes"/>
      <point x="444" y="1167"/>
      <point x="483" y="1125"/>
      <point x="540" y="1094" type="curve" smooth="yes"/>
      <point x="569" y="1078"/>
      <point x="614" y="1057"/>
      <point x="675" y="1030" type="curve" smooth="yes"/>
      <point x="707" y="1016" type="line" smooth="yes"/>
      <point x="842" y="956"/>
      <point x="944" y="904"/>
      <point x="1026" y="804" type="curve" smooth="yes"/>
      <point x="1067" y="753"/>
      <point x="1087" y="694"/>
      <point x="1087" y="627" type="curve" smooth="yes"/>
      <point x="1087" y="504"/>
      <point x="1039" y="415"/>
      <point x="958" y="344" type="curve"/>
      <point x="1021" y="283"/>
      <point x="1052" y="213"/>
      <point x="1052" y="132" type="curve" smooth="yes"/>
      <point x="1052" y="25"/>
      <point x="989" y="-75"/>
      <point x="854" y="-134" type="curve" smooth="yes"/>
      <point x="786" y="-164"/>
      <point x="701" y="-179"/>
      <point x="600" y="-179" type="curve" smooth="yes"/>
      <point x="472" y="-179"/>
      <point x="371" y="-153"/>
      <point x="251" y="-116" type="curve" smooth="yes"/>
      <point x="210" y="-104"/>
      <point x="184" y="-97"/>
      <point x="171" y="-96" type="curve"/>
      <point x="187" y="202" type="line"/>
    </contour>
    <contour>
      <point x="875" y="451"/>
      <point x="885" y="485"/>
      <point x="885" y="523" type="curve" smooth="yes"/>
      <point x="885" y="600"/>
      <point x="834" y="659"/>
      <point x="750" y="707" type="curve" smooth="yes"/>
      <point x="708" y="731"/>
      <point x="651" y="759"/>
      <point x="578" y="792" type="curve" smooth="yes"/>
      <point x="554" y="803" type="line" smooth="yes"/>
      <point x="477" y="838"/>
      <point x="429" y="862"/>
      <point x="378" y="895" type="curve"/>
      <point x="353" y="866"/>
      <point x="341" y="831"/>
      <point x="341" y="788" type="curve" smooth="yes"/>
      <point x="341" y="712"/>
      <point x="399" y="651"/>
      <point x="492" y="599" type="curve" smooth="yes"/>
      <point x="538" y="573"/>
      <point x="598" y="544"/>
      <point x="671" y="511" type="curve" smooth="yes"/>
      <point x="762" y="472"/>
      <point x="803" y="454"/>
      <point x="855" y="422" type="curve"/>
    </contour>
  </outline>
</glyph>
<glyph name="dieresis" format="1">
  <advance width="898"/>
  <unicode hex="00A8"/>
  <note>
	dieresis
  </note>
  <outline>
    <contour>
      <point x="79" y="1415"/>
      <point x="134" y="1485"/>
      <point x="235" y="1485" type="curve" smooth="yes"/>
      <point x="236" y="1485" type="line" smooth="yes"/>
      <point x="328" y="1485"/>
      <point x="379" y="1424"/>
      <point x="379" y="1343" type="curve" smooth="yes"/>
      <point x="379" y="1243"/>
      <point x="323" y="1176"/>
      <point x="211" y="1176" type="curve" smooth="yes"/>
      <point x="210" y="1176" type="line" smooth="yes"/>
      <point x="159" y="1176"/>
      <point x="119" y="1203"/>
      <point x="96" y="1247" type="curve" smooth="yes"/>
      <point x="85" y="1269"/>
      <point x="79" y="1293"/>
      <point x="79" y="1318" type="curve" smooth="yes"/>
    </contour>
    <contour>
      <point x="523" y="1415"/>
      <point x="578" y="1485"/>
      <point x="678" y="1485" type="curve" smooth="yes"/>
      <point x="679" y="1485" type="line" smooth="yes"/>
      <point x="772" y="1485"/>
      <point x="822" y="1424"/>
      <point x="822" y="1343" type="curve" smooth="yes"/>
      <point x="822" y="1243"/>
      <point x="765" y="1176"/>
      <point x="654" y="1176" type="curve" smooth="yes"/>
      <point x="653" y="1176" type="line" smooth="yes"/>
      <point x="602" y="1176"/>
      <point x="562" y="1205"/>
      <point x="540" y="1249" type="curve" smooth="yes"/>
      <point x="529" y="1271"/>
      <point x="523" y="1294"/>
      <point x="523" y="1318" type="curve" smooth="yes"/>
    </contour>
  </outline>
</glyph>
<glyph name="copyright" format="1">
  <advance width="1874"/>
  <unicode hex="00A9"/>
  <note>
	copyright
  </note>
  <outline>
    <contour>
      <point x="1218" y="1646"/>
      <point x="1464" y="1500"/>
      <point x="1600" y="1267" type="curve" smooth="yes"/>
      <point x="1667" y="1150"/>
      <point x="1701" y="1022"/>
      <point x="1701" y="882" type="curve" smooth="yes"/>
      <point x="1701" y="601"/>
      <point x="1556" y="353"/>
      <point x="1323" y="217" type="curve" smooth="yes"/>
      <point x="1206" y="148"/>
      <point x="1078" y="114"/>
      <point x="938" y="114" type="curve" smooth="yes"/>
      <point x="659" y="114"/>
      <point x="412" y="260"/>
      <point x="275" y="495" type="curve" smooth="yes"/>
      <point x="206" y="612"/>
      <point x="172" y="741"/>
      <point x="172" y="882" type="curve" smooth="yes"/>
      <point x="172" y="1162"/>
      <point x="320" y="1408"/>
      <point x="554" y="1544" type="curve" smooth="yes"/>
      <point x="671" y="1612"/>
      <point x="799" y="1646"/>
      <point x="938" y="1646" type="curve" smooth="yes"/>
    </contour>
    <contour>
      <point x="1169" y="234"/>
      <point x="1371" y="359"/>
      <point x="1481" y="558" type="curve" smooth="yes"/>
      <point x="1536" y="657"/>
      <point x="1563" y="765"/>
      <point x="1563" y="882" type="curve" smooth="yes"/>
      <point x="1563" y="1118"/>
      <point x="1446" y="1326"/>
      <point x="1255" y="1442" type="curve" smooth="yes"/>
      <point x="1160" y="1500"/>
      <point x="1054" y="1529"/>
      <point x="938" y="1529" type="curve" smooth="yes"/>
      <point x="705" y="1529"/>
      <point x="503" y="1402"/>
      <point x="394" y="1205" type="curve" smooth="yes"/>
      <point x="339" y="1106"/>
      <point x="312" y="999"/>
      <point x="312" y="882" type="curve" smooth="yes"/>
      <point x="312" y="646"/>
      <point x="429" y="436"/>
      <point x="621" y="321" type="curve" smooth="yes"/>
      <point x="716" y="263"/>
      <point x="822" y="234"/>
      <point x="938" y="234" type="curve" smooth="yes"/>
    </contour>
    <contour>
      <point x="546" y="1042"/>
      <point x="630" y="1185"/>
      <point x="768" y="1265" type="curve" smooth="yes"/>
      <point x="837" y="1304"/>
      <point x="913" y="1324"/>
      <point x="998" y="1324" type="curve" smooth="yes"/>
      <point x="1085" y="1324"/>
      <point x="1193" y="1302"/>
      <point x="1226" y="1270" type="curve"/>
      <point x="1221" y="1048" type="line"/>
      <point x="1103" y="1048" type="line"/>
      <point x="1060" y="1168" type="line"/>
      <point x="1035" y="1185"/>
      <point x="1011" y="1195"/>
      <point x="940" y="1195" type="curve" smooth="yes"/>
      <point x="813" y="1195"/>
      <point x="743" y="1080"/>
      <point x="743" y="912" type="curve" smooth="yes"/>
      <point x="743" y="796"/>
      <point x="791" y="701"/>
      <point x="872" y="650" type="curve" smooth="yes"/>
      <point x="912" y="625"/>
      <point x="957" y="612"/>
      <point x="1007" y="612" type="curve" smooth="yes"/>
      <point x="1074" y="612"/>
      <point x="1137" y="638"/>
      <point x="1180" y="678" type="curve"/>
      <point x="1235" y="585" type="line"/>
      <point x="1199" y="541"/>
      <point x="1137" y="496"/>
      <point x="1062" y="470" type="curve" smooth="yes"/>
      <point x="1024" y="457"/>
      <point x="985" y="450"/>
      <point x="945" y="450" type="curve" smooth="yes"/>
      <point x="776" y="450"/>
      <point x="653" y="527"/>
      <point x="592" y="656" type="curve" smooth="yes"/>
      <point x="561" y="720"/>
      <point x="546" y="794"/>
      <point x="546" y="877" type="curve" smooth="yes"/>
    </contour>
  </outline>
</glyph>
<glyph name="ordfeminine" format="1">
  <advance width="927"/>
  <unicode hex="00AA"/>
  <note>
	ordfeminine
  </note>
  <outline>
    <contour>
      <point x="76" y="1002"/>
      <point x="268" y="1084"/>
      <point x="571" y="1085" type="curve"/>
      <point x="571" y="1106" type="line" smooth="yes"/>
      <point x="571" y="1193"/>
      <point x="556" y="1235"/>
      <point x="514" y="1253" type="curve" smooth="yes"/>
      <point x="493" y="1262"/>
      <point x="462" y="1266"/>
      <point x="422" y="1266" type="curve" smooth="yes"/>
      <point x="330" y="1266"/>
      <point x="239" y="1243"/>
      <point x="168" y="1212" type="curve"/>
      <point x="108" y="1330" type="line"/>
      <point x="155" y="1359"/>
      <point x="247" y="1393"/>
      <point x="342" y="1414" type="curve" smooth="yes"/>
      <point x="389" y="1424"/>
      <point x="431" y="1429"/>
      <point x="467" y="1429" type="curve" smooth="yes"/>
      <point x="687" y="1429"/>
      <point x="808" y="1344"/>
      <point x="808" y="1133" type="curve" smooth="yes"/>
      <point x="808" y="708" type="line"/>
      <point x="898" y="708" type="line"/>
      <point x="898" y="616" type="line"/>
      <point x="839" y="601"/>
      <point x="760" y="589"/>
      <point x="700" y="589" type="curve" smooth="yes"/>
      <point x="644" y="589"/>
      <point x="616" y="593"/>
      <point x="597" y="614" type="curve"/>
      <point x="587" y="624"/>
      <point x="582" y="640"/>
      <point x="582" y="662" type="curve" smooth="yes"/>
      <point x="582" y="697" type="line"/>
      <point x="509" y="625"/>
      <point x="428" y="589"/>
      <point x="339" y="589" type="curve" smooth="yes"/>
      <point x="224" y="589"/>
      <point x="145" y="634"/>
      <point x="106" y="707" type="curve" smooth="yes"/>
      <point x="86" y="744"/>
      <point x="76" y="785"/>
      <point x="76" y="831" type="curve" smooth="yes"/>
    </contour>
    <contour>
      <point x="571" y="788" type="line"/>
      <point x="571" y="992" type="line"/>
      <point x="447" y="988"/>
      <point x="381" y="967"/>
      <point x="354" y="928" type="curve" smooth="yes"/>
      <point x="340" y="908"/>
      <point x="333" y="882"/>
      <point x="333" y="851" type="curve" smooth="yes"/>
      <point x="333" y="782"/>
      <point x="376" y="731"/>
      <point x="441" y="731" type="curve" smooth="yes"/>
      <point x="490" y="731"/>
      <point x="550" y="759"/>
      <point x="570" y="788" type="curve"/>
    </contour>
  </outline>
</glyph>
<glyph name="guillemotleft" format="1">
  <advance width="1714"/>
  <unicode hex="00AB"/>
  <note>
	guillemotleft
  </note>
  <outline>
    <contour>
      <point x="1463" y="1008" type="line"/>
      <point x="1543" y="879" type="line"/>
      <point x="1181" y="538" type="line"/>
      <point x="1545" y="203" type="line"/>
      <point x="1463" y="77" type="line"/>
      <point x="869" y="465" type="line"/>
      <point x="869" y="610" type="line"/>
    </contour>
    <contour>
      <point x="785" y="1008" type="line"/>
      <point x="865" y="879" type="line"/>
      <point x="503" y="538" type="line"/>
      <point x="867" y="203" type="line"/>
      <point x="785" y="77" type="line"/>
      <point x="191" y="465" type="line"/>
      <point x="191" y="610" type="line"/>
    </contour>
  </outline>
</glyph>
<glyph name="logicalnot" format="1">
  <advance width="1240"/>
  <unicode hex="00AC"/>
  <note>
	logicalnot
  </note>
  <outline>
    <contour>
      <point x="1056" y="632" type="line"/>
      <point x="1056" y="141" type="line"/>
      <point x="860" y="141" type="line"/>
      <point x="860" y="466" type="line"/>
      <point x="185" y="466" type="line"/>
      <point x="185" y="632" type="line"/>
    </contour>
  </outline>
</glyph>
<glyph name="uni00AD" format="1">
  <advance width="1183"/>
  <unicode hex="00AD"/>
  <note>
	uni00AD
  </note>
  <outline>
    <contour>
      <point x="981" y="633" type="line"/>
      <point x="981" y="451" type="line"/>
      <point x="202" y="451" type="line"/>
      <point x="202" y="633" type="line"/>
    </contour>
  </outline>
</glyph>
<glyph name="registered" format="1">
  <advance width="1874"/>
  <unicode hex="00AE"/>
  <note>
	registered
  </note>
  <outline>
    <contour>
      <point x="1218" y="1646"/>
      <point x="1464" y="1500"/>
      <point x="1600" y="1267" type="curve" smooth="yes"/>
      <point x="1667" y="1150"/>
      <point x="1701" y="1022"/>
      <point x="1701" y="882" type="curve" smooth="yes"/>
      <point x="1701" y="601"/>
      <point x="1556" y="353"/>
      <point x="1323" y="217" type="curve" smooth="yes"/>
      <point x="1206" y="148"/>
      <point x="1078" y="114"/>
      <point x="938" y="114" type="curve" smooth="yes"/>
      <point x="659" y="114"/>
      <point x="412" y="260"/>
      <point x="275" y="495" type="curve" smooth="yes"/>
      <point x="206" y="612"/>
      <point x="172" y="741"/>
      <point x="172" y="882" type="curve" smooth="yes"/>
      <point x="172" y="1162"/>
      <point x="320" y="1408"/>
      <point x="554" y="1544" type="curve" smooth="yes"/>
      <point x="671" y="1612"/>
      <point x="799" y="1646"/>
      <point x="938" y="1646" type="curve" smooth="yes"/>
    </contour>
    <contour>
      <point x="1169" y="234"/>
      <point x="1371" y="359"/>
      <point x="1481" y="558" type="curve" smooth="yes"/>
      <point x="1536" y="657"/>
      <point x="1563" y="765"/>
      <point x="1563" y="882" type="curve" smooth="yes"/>
      <point x="1563" y="1118"/>
      <point x="1446" y="1326"/>
      <point x="1255" y="1442" type="curve" smooth="yes"/>
      <point x="1160" y="1500"/>
      <point x="1054" y="1529"/>
      <point x="938" y="1529" type="curve" smooth="yes"/>
      <point x="705" y="1529"/>
      <point x="503" y="1402"/>
      <point x="394" y="1205" type="curve" smooth="yes"/>
      <point x="339" y="1106"/>
      <point x="312" y="999"/>
      <point x="312" y="882" type="curve" smooth="yes"/>
      <point x="312" y="646"/>
      <point x="429" y="436"/>
      <point x="621" y="321" type="curve" smooth="yes"/>
      <point x="716" y="263"/>
      <point x="822" y="234"/>
      <point x="938" y="234" type="curve" smooth="yes"/>
    </contour>
    <contour>
      <point x="656" y="568" type="line"/>
      <point x="656" y="1184" type="line"/>
      <point x="583" y="1206" type="line"/>
      <point x="583" y="1303" type="line"/>
      <point x="742" y="1303" type="line"/>
      <point x="751" y="1302"/>
      <point x="763" y="1302"/>
      <point x="778" y="1302" type="curve" smooth="yes"/>
      <point x="789" y="1302"/>
      <point x="811" y="1303"/>
      <point x="842" y="1304" type="curve" smooth="yes"/>
      <point x="913" y="1307"/>
      <point x="951" y="1308"/>
      <point x="954" y="1308" type="curve" smooth="yes"/>
      <point x="1174" y="1308"/>
      <point x="1286" y="1220"/>
      <point x="1286" y="1081" type="curve" smooth="yes"/>
      <point x="1286" y="956"/>
      <point x="1231" y="861"/>
      <point x="1112" y="834" type="curve"/>
      <point x="1169" y="810"/>
      <point x="1203" y="768"/>
      <point x="1222" y="728" type="curve" smooth="yes"/>
      <point x="1231" y="708"/>
      <point x="1241" y="683"/>
      <point x="1250" y="654" type="curve"/>
      <point x="1267" y="607"/>
      <point x="1275" y="585"/>
      <point x="1295" y="567" type="curve" smooth="yes"/>
      <point x="1305" y="558"/>
      <point x="1318" y="552"/>
      <point x="1333" y="551" type="curve"/>
      <point x="1333" y="457" type="line"/>
      <point x="1151" y="457" type="line" smooth="yes"/>
      <point x="1115" y="457"/>
      <point x="1093" y="486"/>
      <point x="1081" y="523" type="curve"/>
      <point x="1074" y="541"/>
      <point x="1067" y="566"/>
      <point x="1060" y="599" type="curve" smooth="yes"/>
      <point x="1043" y="668"/>
      <point x="1031" y="710"/>
      <point x="1004" y="748" type="curve" smooth="yes"/>
      <point x="991" y="767"/>
      <point x="973" y="780"/>
      <point x="951" y="788" type="curve"/>
      <point x="851" y="788" type="line"/>
      <point x="851" y="563" type="line"/>
      <point x="928" y="544" type="line"/>
      <point x="928" y="457" type="line"/>
      <point x="583" y="457" type="line"/>
      <point x="583" y="544" type="line"/>
    </contour>
    <contour>
      <point x="993" y="900"/>
      <point x="1034" y="931"/>
      <point x="1057" y="977" type="curve" smooth="yes"/>
      <point x="1068" y="1000"/>
      <point x="1074" y="1024"/>
      <point x="1074" y="1051" type="curve" smooth="yes"/>
      <point x="1074" y="1160"/>
      <point x="1034" y="1202"/>
      <point x="929" y="1202" type="curve" smooth="yes"/>
      <point x="894" y="1202"/>
      <point x="880" y="1201"/>
      <point x="851" y="1192" type="curve"/>
      <point x="851" y="908" type="line"/>
      <point x="879" y="901"/>
      <point x="902" y="900"/>
      <point x="946" y="900" type="curve" smooth="yes"/>
    </contour>
  </outline>
</glyph>
<glyph name="macron" format="1">
  <advance width="599"/>
  <unicode hex="00AF"/>
  <note>
	macron
  </note>
  <outline>
    <contour>
      <point x="571" y="1422" type="line"/>
      <point x="571" y="1250" type="line"/>
      <point x="27" y="1250" type="line"/>
      <point x="27" y="1422" type="line"/>
    </contour>
  </outline>
</glyph>
<glyph name="degree" format="1">
  <advance width="899"/>
  <unicode hex="00B0"/>
  <note>
	degree
  </note>
  <outline>
    <contour>
      <point x="126" y="1258"/>
      <point x="189" y="1360"/>
      <point x="288" y="1416" type="curve" smooth="yes"/>
      <point x="337" y="1443"/>
      <point x="391" y="1457"/>
      <point x="449" y="1457" type="curve" smooth="yes"/>
      <point x="572" y="1457"/>
      <point x="676" y="1395"/>
      <point x="732" y="1298" type="curve" smooth="yes"/>
      <point x="760" y="1249"/>
      <point x="774" y="1196"/>
      <point x="774" y="1138" type="curve" smooth="yes"/>
      <point x="774" y="1017"/>
      <point x="712" y="915"/>
      <point x="613" y="860" type="curve" smooth="yes"/>
      <point x="564" y="832"/>
      <point x="509" y="818"/>
      <point x="449" y="818" type="curve" smooth="yes"/>
      <point x="334" y="818"/>
      <point x="229" y="881"/>
      <point x="170" y="979" type="curve" smooth="yes"/>
      <point x="141" y="1028"/>
      <point x="126" y="1081"/>
      <point x="126" y="1138" type="curve" smooth="yes"/>
    </contour>
    <contour>
      <point x="599" y="1195"/>
      <point x="571" y="1248"/>
      <point x="524" y="1277" type="curve" smooth="yes"/>
      <point x="501" y="1292"/>
      <point x="475" y="1299"/>
      <point x="448" y="1299" type="curve" smooth="yes"/>
      <point x="391" y="1299"/>
      <point x="343" y="1269"/>
      <point x="319" y="1220" type="curve" smooth="yes"/>
      <point x="306" y="1195"/>
      <point x="300" y="1168"/>
      <point x="300" y="1138" type="curve" smooth="yes"/>
      <point x="300" y="1082"/>
      <point x="330" y="1029"/>
      <point x="376" y="1000" type="curve" smooth="yes"/>
      <point x="399" y="985"/>
      <point x="424" y="978"/>
      <point x="451" y="978" type="curve" smooth="yes"/>
      <point x="539" y="978"/>
      <point x="599" y="1043"/>
      <point x="599" y="1138" type="curve" smooth="yes"/>
    </contour>
  </outline>
</glyph>
<glyph name="plusminus" format="1">
  <advance width="1190"/>
  <unicode hex="00B1"/>
  <note>
	plusminus
  </note>
  <outline>
    <contour>
      <point x="347" y="730" type="line"/>
      <point x="507" y="719" type="line"/>
      <point x="501" y="854" type="line"/>
      <point x="501" y="1055" type="line"/>
      <point x="690" y="1055" type="line"/>
      <point x="690" y="854" type="line"/>
      <point x="682" y="719" type="line"/>
      <point x="817" y="730" type="line"/>
      <point x="1008" y="730" type="line"/>
      <point x="1008" y="546" type="line"/>
      <point x="817" y="546" type="line"/>
      <point x="682" y="552" type="line"/>
      <point x="690" y="419" type="line"/>
      <point x="690" y="234" type="line"/>
      <point x="501" y="234" type="line"/>
      <point x="501" y="419" type="line"/>
      <point x="507" y="552" type="line"/>
      <point x="347" y="546" type="line"/>
      <point x="182" y="546" type="line"/>
      <point x="182" y="730" type="line"/>
    </contour>
    <contour>
      <point x="998" y="177" type="line"/>
      <point x="998" y="-1" type="line"/>
      <point x="191" y="-1" type="line"/>
      <point x="191" y="177" type="line"/>
    </contour>
  </outline>
</glyph>
<glyph name="acute" format="1">
  <advance width="599"/>
  <unicode hex="00B4"/>
  <note>
	acute
  </note>
  <outline>
    <contour>
      <point x="453" y="1617" type="line"/>
      <point x="454" y="1617" type="line"/>
      <point x="625" y="1463" type="line"/>
      <point x="586" y="1396"/>
      <point x="479" y="1299"/>
      <point x="374" y="1224" type="curve" smooth="yes"/>
      <point x="321" y="1187"/>
      <point x="279" y="1162"/>
      <point x="246" y="1150" type="curve"/>
      <point x="245" y="1150" type="line"/>
      <point x="138" y="1238" type="line"/>
    </contour>
  </outline>
</glyph>
<glyph name="paragraph" format="1">
  <advance width="1440"/>
  <unicode hex="00B6"/>
  <note>
	paragraph
  </note>
  <outline>
    <contour>
      <point x="483" y="136" type="line"/>
      <point x="483" y="686" type="line"/>
      <point x="230" y="686"/>
      <point x="103" y="837"/>
      <point x="103" y="1100" type="curve" smooth="yes"/>
      <point x="103" y="1255"/>
      <point x="181" y="1382"/>
      <point x="328" y="1453" type="curve" smooth="yes"/>
      <point x="401" y="1488"/>
      <point x="489" y="1506"/>
      <point x="590" y="1506" type="curve" smooth="yes"/>
      <point x="674" y="1506"/>
      <point x="755" y="1503"/>
      <point x="833" y="1498" type="curve" smooth="yes"/>
      <point x="941" y="1490"/>
      <point x="1006" y="1488"/>
      <point x="1151" y="1488" type="curve" smooth="yes"/>
      <point x="1302" y="1488" type="line"/>
      <point x="1302" y="1368" type="line"/>
      <point x="1164" y="1347" type="line"/>
      <point x="1164" y="136" type="line"/>
      <point x="1280" y="114" type="line"/>
      <point x="1280" y="0" type="line"/>
      <point x="929" y="0" type="line"/>
      <point x="929" y="1346" type="line"/>
      <point x="869" y="1355"/>
      <point x="812" y="1359"/>
      <point x="758" y="1359" type="curve" smooth="yes"/>
      <point x="739" y="1359"/>
      <point x="725" y="1358"/>
      <point x="718" y="1356" type="curve"/>
      <point x="718" y="0" type="line"/>
      <point x="306" y="0" type="line"/>
      <point x="306" y="114" type="line"/>
    </contour>
  </outline>
</glyph>
<glyph name="cedilla" format="1">
  <advance width="541"/>
  <unicode hex="00B8"/>
  <note>
	cedilla
  </note>
  <outline>
    <contour>
      <point x="301" y="5" type="line"/>
      <point x="334" y="-24"/>
      <point x="378" y="-80"/>
      <point x="406" y="-151" type="curve" smooth="yes"/>
      <point x="434" y="-223"/>
      <point x="441" y="-354"/>
      <point x="355" y="-413" type="curve" smooth="yes"/>
      <point x="312" y="-443"/>
      <point x="247" y="-458"/>
      <point x="162" y="-458" type="curve" smooth="yes"/>
      <point x="161" y="-458" type="line" smooth="yes"/>
      <point x="121" y="-458"/>
      <point x="65" y="-447"/>
      <point x="34" y="-432" type="curve"/>
      <point x="35" y="-265" type="line"/>
      <point x="58" y="-272"/>
      <point x="92" y="-276"/>
      <point x="107" y="-276" type="curve" smooth="yes"/>
      <point x="108" y="-276" type="line" smooth="yes"/>
      <point x="167" y="-276"/>
      <point x="198" y="-269"/>
      <point x="215" y="-234" type="curve" smooth="yes"/>
      <point x="224" y="-217"/>
      <point x="228" y="-190"/>
      <point x="228" y="-154" type="curve" smooth="yes"/>
      <point x="228" y="-101"/>
      <point x="198" y="-28"/>
      <point x="174" y="5" type="curve"/>
      <point x="262" y="12" type="line"/>
    </contour>
  </outline>
</glyph>
<glyph name="ordmasculine" format="1">
  <advance width="955"/>
  <unicode hex="00BA"/>
  <note>
	ordmasculine
  </note>
  <outline>
    <contour>
      <point x="66" y="1197"/>
      <point x="155" y="1323"/>
      <point x="284" y="1383" type="curve" smooth="yes"/>
      <point x="348" y="1413"/>
      <point x="416" y="1428"/>
      <point x="488" y="1428" type="curve" smooth="yes"/>
      <point x="745" y="1428"/>
      <point x="891" y="1281"/>
      <point x="891" y="1017" type="curve" smooth="yes"/>
      <point x="891" y="825"/>
      <point x="802" y="696"/>
      <point x="676" y="637" type="curve" smooth="yes"/>
      <point x="613" y="607"/>
      <point x="546" y="592"/>
      <point x="476" y="592" type="curve" smooth="yes"/>
      <point x="316" y="592"/>
      <point x="190" y="654"/>
      <point x="119" y="779" type="curve" smooth="yes"/>
      <point x="84" y="842"/>
      <point x="66" y="919"/>
      <point x="66" y="1010" type="curve" smooth="yes"/>
    </contour>
    <contour>
      <point x="620" y="1101"/>
      <point x="608" y="1181"/>
      <point x="585" y="1237" type="curve" smooth="yes"/>
      <point x="562" y="1293"/>
      <point x="527" y="1321"/>
      <point x="480" y="1321" type="curve" smooth="yes"/>
      <point x="431" y="1321"/>
      <point x="395" y="1298"/>
      <point x="372" y="1253" type="curve" smooth="yes"/>
      <point x="349" y="1207"/>
      <point x="337" y="1131"/>
      <point x="337" y="1024" type="curve" smooth="yes"/>
      <point x="337" y="889"/>
      <point x="361" y="789"/>
      <point x="404" y="738" type="curve" smooth="yes"/>
      <point x="425" y="713"/>
      <point x="449" y="700"/>
      <point x="475" y="700" type="curve" smooth="yes"/>
      <point x="551" y="700"/>
      <point x="586" y="722"/>
      <point x="606" y="806" type="curve" smooth="yes"/>
      <point x="615" y="848"/>
      <point x="620" y="911"/>
      <point x="620" y="996" type="curve" smooth="yes"/>
    </contour>
  </outline>
</glyph>
<glyph name="guillemotright" format="1">
  <advance width="1708"/>
  <unicode hex="00BB"/>
  <note>
	guillemotright
  </note>
  <outline>
    <contour>
      <point x="855" y="465" type="line"/>
      <point x="261" y="77" type="line"/>
      <point x="180" y="203" type="line"/>
      <point x="543" y="538" type="line"/>
      <point x="181" y="879" type="line"/>
      <point x="261" y="1008" type="line"/>
      <point x="855" y="610" type="line"/>
    </contour>
    <contour>
      <point x="1519" y="465" type="line"/>
      <point x="925" y="77" type="line"/>
      <point x="843" y="203" type="line"/>
      <point x="1206" y="538" type="line"/>
      <point x="845" y="879" type="line"/>
      <point x="925" y="1008" type="line"/>
      <point x="1519" y="610" type="line"/>
    </contour>
  </outline>
</glyph>
<glyph name="onequarter" format="1">
  <advance width="2163"/>
  <unicode hex="00BC"/>
  <note>
	onequarter
  </note>
  <outline>
    <contour>
      <point x="1274" y="1463" type="line"/>
      <point x="1445" y="1447" type="line"/>
      <point x="822" y="-165" type="line"/>
      <point x="651" y="-151" type="line"/>
    </contour>
    <contour>
      <point x="341" y="618" type="line"/>
      <point x="341" y="1179" type="line"/>
      <point x="280" y="1156"/>
      <point x="231" y="1148"/>
      <point x="136" y="1133" type="curve"/>
      <point x="97" y="1259" type="line"/>
      <point x="224" y="1296"/>
      <point x="335" y="1341"/>
      <point x="427" y="1413" type="curve"/>
      <point x="431" y="1413" type="line"/>
      <point x="571" y="1390" type="line"/>
      <point x="571" y="619" type="line"/>
      <point x="781" y="598" type="line"/>
      <point x="781" y="479" type="line"/>
      <point x="117" y="479" type="line"/>
      <point x="117" y="598" type="line"/>
    </contour>
    <contour>
      <point x="1258" y="279" type="line"/>
      <point x="1302" y="356"/>
      <point x="1539" y="814"/>
      <point x="1618" y="969" type="curve"/>
      <point x="1824" y="969" type="line"/>
      <point x="1866" y="920" type="line"/>
      <point x="1558" y="424" type="line"/>
      <point x="1460" y="303" type="line"/>
      <point x="1757" y="318" type="line"/>
      <point x="1778" y="532" type="line"/>
      <point x="1959" y="547" type="line"/>
      <point x="1959" y="328" type="line"/>
      <point x="2114" y="336" type="line"/>
      <point x="2113" y="181" type="line"/>
      <point x="1959" y="181" type="line"/>
      <point x="1959" y="2" type="line"/>
      <point x="1756" y="2" type="line"/>
      <point x="1755" y="181" type="line"/>
      <point x="1334" y="181" type="line"/>
    </contour>
  </outline>
</glyph>
<glyph name="onehalf" format="1">
  <advance width="2144"/>
  <unicode hex="00BD"/>
  <note>
	onehalf
  </note>
  <outline>
    <contour>
      <point x="341" y="618" type="line"/>
      <point x="341" y="1179" type="line"/>
      <point x="280" y="1156"/>
      <point x="231" y="1148"/>
      <point x="136" y="1133" type="curve"/>
      <point x="97" y="1259" type="line"/>
      <point x="224" y="1296"/>
      <point x="335" y="1341"/>
      <point x="427" y="1413" type="curve"/>
      <point x="431" y="1413" type="line"/>
      <point x="571" y="1390" type="line"/>
      <point x="571" y="619" type="line"/>
      <point x="781" y="598" type="line"/>
      <point x="781" y="479" type="line"/>
      <point x="117" y="479" type="line"/>
      <point x="117" y="598" type="line"/>
    </contour>
    <contour>
      <point x="1274" y="1463" type="line"/>
      <point x="1445" y="1447" type="line"/>
      <point x="822" y="-165" type="line"/>
      <point x="651" y="-151" type="line"/>
    </contour>
    <contour>
      <point x="1302" y="111" type="line"/>
      <point x="1431" y="187"/>
      <point x="1583" y="305"/>
      <point x="1680" y="442" type="curve" smooth="yes"/>
      <point x="1728" y="510"/>
      <point x="1752" y="576"/>
      <point x="1752" y="639" type="curve" smooth="yes"/>
      <point x="1752" y="724"/>
      <point x="1694" y="779"/>
      <point x="1605" y="779" type="curve" smooth="yes"/>
      <point x="1509" y="779"/>
      <point x="1432" y="737"/>
      <point x="1377" y="690" type="curve"/>
      <point x="1303" y="781" type="line"/>
      <point x="1372" y="857"/>
      <point x="1497" y="934"/>
      <point x="1670" y="934" type="curve" smooth="yes"/>
      <point x="1803" y="934"/>
      <point x="1902" y="887"/>
      <point x="1954" y="808" type="curve" smooth="yes"/>
      <point x="1980" y="768"/>
      <point x="1993" y="722"/>
      <point x="1993" y="670" type="curve" smooth="yes"/>
      <point x="1993" y="545"/>
      <point x="1892" y="404"/>
      <point x="1745" y="283" type="curve" smooth="yes"/>
      <point x="1671" y="222"/>
      <point x="1592" y="170"/>
      <point x="1509" y="125" type="curve"/>
      <point x="1894" y="163" type="line"/>
      <point x="1967" y="283" type="line"/>
      <point x="2081" y="261" type="line"/>
      <point x="2037" y="-1" type="line"/>
      <point x="1346" y="-1" type="line"/>
    </contour>
  </outline>
</glyph>
<glyph name="threequarters" format="1">
  <advance width="2162"/>
  <unicode hex="00BE"/>
  <note>
	threequarters
  </note>
  <outline>
    <contour>
      <point x="1272" y="1463" type="line"/>
      <point x="1442" y="1447" type="line"/>
      <point x="819" y="-165" type="line"/>
      <point x="649" y="-151" type="line"/>
    </contour>
    <contour>
      <point x="104" y="644" type="line"/>
      <point x="152" y="621"/>
      <point x="249" y="606"/>
      <point x="309" y="606" type="curve" smooth="yes"/>
      <point x="469" y="606"/>
      <point x="554" y="659"/>
      <point x="554" y="767" type="curve" smooth="yes"/>
      <point x="554" y="814"/>
      <point x="529" y="856"/>
      <point x="474" y="881" type="curve" smooth="yes"/>
      <point x="446" y="893"/>
      <point x="411" y="899"/>
      <point x="370" y="900" type="curve"/>
      <point x="271" y="870" type="line"/>
      <point x="237" y="972" type="line"/>
      <point x="273" y="979"/>
      <point x="313" y="992"/>
      <point x="358" y="1011" type="curve"/>
      <point x="450" y="1044"/>
      <point x="496" y="1095"/>
      <point x="496" y="1162" type="curve" smooth="yes"/>
      <point x="496" y="1233"/>
      <point x="453" y="1267"/>
      <point x="356" y="1267" type="curve" smooth="yes"/>
      <point x="288" y="1267"/>
      <point x="193" y="1238"/>
      <point x="145" y="1201" type="curve"/>
      <point x="82" y="1302" type="line"/>
      <point x="118" y="1337"/>
      <point x="193" y="1375"/>
      <point x="282" y="1397" type="curve" smooth="yes"/>
      <point x="327" y="1408"/>
      <point x="372" y="1413"/>
      <point x="418" y="1413" type="curve" smooth="yes"/>
      <point x="549" y="1413"/>
      <point x="646" y="1376"/>
      <point x="698" y="1312" type="curve" smooth="yes"/>
      <point x="723" y="1279"/>
      <point x="736" y="1242"/>
      <point x="736" y="1199" type="curve" smooth="yes"/>
      <point x="736" y="1091"/>
      <point x="668" y="1018"/>
      <point x="532" y="966" type="curve"/>
      <point x="537" y="967"/>
      <point x="546" y="967"/>
      <point x="558" y="967" type="curve" smooth="yes"/>
      <point x="661" y="967"/>
      <point x="742" y="929"/>
      <point x="783" y="866" type="curve" smooth="yes"/>
      <point x="804" y="835"/>
      <point x="814" y="800"/>
      <point x="814" y="762" type="curve" smooth="yes"/>
      <point x="814" y="650"/>
      <point x="748" y="556"/>
      <point x="618" y="505" type="curve" smooth="yes"/>
      <point x="553" y="479"/>
      <point x="473" y="466"/>
      <point x="380" y="466" type="curve" smooth="yes"/>
      <point x="288" y="466"/>
      <point x="164" y="490"/>
      <point x="104" y="518" type="curve"/>
    </contour>
    <contour>
      <point x="1256" y="279" type="line"/>
      <point x="1299" y="356"/>
      <point x="1537" y="814"/>
      <point x="1616" y="969" type="curve"/>
      <point x="1822" y="969" type="line"/>
      <point x="1864" y="920" type="line"/>
      <point x="1555" y="424" type="line"/>
      <point x="1457" y="303" type="line"/>
      <point x="1755" y="318" type="line"/>
      <point x="1776" y="532" type="line"/>
      <point x="1956" y="547" type="line"/>
      <point x="1956" y="328" type="line"/>
      <point x="2111" y="336" type="line"/>
      <point x="2110" y="181" type="line"/>
      <point x="1956" y="181" type="line"/>
      <point x="1956" y="2" type="line"/>
      <point x="1753" y="2" type="line"/>
      <point x="1752" y="181" type="line"/>
      <point x="1331" y="181" type="line"/>
    </contour>
  </outline>
</glyph>
<glyph name="questiondown" format="1">
  <advance width="915"/>
  <unicode hex="00BF"/>
  <note>
	questiondown
  </note>
  <outline>
    <contour>
      <point x="679" y="809" type="line"/>
      <point x="688" y="770" type="line" smooth="yes"/>
      <point x="699" y="720"/>
      <point x="707" y="695"/>
      <point x="707" y="652" type="curve" smooth="yes"/>
      <point x="707" y="561"/>
      <point x="683" y="481"/>
      <point x="633" y="409" type="curve" smooth="yes"/>
      <point x="591" y="347"/>
      <point x="537" y="300"/>
      <point x="485" y="254" type="curve" smooth="yes"/>
      <point x="442" y="216"/>
      <point x="401" y="180"/>
      <point x="372" y="140" type="curve" smooth="yes"/>
      <point x="342" y="99"/>
      <point x="328" y="57"/>
      <point x="328" y="8" type="curve" smooth="yes"/>
      <point x="328" y="-52"/>
      <point x="346" y="-99"/>
      <point x="382" y="-131" type="curve" smooth="yes"/>
      <point x="401" y="-147"/>
      <point x="425" y="-160"/>
      <point x="453" y="-169" type="curve" smooth="yes"/>
      <point x="484" y="-179"/>
      <point x="521" y="-184"/>
      <point x="563" y="-184" type="curve" smooth="yes"/>
      <point x="643" y="-184"/>
      <point x="731" y="-158"/>
      <point x="794" y="-118" type="curve" smooth="yes"/>
      <point x="848" y="-83" type="line"/>
      <point x="908" y="-250" type="line"/>
      <point x="883" y="-272" type="line" smooth="yes"/>
      <point x="859" y="-292"/>
      <point x="808" y="-331"/>
      <point x="733" y="-362" type="curve" smooth="yes"/>
      <point x="658" y="-394"/>
      <point x="580" y="-410"/>
      <point x="502" y="-410" type="curve" smooth="yes"/>
      <point x="429" y="-410"/>
      <point x="364" y="-402"/>
      <point x="306" y="-385" type="curve" smooth="yes"/>
      <point x="247" y="-368"/>
      <point x="196" y="-342"/>
      <point x="155" y="-308" type="curve" smooth="yes"/>
      <point x="113" y="-273"/>
      <point x="81" y="-231"/>
      <point x="59" y="-181" type="curve" smooth="yes"/>
      <point x="38" y="-132"/>
      <point x="27" y="-76"/>
      <point x="27" y="-14" type="curve" smooth="yes"/>
      <point x="27" y="72"/>
      <point x="56" y="150"/>
      <point x="116" y="224" type="curve" smooth="yes"/>
      <point x="166" y="285"/>
      <point x="230" y="336"/>
      <point x="293" y="385" type="curve" smooth="yes"/>
      <point x="350" y="430"/>
      <point x="403" y="472"/>
      <point x="443" y="519" type="curve" smooth="yes"/>
      <point x="483" y="568"/>
      <point x="502" y="616"/>
      <point x="502" y="670" type="curve" smooth="yes"/>
      <point x="502" y="690"/>
      <point x="499" y="693"/>
      <point x="496" y="717" type="curve" smooth="yes"/>
      <point x="494" y="728"/>
      <point x="492" y="740"/>
      <point x="490" y="754" type="curve" smooth="yes"/>
      <point x="483" y="809" type="line"/>
    </contour>
    <contour>
      <point x="504" y="990"/>
      <point x="449" y="1040"/>
      <point x="438" y="1107" type="curve"/>
      <point x="437" y="1116"/>
      <point x="436" y="1124"/>
      <point x="436" y="1129" type="curve" smooth="yes"/>
      <point x="436" y="1206"/>
      <point x="496" y="1258"/>
      <point x="584" y="1266" type="curve" smooth="yes"/>
      <point x="593" y="1267"/>
      <point x="600" y="1268"/>
      <point x="605" y="1268" type="curve" smooth="yes"/>
      <point x="670" y="1268"/>
      <point x="730" y="1221"/>
      <point x="741" y="1152" type="curve"/>
      <point x="742" y="1149"/>
      <point x="742" y="1144"/>
      <point x="742" y="1137" type="curve" smooth="yes"/>
      <point x="742" y="1084"/>
      <point x="710" y="1035"/>
      <point x="660" y="1009" type="curve" smooth="yes"/>
      <point x="635" y="996"/>
      <point x="608" y="990"/>
      <point x="579" y="990" type="curve" smooth="yes"/>
    </contour>
  </outline>
</glyph>
<glyph name="Agrave" format="1">
  <advance width="1269"/>
  <unicode hex="00C0"/>
  <note>
	Agrave
  </note>
  <outline>
    <contour>
      <point x="69" y="141" type="line"/>
      <point x="475" y="1346" type="line"/>
      <point x="786" y="1346" type="line"/>
      <point x="1195" y="140" type="line"/>
      <point x="1297" y="118" type="line"/>
      <point x="1297" y="0" type="line"/>
      <point x="740" y="0" type="line"/>
      <point x="740" y="118" type="line"/>
      <point x="867" y="141" type="line"/>
      <point x="803" y="358" type="line"/>
      <point x="361" y="358" type="line"/>
      <point x="299" y="137" type="line"/>
      <point x="439" y="118" type="line"/>
      <point x="439" y="0" type="line"/>
      <point x="-35" y="0" type="line"/>
      <point x="-37" y="118" type="line"/>
    </contour>
    <contour>
      <point x="764" y="494" type="line"/>
      <point x="605" y="1038" type="line"/>
      <point x="577" y="1162" type="line"/>
      <point x="550" y="1038" type="line"/>
      <point x="399" y="494" type="line"/>
    </contour>
    <contour>
      <point x="507" y="1772" type="line"/>
      <point x="508" y="1772" type="line"/>
      <point x="783" y="1498" type="line"/>
      <point x="680" y="1420" type="line"/>
      <point x="679" y="1420" type="line"/>
      <point x="620" y="1436"/>
      <point x="512" y="1488"/>
      <point x="424" y="1551" type="curve" smooth="yes"/>
      <point x="379" y="1582"/>
      <point x="347" y="1613"/>
      <point x="327" y="1642" type="curve"/>
    </contour>
  </outline>
</glyph>
<glyph name="Aacute" format="1">
  <advance width="1269"/>
  <unicode hex="00C1"/>
  <note>
	Aacute
  </note>
  <outline>
    <contour>
      <point x="69" y="141" type="line"/>
      <point x="475" y="1346" type="line"/>
      <point x="786" y="1346" type="line"/>
      <point x="1195" y="140" type="line"/>
      <point x="1297" y="118" type="line"/>
      <point x="1297" y="0" type="line"/>
      <point x="740" y="0" type="line"/>
      <point x="740" y="118" type="line"/>
      <point x="867" y="141" type="line"/>
      <point x="803" y="358" type="line"/>
      <point x="361" y="358" type="line"/>
      <point x="299" y="137" type="line"/>
      <point x="439" y="118" type="line"/>
      <point x="439" y="0" type="line"/>
      <point x="-35" y="0" type="line"/>
      <point x="-37" y="118" type="line"/>
    </contour>
    <contour>
      <point x="764" y="494" type="line"/>
      <point x="605" y="1038" type="line"/>
      <point x="577" y="1162" type="line"/>
      <point x="550" y="1038" type="line"/>
      <point x="399" y="494" type="line"/>
    </contour>
    <contour>
      <point x="774" y="1772" type="line"/>
      <point x="775" y="1772" type="line"/>
      <point x="956" y="1642" type="line"/>
      <point x="897" y="1573"/>
      <point x="798" y="1506"/>
      <point x="709" y="1463" type="curve" smooth="yes"/>
      <point x="664" y="1441"/>
      <point x="629" y="1427"/>
      <point x="603" y="1420" type="curve"/>
      <point x="602" y="1420" type="line"/>
      <point x="499" y="1498" type="line"/>
    </contour>
  </outline>
</glyph>
<glyph name="Atilde" format="1">
  <advance width="1269"/>
  <unicode hex="00C3"/>
  <note>
	Atilde
  </note>
  <outline>
    <contour>
      <point x="69" y="141" type="line"/>
      <point x="475" y="1346" type="line"/>
      <point x="786" y="1346" type="line"/>
      <point x="1195" y="140" type="line"/>
      <point x="1297" y="118" type="line"/>
      <point x="1297" y="0" type="line"/>
      <point x="740" y="0" type="line"/>
      <point x="740" y="118" type="line"/>
      <point x="867" y="141" type="line"/>
      <point x="803" y="358" type="line"/>
      <point x="361" y="358" type="line"/>
      <point x="299" y="137" type="line"/>
      <point x="439" y="118" type="line"/>
      <point x="439" y="0" type="line"/>
      <point x="-35" y="0" type="line"/>
      <point x="-37" y="118" type="line"/>
    </contour>
    <contour>
      <point x="764" y="494" type="line"/>
      <point x="605" y="1038" type="line"/>
      <point x="577" y="1162" type="line"/>
      <point x="550" y="1038" type="line"/>
      <point x="399" y="494" type="line"/>
    </contour>
    <contour>
      <point x="404" y="1593"/>
      <point x="371" y="1563"/>
      <point x="332" y="1516" type="curve" smooth="yes"/>
      <point x="318" y="1500" type="line"/>
      <point x="227" y="1579" type="line"/>
      <point x="252" y="1636"/>
      <point x="301" y="1698"/>
      <point x="376" y="1738" type="curve" smooth="yes"/>
      <point x="413" y="1758"/>
      <point x="455" y="1768"/>
      <point x="500" y="1768" type="curve" smooth="yes"/>
      <point x="576" y="1768"/>
      <point x="623" y="1740"/>
      <point x="692" y="1689" type="curve" smooth="yes"/>
      <point x="747" y="1649"/>
      <point x="777" y="1631"/>
      <point x="818" y="1631" type="curve" smooth="yes"/>
      <point x="877" y="1631"/>
      <point x="903" y="1657"/>
      <point x="938" y="1704" type="curve" smooth="yes"/>
      <point x="953" y="1723" type="line"/>
      <point x="1045" y="1645" type="line"/>
      <point x="982" y="1518"/>
      <point x="897" y="1455"/>
      <point x="789" y="1455" type="curve" smooth="yes"/>
      <point x="717" y="1455"/>
      <point x="670" y="1480"/>
      <point x="597" y="1531" type="curve" smooth="yes"/>
      <point x="537" y="1574"/>
      <point x="503" y="1593"/>
      <point x="456" y="1593" type="curve" smooth="yes"/>
    </contour>
  </outline>
</glyph>
<glyph name="Aring" format="1">
  <advance width="1269"/>
  <unicode hex="00C5"/>
  <note>
	Aring
  </note>
  <outline>
    <contour>
      <point x="1297" y="118" type="line"/>
      <point x="1297" y="0" type="line"/>
      <point x="740" y="0" type="line"/>
      <point x="740" y="118" type="line"/>
      <point x="867" y="141" type="line"/>
      <point x="803" y="358" type="line"/>
      <point x="361" y="358" type="line"/>
      <point x="299" y="137" type="line"/>
      <point x="439" y="118" type="line"/>
      <point x="439" y="0" type="line"/>
      <point x="-35" y="0" type="line"/>
      <point x="-37" y="118" type="line"/>
      <point x="69" y="141" type="line"/>
      <point x="470" y="1331" type="line"/>
      <point x="369" y="1367"/>
      <point x="323" y="1443"/>
      <point x="323" y="1536" type="curve" smooth="yes"/>
      <point x="323" y="1635"/>
      <point x="383" y="1708"/>
      <point x="481" y="1745" type="curve" smooth="yes"/>
      <point x="530" y="1763"/>
      <point x="585" y="1772"/>
      <point x="646" y="1772" type="curve" smooth="yes"/>
      <point x="647" y="1772" type="line" smooth="yes"/>
      <point x="852" y="1772"/>
      <point x="950" y="1679"/>
      <point x="950" y="1539" type="curve" smooth="yes"/>
      <point x="950" y="1442"/>
      <point x="890" y="1369"/>
      <point x="790" y="1332" type="curve"/>
      <point x="1195" y="140" type="line"/>
    </contour>
    <contour>
      <point x="638" y="1667" type="line" smooth="yes"/>
      <point x="538" y="1667"/>
      <point x="502" y="1622"/>
      <point x="502" y="1542" type="curve" smooth="yes"/>
      <point x="502" y="1467"/>
      <point x="544" y="1411"/>
      <point x="637" y="1411" type="curve" smooth="yes"/>
      <point x="638" y="1411" type="line" smooth="yes"/>
      <point x="738" y="1411"/>
      <point x="771" y="1451"/>
      <point x="771" y="1531" type="curve" smooth="yes"/>
      <point x="771" y="1612"/>
      <point x="732" y="1667"/>
      <point x="639" y="1667" type="curve" smooth="yes"/>
    </contour>
    <contour>
      <point x="764" y="494" type="line"/>
      <point x="605" y="1038" type="line"/>
      <point x="577" y="1162" type="line"/>
      <point x="550" y="1038" type="line"/>
      <point x="399" y="494" type="line"/>
    </contour>
  </outline>
</glyph>
<glyph name="Ccedilla" format="1">
  <advance width="1188"/>
  <unicode hex="00C7"/>
  <note>
	Ccedilla
  </note>
  <outline>
    <contour>
      <point x="1096" y="49" type="line"/>
      <point x="1060" y="46"/>
      <point x="1038" y="40"/>
      <point x="979" y="23" type="curve" smooth="yes"/>
      <point x="896" y="-2"/>
      <point x="841" y="-16"/>
      <point x="746" y="-19" type="curve"/>
      <point x="802" y="-80"/>
      <point x="849" y="-172"/>
      <point x="845" y="-260" type="curve" smooth="yes"/>
      <point x="838" y="-405"/>
      <point x="754" y="-458"/>
      <point x="583" y="-458" type="curve" smooth="yes"/>
      <point x="582" y="-458" type="line" smooth="yes"/>
      <point x="542" y="-458"/>
      <point x="486" y="-447"/>
      <point x="455" y="-432" type="curve"/>
      <point x="456" y="-265" type="line"/>
      <point x="479" y="-272"/>
      <point x="513" y="-276"/>
      <point x="528" y="-276" type="curve" smooth="yes"/>
      <point x="529" y="-276" type="line" smooth="yes"/>
      <point x="588" y="-276"/>
      <point x="618" y="-269"/>
      <point x="636" y="-234" type="curve" smooth="yes"/>
      <point x="645" y="-217"/>
      <point x="649" y="-190"/>
      <point x="649" y="-154" type="curve" smooth="yes"/>
      <point x="649" y="-110"/>
      <point x="630" y="-56"/>
      <point x="607" y="-16" type="curve"/>
      <point x="364" y="9"/>
      <point x="195" y="126"/>
      <point x="111" y="320" type="curve" smooth="yes"/>
      <point x="69" y="417"/>
      <point x="48" y="530"/>
      <point x="48" y="660" type="curve" smooth="yes"/>
      <point x="48" y="945"/>
      <point x="172" y="1161"/>
      <point x="373" y="1271" type="curve" smooth="yes"/>
      <point x="474" y="1326"/>
      <point x="588" y="1353"/>
      <point x="715" y="1353" type="curve" smooth="yes"/>
      <point x="820" y="1353"/>
      <point x="912" y="1341"/>
      <point x="1037" y="1320" type="curve" smooth="yes"/>
      <point x="1086" y="1313"/>
      <point x="1116" y="1308"/>
      <point x="1129" y="1307" type="curve"/>
      <point x="1108" y="914" type="line"/>
      <point x="920" y="914" type="line"/>
      <point x="858" y="1180" type="line"/>
      <point x="838" y="1207"/>
      <point x="785" y="1226"/>
      <point x="693" y="1226" type="curve" smooth="yes"/>
      <point x="569" y="1226"/>
      <point x="475" y="1144"/>
      <point x="424" y="983" type="curve" smooth="yes"/>
      <point x="399" y="902"/>
      <point x="386" y="803"/>
      <point x="386" y="686" type="curve" smooth="yes"/>
      <point x="386" y="466"/>
      <point x="432" y="285"/>
      <point x="528" y="184" type="curve" smooth="yes"/>
      <point x="576" y="133"/>
      <point x="636" y="108"/>
      <point x="708" y="108" type="curve" smooth="yes"/>
      <point x="799" y="108"/>
      <point x="846" y="133"/>
      <point x="875" y="166" type="curve"/>
      <point x="959" y="361" type="line"/>
      <point x="1130" y="345" type="line"/>
    </contour>
  </outline>
</glyph>
<glyph name="Eacute" format="1">
  <advance width="1185"/>
  <unicode hex="00C9"/>
  <note>
	Eacute
  </note>
  <outline>
    <contour>
      <point x="741" y="1772" type="line"/>
      <point x="742" y="1772" type="line"/>
      <point x="923" y="1642" type="line"/>
      <point x="864" y="1573"/>
      <point x="765" y="1506"/>
      <point x="676" y="1463" type="curve" smooth="yes"/>
      <point x="631" y="1441"/>
      <point x="596" y="1427"/>
      <point x="570" y="1420" type="curve"/>
      <point x="569" y="1420" type="line"/>
      <point x="466" y="1498" type="line"/>
    </contour>
    <contour>
      <point x="205" y="140" type="line"/>
      <point x="205" y="1190" type="line"/>
      <point x="65" y="1215" type="line"/>
      <point x="65" y="1339" type="line"/>
      <point x="1039" y="1339" type="line"/>
      <point x="1064" y="1029" type="line"/>
      <point x="920" y="1029" type="line"/>
      <point x="859" y="1203" type="line"/>
      <point x="503" y="1221" type="line"/>
      <point x="503" y="752" type="line"/>
      <point x="727" y="758" type="line"/>
      <point x="759" y="903" type="line"/>
      <point x="888" y="903" type="line"/>
      <point x="888" y="455" type="line"/>
      <point x="759" y="455" type="line"/>
      <point x="729" y="610" type="line"/>
      <point x="503" y="615" type="line"/>
      <point x="503" y="128" type="line"/>
      <point x="899" y="151" type="line"/>
      <point x="1009" y="378" type="line"/>
      <point x="1160" y="335" type="line"/>
      <point x="1114" y="0" type="line"/>
      <point x="68" y="0" type="line"/>
      <point x="68" y="118" type="line"/>
    </contour>
  </outline>
</glyph>
<glyph name="Ecircumflex" format="1">
  <advance width="1185"/>
  <unicode hex="00CA"/>
  <note>
	Ecircumflex
  </note>
  <outline>
    <contour>
      <point x="205" y="140" type="line"/>
      <point x="205" y="1190" type="line"/>
      <point x="65" y="1215" type="line"/>
      <point x="65" y="1339" type="line"/>
      <point x="1039" y="1339" type="line"/>
      <point x="1064" y="1029" type="line"/>
      <point x="920" y="1029" type="line"/>
      <point x="859" y="1203" type="line"/>
      <point x="503" y="1221" type="line"/>
      <point x="503" y="752" type="line"/>
      <point x="727" y="758" type="line"/>
      <point x="759" y="903" type="line"/>
      <point x="888" y="903" type="line"/>
      <point x="888" y="455" type="line"/>
      <point x="759" y="455" type="line"/>
      <point x="729" y="610" type="line"/>
      <point x="503" y="615" type="line"/>
      <point x="503" y="128" type="line"/>
      <point x="899" y="151" type="line"/>
      <point x="1009" y="378" type="line"/>
      <point x="1160" y="335" type="line"/>
      <point x="1114" y="0" type="line"/>
      <point x="68" y="0" type="line"/>
      <point x="68" y="118" type="line"/>
    </contour>
    <contour>
      <point x="524" y="1767" type="line"/>
      <point x="702" y="1767" type="line"/>
      <point x="966" y="1507" type="line"/>
      <point x="867" y="1429" type="line"/>
      <point x="613" y="1597" type="line"/>
      <point x="357" y="1429" type="line"/>
      <point x="261" y="1506" type="line"/>
    </contour>
  </outline>
</glyph>
<glyph name="Edieresis" format="1">
  <advance width="1185"/>
  <unicode hex="00CB"/>
  <note>
	Edieresis
  </note>
  <outline>
    <contour>
      <point x="232" y="1689"/>
      <point x="287" y="1757"/>
      <point x="388" y="1757" type="curve" smooth="yes"/>
      <point x="389" y="1757" type="line" smooth="yes"/>
      <point x="481" y="1757"/>
      <point x="531" y="1696"/>
      <point x="531" y="1619" type="curve" smooth="yes"/>
      <point x="531" y="1520"/>
      <point x="475" y="1455"/>
      <point x="363" y="1455" type="curve" smooth="yes"/>
      <point x="362" y="1455" type="line" smooth="yes"/>
      <point x="311" y="1455"/>
      <point x="271" y="1481"/>
      <point x="249" y="1524" type="curve" smooth="yes"/>
      <point x="238" y="1545"/>
      <point x="232" y="1569"/>
      <point x="232" y="1594" type="curve" smooth="yes"/>
    </contour>
    <contour>
      <point x="697" y="1689"/>
      <point x="751" y="1757"/>
      <point x="851" y="1757" type="curve" smooth="yes"/>
      <point x="852" y="1757" type="line" smooth="yes"/>
      <point x="945" y="1757"/>
      <point x="996" y="1696"/>
      <point x="996" y="1619" type="curve" smooth="yes"/>
      <point x="996" y="1520"/>
      <point x="939" y="1455"/>
      <point x="827" y="1455" type="curve" smooth="yes"/>
      <point x="826" y="1455" type="line" smooth="yes"/>
      <point x="777" y="1455"/>
      <point x="736" y="1483"/>
      <point x="714" y="1526" type="curve" smooth="yes"/>
      <point x="703" y="1547"/>
      <point x="697" y="1570"/>
      <point x="697" y="1594" type="curve" smooth="yes"/>
    </contour>
    <contour>
      <point x="205" y="140" type="line"/>
      <point x="205" y="1190" type="line"/>
      <point x="65" y="1215" type="line"/>
      <point x="65" y="1339" type="line"/>
      <point x="1039" y="1339" type="line"/>
      <point x="1064" y="1029" type="line"/>
      <point x="920" y="1029" type="line"/>
      <point x="859" y="1203" type="line"/>
      <point x="503" y="1221" type="line"/>
      <point x="503" y="752" type="line"/>
      <point x="727" y="758" type="line"/>
      <point x="759" y="903" type="line"/>
      <point x="888" y="903" type="line"/>
      <point x="888" y="455" type="line"/>
      <point x="759" y="455" type="line"/>
      <point x="729" y="610" type="line"/>
      <point x="503" y="615" type="line"/>
      <point x="503" y="128" type="line"/>
      <point x="899" y="151" type="line"/>
      <point x="1009" y="378" type="line"/>
      <point x="1160" y="335" type="line"/>
      <point x="1114" y="0" type="line"/>
      <point x="68" y="0" type="line"/>
      <point x="68" y="118" type="line"/>
    </contour>
  </outline>
</glyph>
<glyph name="Igrave" format="1">
  <advance width="748"/>
  <unicode hex="00CC"/>
  <note>
	Igrave
  </note>
  <outline>
    <contour>
      <point x="225" y="141" type="line"/>
      <point x="225" y="1190" type="line"/>
      <point x="78" y="1215" type="line"/>
      <point x="78" y="1339" type="line"/>
      <point x="671" y="1339" type="line"/>
      <point x="671" y="1215" type="line"/>
      <point x="524" y="1191" type="line"/>
      <point x="524" y="141" type="line"/>
      <point x="673" y="116" type="line"/>
      <point x="673" y="0" type="line"/>
      <point x="80" y="0" type="line"/>
      <point x="80" y="118" type="line"/>
    </contour>
    <contour>
      <point x="246" y="1772" type="line"/>
      <point x="247" y="1772" type="line"/>
      <point x="522" y="1498" type="line"/>
      <point x="419" y="1420" type="line"/>
      <point x="418" y="1420" type="line"/>
      <point x="359" y="1436"/>
      <point x="251" y="1488"/>
      <point x="163" y="1551" type="curve" smooth="yes"/>
      <point x="118" y="1582"/>
      <point x="86" y="1613"/>
      <point x="66" y="1642" type="curve"/>
    </contour>
  </outline>
</glyph>
<glyph name="Iacute" format="1">
  <advance width="748"/>
  <unicode hex="00CD"/>
  <note>
	Iacute
  </note>
  <outline>
    <contour>
      <point x="225" y="141" type="line"/>
      <point x="225" y="1190" type="line"/>
      <point x="78" y="1215" type="line"/>
      <point x="78" y="1339" type="line"/>
      <point x="671" y="1339" type="line"/>
      <point x="671" y="1215" type="line"/>
      <point x="524" y="1191" type="line"/>
      <point x="524" y="141" type="line"/>
      <point x="673" y="116" type="line"/>
      <point x="673" y="0" type="line"/>
      <point x="80" y="0" type="line"/>
      <point x="80" y="118" type="line"/>
    </contour>
    <contour>
      <point x="513" y="1772" type="line"/>
      <point x="514" y="1772" type="line"/>
      <point x="695" y="1642" type="line"/>
      <point x="636" y="1573"/>
      <point x="537" y="1506"/>
      <point x="448" y="1463" type="curve" smooth="yes"/>
      <point x="403" y="1441"/>
      <point x="368" y="1427"/>
      <point x="342" y="1420" type="curve"/>
      <point x="341" y="1420" type="line"/>
      <point x="238" y="1498" type="line"/>
    </contour>
  </outline>
</glyph>
<glyph name="Icircumflex" format="1">
  <advance width="748"/>
  <unicode hex="00CE"/>
  <note>
	Icircumflex
  </note>
  <outline>
    <contour>
      <point x="225" y="141" type="line"/>
      <point x="225" y="1190" type="line"/>
      <point x="78" y="1215" type="line"/>
      <point x="78" y="1339" type="line"/>
      <point x="671" y="1339" type="line"/>
      <point x="671" y="1215" type="line"/>
      <point x="524" y="1191" type="line"/>
      <point x="524" y="141" type="line"/>
      <point x="673" y="116" type="line"/>
      <point x="673" y="0" type="line"/>
      <point x="80" y="0" type="line"/>
      <point x="80" y="118" type="line"/>
    </contour>
    <contour>
      <point x="283" y="1767" type="line"/>
      <point x="461" y="1767" type="line"/>
      <point x="725" y="1507" type="line"/>
      <point x="626" y="1429" type="line"/>
      <point x="372" y="1597" type="line"/>
      <point x="116" y="1429" type="line"/>
      <point x="20" y="1506" type="line"/>
    </contour>
  </outline>
</glyph>
<glyph name="Ntilde" format="1">
  <advance width="1456"/>
  <unicode hex="00D1"/>
  <note>
	Ntilde
  </note>
  <outline>
    <contour>
      <point x="513" y="1593"/>
      <point x="480" y="1563"/>
      <point x="441" y="1516" type="curve" smooth="yes"/>
      <point x="427" y="1500" type="line"/>
      <point x="336" y="1579" type="line"/>
      <point x="361" y="1636"/>
      <point x="410" y="1698"/>
      <point x="485" y="1738" type="curve" smooth="yes"/>
      <point x="522" y="1758"/>
      <point x="564" y="1768"/>
      <point x="609" y="1768" type="curve" smooth="yes"/>
      <point x="685" y="1768"/>
      <point x="732" y="1740"/>
      <point x="801" y="1689" type="curve" smooth="yes"/>
      <point x="856" y="1649"/>
      <point x="886" y="1631"/>
      <point x="927" y="1631" type="curve" smooth="yes"/>
      <point x="986" y="1631"/>
      <point x="1012" y="1657"/>
      <point x="1047" y="1704" type="curve" smooth="yes"/>
      <point x="1062" y="1723" type="line"/>
      <point x="1154" y="1645" type="line"/>
      <point x="1091" y="1518"/>
      <point x="1006" y="1455"/>
      <point x="898" y="1455" type="curve" smooth="yes"/>
      <point x="826" y="1455"/>
      <point x="779" y="1480"/>
      <point x="706" y="1531" type="curve" smooth="yes"/>
      <point x="646" y="1574"/>
      <point x="612" y="1593"/>
      <point x="565" y="1593" type="curve" smooth="yes"/>
    </contour>
    <contour>
      <point x="207" y="140" type="line"/>
      <point x="207" y="1191" type="line"/>
      <point x="64" y="1215" type="line"/>
      <point x="64" y="1339" type="line"/>
      <point x="503" y="1339" type="line"/>
      <point x="1016" y="562" type="line"/>
      <point x="1111" y="358" type="line"/>
      <point x="1111" y="1192" type="line"/>
      <point x="957" y="1215" type="line"/>
      <point x="957" y="1339" type="line"/>
      <point x="1419" y="1339" type="line"/>
      <point x="1419" y="1215" type="line"/>
      <point x="1280" y="1191" type="line"/>
      <point x="1280" y="0" type="line"/>
      <point x="1036" y="0" type="line"/>
      <point x="496" y="825" type="line"/>
      <point x="377" y="1066" type="line"/>
      <point x="377" y="140" type="line"/>
      <point x="561" y="118" type="line"/>
      <point x="561" y="0" type="line"/>
      <point x="64" y="0" type="line"/>
      <point x="64" y="118" type="line"/>
    </contour>
  </outline>
</glyph>
<glyph name="Ograve" format="1">
  <advance width="1322"/>
  <unicode hex="00D2"/>
  <note>
	Ograve
  </note>
  <outline>
    <contour>
      <point x="540" y="1772" type="line"/>
      <point x="541" y="1772" type="line"/>
      <point x="816" y="1498" type="line"/>
      <point x="713" y="1420" type="line"/>
      <point x="712" y="1420" type="line"/>
      <point x="653" y="1436"/>
      <point x="545" y="1488"/>
      <point x="457" y="1551" type="curve" smooth="yes"/>
      <point x="412" y="1582"/>
      <point x="380" y="1613"/>
      <point x="360" y="1642" type="curve"/>
    </contour>
    <contour>
      <point x="52" y="943"/>
      <point x="160" y="1158"/>
      <point x="348" y="1271" type="curve" smooth="yes"/>
      <point x="535" y="1384"/>
      <point x="927" y="1413"/>
      <point x="1123" y="1181" type="curve" smooth="yes"/>
      <point x="1221" y="1064"/>
      <point x="1270" y="901"/>
      <point x="1270" y="690" type="curve" smooth="yes"/>
      <point x="1270" y="409"/>
      <point x="1162" y="187"/>
      <point x="972" y="69" type="curve" smooth="yes"/>
      <point x="877" y="10"/>
      <point x="767" y="-20"/>
      <point x="643" y="-20" type="curve" smooth="yes"/>
      <point x="375" y="-20"/>
      <point x="200" y="99"/>
      <point x="116" y="303" type="curve" smooth="yes"/>
      <point x="73" y="405"/>
      <point x="52" y="525"/>
      <point x="52" y="664" type="curve" smooth="yes"/>
    </contour>
    <contour>
      <point x="380" y="290"/>
      <point x="481" y="102"/>
      <point x="660" y="102" type="curve" smooth="yes"/>
      <point x="779" y="102"/>
      <point x="864" y="190"/>
      <point x="909" y="366" type="curve" smooth="yes"/>
      <point x="932" y="453"/>
      <point x="943" y="561"/>
      <point x="943" y="689" type="curve" smooth="yes"/>
      <point x="943" y="1062"/>
      <point x="844" y="1235"/>
      <point x="661" y="1235" type="curve" smooth="yes"/>
      <point x="481" y="1235"/>
      <point x="380" y="1046"/>
      <point x="380" y="666" type="curve" smooth="yes"/>
    </contour>
  </outline>
</glyph>
<glyph name="Oacute" format="1">
  <advance width="1322"/>
  <unicode hex="00D3"/>
  <note>
	Oacute
  </note>
  <outline>
    <contour>
      <point x="802" y="1772" type="line"/>
      <point x="803" y="1772" type="line"/>
      <point x="984" y="1642" type="line"/>
      <point x="925" y="1573"/>
      <point x="826" y="1506"/>
      <point x="737" y="1463" type="curve" smooth="yes"/>
      <point x="692" y="1441"/>
      <point x="657" y="1427"/>
      <point x="631" y="1420" type="curve"/>
      <point x="630" y="1420" type="line"/>
      <point x="527" y="1498" type="line"/>
    </contour>
    <contour>
      <point x="52" y="943"/>
      <point x="160" y="1158"/>
      <point x="348" y="1271" type="curve" smooth="yes"/>
      <point x="535" y="1384"/>
      <point x="927" y="1413"/>
      <point x="1123" y="1181" type="curve" smooth="yes"/>
      <point x="1221" y="1064"/>
      <point x="1270" y="901"/>
      <point x="1270" y="690" type="curve" smooth="yes"/>
      <point x="1270" y="409"/>
      <point x="1162" y="187"/>
      <point x="972" y="69" type="curve" smooth="yes"/>
      <point x="877" y="10"/>
      <point x="767" y="-20"/>
      <point x="643" y="-20" type="curve" smooth="yes"/>
      <point x="375" y="-20"/>
      <point x="200" y="99"/>
      <point x="116" y="303" type="curve" smooth="yes"/>
      <point x="73" y="405"/>
      <point x="52" y="525"/>
      <point x="52" y="664" type="curve" smooth="yes"/>
    </contour>
    <contour>
      <point x="380" y="290"/>
      <point x="481" y="102"/>
      <point x="660" y="102" type="curve" smooth="yes"/>
      <point x="779" y="102"/>
      <point x="864" y="190"/>
      <point x="909" y="366" type="curve" smooth="yes"/>
      <point x="932" y="453"/>
      <point x="943" y="561"/>
      <point x="943" y="689" type="curve" smooth="yes"/>
      <point x="943" y="1062"/>
      <point x="844" y="1235"/>
      <point x="661" y="1235" type="curve" smooth="yes"/>
      <point x="481" y="1235"/>
      <point x="380" y="1046"/>
      <point x="380" y="666" type="curve" smooth="yes"/>
    </contour>
  </outline>
</glyph>
<glyph name="Otilde" format="1">
  <advance width="1322"/>
  <unicode hex="00D5"/>
  <note>
	Otilde
  </note>
  <outline>
    <contour>
      <point x="433" y="1593"/>
      <point x="400" y="1563"/>
      <point x="361" y="1516" type="curve" smooth="yes"/>
      <point x="347" y="1500" type="line"/>
      <point x="256" y="1579" type="line"/>
      <point x="281" y="1636"/>
      <point x="330" y="1698"/>
      <point x="405" y="1738" type="curve" smooth="yes"/>
      <point x="442" y="1758"/>
      <point x="484" y="1768"/>
      <point x="529" y="1768" type="curve" smooth="yes"/>
      <point x="605" y="1768"/>
      <point x="652" y="1740"/>
      <point x="721" y="1689" type="curve" smooth="yes"/>
      <point x="776" y="1649"/>
      <point x="806" y="1631"/>
      <point x="847" y="1631" type="curve" smooth="yes"/>
      <point x="906" y="1631"/>
      <point x="932" y="1657"/>
      <point x="967" y="1704" type="curve" smooth="yes"/>
      <point x="982" y="1723" type="line"/>
      <point x="1074" y="1645" type="line"/>
      <point x="1011" y="1518"/>
      <point x="926" y="1455"/>
      <point x="818" y="1455" type="curve" smooth="yes"/>
      <point x="746" y="1455"/>
      <point x="699" y="1480"/>
      <point x="626" y="1531" type="curve" smooth="yes"/>
      <point x="566" y="1574"/>
      <point x="532" y="1593"/>
      <point x="485" y="1593" type="curve" smooth="yes"/>
    </contour>
    <contour>
      <point x="52" y="943"/>
      <point x="160" y="1158"/>
      <point x="348" y="1271" type="curve" smooth="yes"/>
      <point x="535" y="1384"/>
      <point x="927" y="1413"/>
      <point x="1123" y="1181" type="curve" smooth="yes"/>
      <point x="1221" y="1064"/>
      <point x="1270" y="901"/>
      <point x="1270" y="690" type="curve" smooth="yes"/>
      <point x="1270" y="409"/>
      <point x="1162" y="187"/>
      <point x="972" y="69" type="curve" smooth="yes"/>
      <point x="877" y="10"/>
      <point x="767" y="-20"/>
      <point x="643" y="-20" type="curve" smooth="yes"/>
      <point x="375" y="-20"/>
      <point x="200" y="99"/>
      <point x="116" y="303" type="curve" smooth="yes"/>
      <point x="73" y="405"/>
      <point x="52" y="525"/>
      <point x="52" y="664" type="curve" smooth="yes"/>
    </contour>
    <contour>
      <point x="380" y="290"/>
      <point x="481" y="102"/>
      <point x="660" y="102" type="curve" smooth="yes"/>
      <point x="779" y="102"/>
      <point x="864" y="190"/>
      <point x="909" y="366" type="curve" smooth="yes"/>
      <point x="932" y="453"/>
      <point x="943" y="561"/>
      <point x="943" y="689" type="curve" smooth="yes"/>
      <point x="943" y="1062"/>
      <point x="844" y="1235"/>
      <point x="661" y="1235" type="curve" smooth="yes"/>
      <point x="481" y="1235"/>
      <point x="380" y="1046"/>
      <point x="380" y="666" type="curve" smooth="yes"/>
    </contour>
  </outline>
</glyph>
<glyph name="Odieresis" format="1">
  <advance width="1322"/>
  <unicode hex="00D6"/>
  <note>
	Odieresis
  </note>
  <outline>
    <contour>
      <point x="283" y="1689"/>
      <point x="338" y="1757"/>
      <point x="439" y="1757" type="curve" smooth="yes"/>
      <point x="440" y="1757" type="line" smooth="yes"/>
      <point x="532" y="1757"/>
      <point x="582" y="1696"/>
      <point x="582" y="1619" type="curve" smooth="yes"/>
      <point x="582" y="1520"/>
      <point x="526" y="1455"/>
      <point x="414" y="1455" type="curve" smooth="yes"/>
      <point x="413" y="1455" type="line" smooth="yes"/>
      <point x="362" y="1455"/>
      <point x="322" y="1481"/>
      <point x="300" y="1524" type="curve" smooth="yes"/>
      <point x="289" y="1545"/>
      <point x="283" y="1569"/>
      <point x="283" y="1594" type="curve" smooth="yes"/>
    </contour>
    <contour>
      <point x="748" y="1689"/>
      <point x="802" y="1757"/>
      <point x="902" y="1757" type="curve" smooth="yes"/>
      <point x="903" y="1757" type="line" smooth="yes"/>
      <point x="996" y="1757"/>
      <point x="1047" y="1696"/>
      <point x="1047" y="1619" type="curve" smooth="yes"/>
      <point x="1047" y="1520"/>
      <point x="990" y="1455"/>
      <point x="878" y="1455" type="curve" smooth="yes"/>
      <point x="877" y="1455" type="line" smooth="yes"/>
      <point x="828" y="1455"/>
      <point x="787" y="1483"/>
      <point x="765" y="1526" type="curve" smooth="yes"/>
      <point x="754" y="1547"/>
      <point x="748" y="1570"/>
      <point x="748" y="1594" type="curve" smooth="yes"/>
    </contour>
    <contour>
      <point x="52" y="943"/>
      <point x="160" y="1158"/>
      <point x="348" y="1271" type="curve" smooth="yes"/>
      <point x="535" y="1384"/>
      <point x="927" y="1413"/>
      <point x="1123" y="1181" type="curve" smooth="yes"/>
      <point x="1221" y="1064"/>
      <point x="1270" y="901"/>
      <point x="1270" y="690" type="curve" smooth="yes"/>
      <point x="1270" y="409"/>
      <point x="1162" y="187"/>
      <point x="972" y="69" type="curve" smooth="yes"/>
      <point x="877" y="10"/>
      <point x="767" y="-20"/>
      <point x="643" y="-20" type="curve" smooth="yes"/>
      <point x="375" y="-20"/>
      <point x="200" y="99"/>
      <point x="116" y="303" type="curve" smooth="yes"/>
      <point x="73" y="405"/>
      <point x="52" y="525"/>
      <point x="52" y="664" type="curve" smooth="yes"/>
    </contour>
    <contour>
      <point x="380" y="290"/>
      <point x="481" y="102"/>
      <point x="660" y="102" type="curve" smooth="yes"/>
      <point x="779" y="102"/>
      <point x="864" y="190"/>
      <point x="909" y="366" type="curve" smooth="yes"/>
      <point x="932" y="453"/>
      <point x="943" y="561"/>
      <point x="943" y="689" type="curve" smooth="yes"/>
      <point x="943" y="1062"/>
      <point x="844" y="1235"/>
      <point x="661" y="1235" type="curve" smooth="yes"/>
      <point x="481" y="1235"/>
      <point x="380" y="1046"/>
      <point x="380" y="666" type="curve" smooth="yes"/>
    </contour>
  </outline>
</glyph>
<glyph name="multiply" format="1">
  <advance width="1108"/>
  <unicode hex="00D7"/>
  <note>
	multiply
  </note>
  <outline>
    <contour>
      <point x="422" y="542" type="line"/>
      <point x="122" y="825" type="line"/>
      <point x="276" y="980" type="line"/>
      <point x="555" y="673" type="line"/>
      <point x="832" y="980" type="line"/>
      <point x="984" y="826" type="line"/>
      <point x="688" y="542" type="line"/>
      <point x="984" y="260" type="line"/>
      <point x="832" y="106" type="line"/>
      <point x="555" y="411" type="line"/>
      <point x="278" y="106" type="line"/>
      <point x="126" y="259" type="line"/>
    </contour>
  </outline>
</glyph>
<glyph name="Oslash" format="1">
  <advance width="1314"/>
  <unicode hex="00D8"/>
  <note>
	Oslash
  </note>
  <outline>
    <contour>
      <point x="350" y="40" type="line"/>
      <point x="147" y="140"/>
      <point x="48" y="361"/>
      <point x="48" y="664" type="curve" smooth="yes"/>
      <point x="48" y="941"/>
      <point x="155" y="1157"/>
      <point x="343" y="1271" type="curve" smooth="yes"/>
      <point x="436" y="1328"/>
      <point x="544" y="1356"/>
      <point x="667" y="1356" type="curve" smooth="yes"/>
      <point x="726" y="1356"/>
      <point x="783" y="1350"/>
      <point x="837" y="1339" type="curve"/>
      <point x="912" y="1534" type="line"/>
      <point x="1038" y="1494" type="line"/>
      <point x="961" y="1298" type="line"/>
      <point x="1168" y="1203"/>
      <point x="1266" y="991"/>
      <point x="1266" y="690" type="curve" smooth="yes"/>
      <point x="1266" y="410"/>
      <point x="1159" y="190"/>
      <point x="972" y="71" type="curve" smooth="yes"/>
      <point x="879" y="12"/>
      <point x="771" y="-19"/>
      <point x="649" y="-20" type="curve" smooth="yes"/>
      <point x="588" y="-20"/>
      <point x="532" y="-15"/>
      <point x="481" y="-4" type="curve"/>
      <point x="400" y="-211" type="line"/>
      <point x="266" y="-173" type="line"/>
    </contour>
    <contour>
      <point x="376" y="467"/>
      <point x="403" y="319"/>
      <point x="458" y="224" type="curve"/>
      <point x="790" y="1193" type="line"/>
      <point x="753" y="1221"/>
      <point x="709" y="1235"/>
      <point x="657" y="1235" type="curve" smooth="yes"/>
      <point x="477" y="1235"/>
      <point x="376" y="1046"/>
      <point x="376" y="666" type="curve" smooth="yes"/>
    </contour>
    <contour>
      <point x="531" y="142" type="line"/>
      <point x="567" y="115"/>
      <point x="609" y="102"/>
      <point x="656" y="102" type="curve" smooth="yes"/>
      <point x="775" y="102"/>
      <point x="860" y="190"/>
      <point x="905" y="366" type="curve" smooth="yes"/>
      <point x="928" y="453"/>
      <point x="939" y="561"/>
      <point x="939" y="689" type="curve" smooth="yes"/>
      <point x="939" y="878"/>
      <point x="913" y="1018"/>
      <point x="862" y="1109" type="curve"/>
    </contour>
  </outline>
</glyph>
<glyph name="Uacute" format="1">
  <advance width="1336"/>
  <unicode hex="00DA"/>
  <note>
	Uacute
  </note>
  <outline>
    <contour>
      <point x="842" y="1772" type="line"/>
      <point x="843" y="1772" type="line"/>
      <point x="1024" y="1642" type="line"/>
      <point x="965" y="1573"/>
      <point x="866" y="1506"/>
      <point x="777" y="1463" type="curve" smooth="yes"/>
      <point x="732" y="1441"/>
      <point x="697" y="1427"/>
      <point x="671" y="1420" type="curve"/>
      <point x="670" y="1420" type="line"/>
      <point x="567" y="1498" type="line"/>
    </contour>
    <contour>
      <point x="141" y="1190" type="line"/>
      <point x="26" y="1215" type="line"/>
      <point x="26" y="1339" type="line"/>
      <point x="598" y="1339" type="line"/>
      <point x="598" y="1215" type="line"/>
      <point x="450" y="1189" type="line"/>
      <point x="450" y="524" type="line" smooth="yes"/>
      <point x="450" y="243"/>
      <point x="542" y="111"/>
      <point x="733" y="111" type="curve" smooth="yes"/>
      <point x="921" y="111"/>
      <point x="1009" y="262"/>
      <point x="1009" y="519" type="curve" smooth="yes"/>
      <point x="1009" y="1190" type="line"/>
      <point x="858" y="1215" type="line"/>
      <point x="858" y="1339" type="line"/>
      <point x="1319" y="1339" type="line"/>
      <point x="1319" y="1215" type="line"/>
      <point x="1200" y="1190" type="line"/>
      <point x="1200" y="534" type="line" smooth="yes"/>
      <point x="1200" y="281"/>
      <point x="1109" y="118"/>
      <point x="958" y="43" type="curve" smooth="yes"/>
      <point x="882" y="5"/>
      <point x="794" y="-14"/>
      <point x="693" y="-14" type="curve" smooth="yes"/>
      <point x="440" y="-14"/>
      <point x="280" y="61"/>
      <point x="201" y="226" type="curve" smooth="yes"/>
      <point x="161" y="309"/>
      <point x="141" y="416"/>
      <point x="141" y="549" type="curve" smooth="yes"/>
    </contour>
  </outline>
</glyph>
